<mxfile host="Electron" modified="2024-05-02T07:27:09.336Z" agent="Mozilla/5.0 (Windows NT 10.0; Win64; x64) AppleWebKit/537.36 (KHTML, like Gecko) draw.io/24.2.5 Chrome/120.0.6099.109 Electron/28.1.0 Safari/537.36" etag="pvQw_yjNRjhOkzJoCBHT" version="24.2.5" type="device">
  <diagram name="Strona-1" id="aMsOuzOIRYpbBBv8pW3o">
    <mxGraphModel dx="2261" dy="2013" grid="1" gridSize="10" guides="1" tooltips="1" connect="1" arrows="1" fold="1" page="1" pageScale="1" pageWidth="827" pageHeight="1169" math="0" shadow="0">
      <root>
        <mxCell id="0" />
        <mxCell id="1" parent="0" />
        <mxCell id="0tO4ifJpbV5qPvzmkiWj-5" value="" style="shape=image;verticalLabelPosition=bottom;labelBackgroundColor=default;verticalAlign=top;aspect=fixed;imageAspect=0;image=data:image/png,iVBORw0KGgoAAAANSUhEUgAABNMAAAMDCAYAAACICFPpAAAAAXNSR0IArs4c6QAAAARnQU1BAACxjwv8YQUAAAAJcEhZcwAADsMAAA7DAcdvqGQAAP+lSURBVHhe7P0PfFTlnff/fwaTe8u6++hd4REnK2xJa1faVVuRLgRhEaxfrNs/JjEsSQSrrN1VtlqpW0ViNg0JSJfF1lbduy5asUlYIon9L2tB+YFJaClqoZXu2oY22Iwpae/euwjdCczvXOdck8zkXGdyBuZ/Xk8fxznnzDXnvDMzZ5h8cp1zBSKW4eFhUYqKiuxbL6lup4RCIQkGg3rJjHzeyOdGPjPymZHPG/ncyGdGPjPyeSOfG/nMyGdGPm/kcyOfGfnMyOctNt8k+/8AAAAAAAAAxkUxDQAAABl1/PhxPQcAAJB/KKYBAAAgo4aGhvQcAABA/qGYBgAAAAAAAPhEMQ0AAAAZNWXKFD0HAACQfwIDAwORM2fO2AuTJiWurZnaBQIBiUQieslZPn36tD0fbTe2TawTJ07I+eefr5fMyEc+hXxm5COfQj4z8pFPIZ8Z+cinkM+MfORTyGdGPvIpEz1fwGoUyZWhRb2Qzxv53MhnRj4z8nkjnxv5zMhnRj5v5HMjnxn5zMjnjXxu5DMjnxn5vMXmS1zKAwAAAFKM0TwBAEA+o5gGAACAjGI0TwAAkM8opgEAAAAAAAA+UUwDAABARjGaJwAAyGcU0wAAAJBRU6dO1XMAAAD5h2IaAAAAAAAA4BPFNAAAAGQUo3kCAIB8FgiHw5Hh4WF7oaioyL71kup2yuDgoJSUlOglM/J5I58b+czIZ0Y+b+RzI58Z+czI5+2ll16Sq666Si+ZZTMfr68b+czIZ0Y+b+RzI58Z+cxyJR890wAAAAAAAACfAhFLNit7oVBIgsGgXjIjnzfyuZHPjHxm5PNGPjfymZHPjHzeDh8+LJdeeqleMstmPl5fN/KZkc+MfN7I50Y+M/KZ5Uo+eqYBAAAgoxjNEwAA5DOKaQAAAAAAAIBPFNMAAACQUYzmCQAA8hnFNAAAAGTU0NCQngMAAMg/FNMAAAAAAAAAnyimAQAAIKOmTJmi5wAAAPIPxTQAAABkFKN5AgCAfBYIh8OR4eFhe6GoqMi+9ZLqdsrg4KCUlJToJTPyeSOfG/nMyGdGPm/kcyOfGfnMyOeNfG7kMyOfGfm8kc+NfGbkMyOft9h89EwDAABARv3mN7/RcwAAAPknELFks7IXCoUkGAzqJTPyeSOfG/nMyGdGPm/kcyOfGfnMyOdtz549snDhQr1kls18vL5u5DMjnxn5vJHPjXxm5DPLlXz0TAMAAAAAAAB8opgGAACAjGI0TwAAkM8opgEAACCjGM0TAADkM4ppAAAAAAAAgE8U0wAAAJBRx48f13MAAAD5h2IaAAAAMmpoaEjPAQAA5B+KaQAAAAAAAIBPgXA4HBkeHrYXioqK7FsvqW6nDA4OSklJiV4yI5838rmRz4x8ZuTzRj438pmRz4x83o4cOSIzZ87US2bZzMfr60Y+M/KZkc8b+dzIZ0Y+s1zJR880AAAAZNQFF1yg5wAAAPJPIGLJZmUvFApJMBjUS2bk80Y+N/KZkc+MfN7I50Y+M/KZkc8b+dzIZ0Y+M/J5I58b+czIZ0Y+b7H56JkGAACAjGI0TwAAkM8opgEAACCjGM0TAADkM4ppAAAAAAAAgE8U0wAAAJBRU6ZM0XMAAAD5h2IaAAAAMmrq1Kl6DgAAIP9QTAMAAAAAAAB8opgGAACAjGI0TwAAkM8opgEAACCjGM0TAADks8DAwEDkzJkz9sKkSYlra6Z2gUBAIpGIXnKWT58+bc9H241tE+vEiRNy/vnn6yUz8pFPIZ8Z+cinkM+MfORTyGeWzXw//elP5ZJLLtFLZjx/5FPIZ0Y+8inkMyMf+ZR05wtYjSLDw8P2QlFRkX3rJdXtlFAoJMFgUC+Zkc8b+dzIZ0Y+M/J5I58b+czIZ0Y+b4cPH5ZLL71UL5llMx+vrxv5zMhnRj5v5HMjnxn5zHIlX+JSHgAAAJBijOYJAADyGcU0AAAAAAAAwCeKaQAAAMgoRvMEAAD5jGIaAAAAMorRPAEAQD6jmAYAAAAAAAD4RDENAAAAGTVlyhQ9BwAAkH8opgEAACCjGM0TAADks0A4HI4MDw/bC0VFRfatl1S3UwYHB6WkpEQvmZHPG/ncyGdGPjPyeSOfG/nMyGdGPm/kcyOfGfnMyOeNfG7kMyOfGfm8xeajmDYO8rmRz4x8ZuTzRj438pmRzywf8r3S2CC/+9l/6jVAfnv7u98js5vX6yVvfL64kc+MfGbk80Y+N/KZpTtfIGLJZphQKCTBYFAvmZHPG/ncyGdGPjPyeSOfG/nMyGemtrerplquvr9erwHy24vrm2VJR5de8sbnixv5zMhnRj5v5HMjn1m683HNNAAAAAAAAMAnimkAAAAAAACATxTTAAAAAAAAAJ8opgEAAGTQw90/HXcCAABA7qKYBgAAkGGfvOmvPCcAAADkNoppAAAAAAAAgE8U0wAAADLs1KlTcvLkKcPt73ULAAAA5KpAOByODA8P2wtFRUX2rZdUt1MGBwelpKREL5mRzxv53MhnRj4z8nkjnxv5zMhnpra3Z3mNXH1/vV7jUNdEu/H6q+Rd75qh14z6+c+PyjPfeUnunHeJXgPkjhfXN8s17R16yRufL27kMyOfGfm8kc+NfGbpzkfPNAAAgAw7ceItOXToJ3LosDWpWz2deOst3SL3vfncZ+Vts2aPmZ6Q/fr+hA49Ybd/8JBaGJJt91qPvfc5edO+c3z7H9f7e/xHeo0/+x//rGzTO3G2MX5eVzsr+7LnhvQCAACYiAIRSzYre6FQSILBoF4yI5838rmRz4x8ZuTzRj438pmRz0xtb1dNtbFn2sK/mKmXxgrInu+/lhc901Qx7Z33i3z1u5+XZReqNaootkQ+8fwdsufgrTLHbuWHfpw0yy82Xif2phL6kTw461ZptOf978ud9yy8+Zws+7D1eq7fKduum6JXThyqZ9qSji695I3PFzfymZHPjHzeyOdGPrN056NnGgAAQIadOHHS7p3mvs2fnmluU2TZ6ma5QR6Vh6I9t1TxKabn2kiPrrieaTFc61XhbEwPtEMH7EJa4+13WP9/VF7w2IYz6Z5o1rp33r/bmtktn/iws/3RHmfunnGxvdFG560sH66XZ611z96/xMrU5crmt7cbAADIbxTTAAAAMuzAj39hTb803ua1C/9EPmDdPNv/hvX/Idm2uV4+8NQBOXXwgOy5XRWhNo6cZml02WynUNarC1TRwtncy51ly/7eR63/3yGLbhvTVlHFu5sflUZ7nzvlq9fulk9sfk7evOxW+cX6xVaDxfLV7x6Q+y5zmjumyKJF1n3P/0qO2ss/khces25unz2mx9vlct93VbFQ5Ib1O+XUbRWyyPqZ5LEDunjm9TgAAFBoKKYBAABkkDqFc7ypMEyRZRsPyH0lTu+0harQNK7L4wpUI4WzkeJXbMEqvq3y5su75dmR9s7+T/k4dfTCKxbbPersXm6GAp6XOXNjescl8TgAAJDfKKYBAAAgDfQpmh/eLTd894DuGTY+p0B1RPreNPT0GlOwiitmWY72q1M5z8KFH5QbrnV6ubkLeAnonnSvvDGU3OMAAEBeo5gGAACA1HjzV/KKdXPD9ItGC19PJXnBf7tAtVue/cYBe1ujPb2GZNvXVMHKWnezujaZNd2sl7/mXO9sxnRVsFOFOHt1EvSpno99TR563Vr0faqm0zvu2Re+Li8k9TgAAJDPKKYBAAAgJfZ/Q12g/w65W410WfIn9vXFVK8t1UvtSXsAAD90geqxR2NO2bS8+QN59nnr9vYn7GuwRSd1LTZ5fre88Gb0dM3d8uzLzkAHyQwIMPJYax/JnKpp9457/lFpTPJxAAAgf1FMAwAAwFlyRseMjp658LE7ZM/BW53eWRdeJ3eropga+XLWrfLKtarX2G45OqjuTMw5fdMS09PLuR6au2DltNUFNGuf2566Q+9T5VEDDjh5osUylXdkVNFY+lTPhKdq6jb29qOjf+pTPTnFEwCAiSMQDocjw8PD9kJRUZF96yXV7ZTBwUEpKSnRS2bk80Y+N/KZkc+MfN7I50Y+M/KZqe3tWV4jV99fr9fAt0NP2KdwqlE540fezEXq2nC3SqPqMXdbYfdMe3F9s1zT3qGXvPH54kY+M/KZkc8b+dzIZ5bufPRMAwAAQI7Qgxaoa6Hd/kTOF9Kc00hvlUa5Q/YUeCENAACMCkQs2azshUIhCQaDesmMfN7I50Y+M/KZkc8b+dzIZ0Y+M7W9XTXV9ExDwVA905Z0dOklb3y+uJHPjHxm5PNGPjfymaU7Hz3TAAAAAAAAAJ8opgEAAAAAAAA+UUwDAAAAAAAAfKKYBgAAAAAAAPhEMQ0AAAAAAADwiWIaAAAAAAAA4BPFNAAAAAAAAMAnimkAAAAAAACAT4GBgYHImTNn7IVJkxLX1kztAoGARCIRveQsnz592p6PthvbJtaJEyfk/PPP10tm5COfQj4z8pFPIZ8Z+cinZDPffzTWy+9/+1u9Bshvf/COd8jMpvX2/EQ4fhXyuZGPfOQjnzLR8wWsRpHh4WF7oaioyL71kup2SigUkmAwqJfMyOeNfG7kMyOfGfm8kc+NfGbkM1Pb21VTLUs6uvQas3Tk21ldkfH9JpNvz549snDhQr1kls18HB9uqp2f97PC8+dGPjPymZHPG/ncyGeW7nyJS3kAAAAAAAAARlBMAwAAQEZNmTJFzwEAAOQfimkAAADIqKlTp+o5AACA/EMxDQAAAAAAAPCJYhoAAAAy6vjx43oOAAAg/1BMAwAAQEYNDQ3pOQAAgPxDMQ0AAAAAAADwKRAOhyPDw8P2QlFRkX3rJdXtlMHBQSkpKdFLZuTzRj438pmRz4x83sjnRj4z8pmp7e1ZXiPXtHfoNWbpyLerpjrj+00m35EjR2TmzJl6ySyb+Tg+3FQ7P+9nhefPjXxm5DMjnzfyuZHPLN356JkGAACQDcfaZWlxsUyePNmeiq15NW3YH3//0m0hvcLy/Y1Ou5p2veIsWdteZu1z2fY37cXeFmffcZO1j5g9p9QFF1yg5wAAAPJQxKJ6p6lpPKlupwwMDOg5b6ner992Cvnc/LZTyOfmt51CPje/7RTyufltp5DPzW87hXxuftsphZLvuRtv0EsG/a2RSuurWMXT/Xq/A5HWaomINEe6Y+6vbHP2Fd7XZN0Xc38CCferWNuu0PtWupvGbrc70qz2Vd0a6ff5vKTj+Uvlfv22U8jnptqM+77SeP7c/LZTyOfmt51CPje/7RTyufltp5DPzW87JZ/y0TMNAAAgJwSldnWzdVsvu3udNSOOtcnS+Q3WTJN0R9ZKubM2jcplbY+VpaNOnoz2lEshRvMEAAD5jGIaAABATtstLdPrpEsqZGvfmgwU0rRpZVJp3bzcl/qTPRnNEwAA5DOKaQAAADkhJG2b663bZlk811mjdNbWiVor0iUrnhrbZQ0AAACZRjENAAAgi7qWT7cv+B8IlEpdR6W09o89jVOti8jeRmu2cYG0FEA9bcqUKXoOAAAg/1BMAwAAyKKKp/slHA6rQaGsaYfUTtN3aJVtj9jr5t68VSqs5fryFulx7kqvY33Sad1cURZ0llNo6tSpeg4AACD/UEwDAADIB9Nq5OGn7XKabGpP/XXM4ulTTqtb5ZY5ehUAAABsFNMAAADyRHDZalHjfXbWrnJWpFS9zAsEJGBPpVInrTKwvVZS3y+N0TwBAEB+C4TD4cjw8LC9UFRUZN96SXU7ZXBwUEpKSvSSGfm8kc+NfGbkMyOfN/K5kc+MfGZqe3uW18g17R16jVk68u2qqc74fpPJ99JLL8lVV12ll8yymY/jw0218/N+Vnj+3MhnRj4z8nkjnxv5zNKdj55pAAAAE4wa8GDy5Mn2pOYTTaoNAAAARgUilmxW9kKhkASDiU8gIJ838rmRz4x8ZuTzRj438pmRz0xtT/UQW9LRpdeYpSPfzuqKjO83mXyHDx+WSy+9VC+ZZTMfx4ebaufn/azw/LmRz4x8ZuTzRj438pmlOx890wAAAJBRjOYJAADyGcU0AAAAAAAAwCeKaQAAAMgoRvMEAAD5jGIaAAAAMmpoaEjPAQAA5B+KaQAAAAAAAIBPFNMAAACQUVOmTNFzAAAA+YdiGgAAADKK0TwBAEA+C4TD4cjw8LC9UFRUZN96SXU7ZXBwUEpKSvSSGfm8kc+NfGbkMyOfN/K5kc+MfGZqe3uW18g17R16jVk68u2qqc74fpPJx/vPLR/y+Xk/Kzx/buQzI58Z+byRz418ZunOR880AACANPnaT45IcXFxwmny5Mn2ZLovdvLbTk3XPfOscX3slOr9+m2nposuusi4PnZK9X79tlMT+dyTaqPezwAAQCQQsWSzshcKhSQYDOolM/J5I58b+czIZ0Y+b+RzI58Z+czU9lQPsSUdXXqNWTry7ayuyPh+k8m3Z88eWbhwoV4yy2Y+jg831c7P+1nh+XMjnxn5zMjnjXxu5DNLdz56pgEAAAAAAAA+UUwDAABARjGaJwAAyGcU0wAAAJBRjOYJAADyGcU0AAAAAAAAwCeKaQAAAMio48eP6zkAAID8QzENAAAAGTU0NKTnAAAA8g/FNAAAAAAAAMAnimkAAADIKEbzBAAA+SwwMDAQOXPmjL0waVLi2pqpXSAQkEgkopec5dOnT9vz0XZj28Q6ceKEnH/++XrJjHzkU8hnRj7yKeQzIx/5lGzmO3TXKnn/lx7Ta8zSke/VT90+zn4PyBdKPyob9VLUfd8akLuu1AuaKd8PHyqVR2e8KlsqSuzldD1/Sux+TbL5+ioTKV/s+zkX8ym5/Pwp5ItHPjPykU8hn1mu5AtYjSLDw8P2QlFRkX3rJdXtlFAoJMFgUC+Zkc8b+dzIZ0Y+M/J5I58b+czIZ6a2t6umWpZ0dOk1ZunIt7O6Ypz99si6wDyRfWF54Cq9vWNtUjW9Tmb1RGTtXGeVYtpvz7qAbLp4QHbUjD4H6Xj+lFQ9L+QzS6adn/ezwvPnRj4z8pmRzxv53Mhnlu58iUt5AAAAmBim1cojbZVSv7lNQnpVqL1KiouL7SkQqJK2Y866eQ0inbWlUtWuW/a2jLZbOvp4L4zmCQAA8hnFNAAAANiCC6qksqNP+tRCb4uU1s6SveGwhK2pu6lT6p7skWDNDmtepLJN90xTPdrKD8rWPtWuX1qlTkrX9djb88JongAAIJ9RTAMAAIDb3LUSiayV6BmfZRdX6rl4ob07pLO6ShZNU0tBqV3dLHLILscBAAAUJIppAAAAcBzrk049KxKStqWBkdM3S2tH73HpqJPp0dM8y+ut5cTFNEbzBAAA+YxiGgAAAGyhvoMi1WVSpubbV0mdtEq/Ps1zoM3cM83W1G23UZMaAUv1aEtk6tSpeg4AACD/UEwDAACAfe2zVbWd0ry6VtzjaPXKFo+eafZ11ho2SfsxZ1mN9KkGIQAAAChUFNMAAAAmqIb5apTOgDNNr5NZPRFZqy+SFqy5R5pHTt98QRb3ONdCUyN1quunjYzmOa1WdvTMkhVlzmme8xqapXt7rbMRD4zmCQAA8lkgHA5HhoeH7YWioiL71kuq2ymDg4NSUlKil8zI5418buQzI58Z+byRz418ZuQzU9vbs7xGrmnv0GvM0pFvV011xvebTL6XXnpJrrrqKr1kls18HB9uqp2f97PC8+dGPjPymZHPG/ncyGeW7nz0TAMAAAAAAAB8CkQs2azshUIhCQbdV+aIRT5v5HMjnxn5zMjnjXxu5DMjn5nanuohtqSjS68xS0e+ndUVGd9vMvkOHz4sl156qV4yy2Y+jg831c7P+1nh+XMjnxn5zMjnjXxu5DNLdz56pgEAACCjGM0TAADkM4ppAAAAAAAAgE8U0wAAAJBRjOYJAADyGcU0AAAAZNTQ0JCeAwAAyD8U0wAAAAAAAACfKKYBAAAgo6ZMmaLnAAAA8g/FNAAAAGQUo3kCAIB8FgiHw5Hh4WF7oaioyL71kup2yuDgoJSUlOglM/J5I58b+czIZ0Y+b+RzI58Z+czU9vYsr5Fr2jv0GrN05NtVU53x/SaTj/efWz7k8/N+Vnj+3MhnRj4z8nkjnxv5zNKdj55pAAAABeb897xHz+Wm3/zmN3oOAAAg/wQilmxW9kKhkASDQb1kRj5v5HMjnxn5zMjnjXxu5DMjn5nanuohtqSjS68xS0e+ndUVGd9vMvn27NkjCxcu1Etm2czH8eGm2vl5Pys8f27kMyOfGfm8kc+NfGbpzkfPNAAAAAAAAMAnimkAAADIKEbzBAAA+YxiGgAAADKK0TwBAEA+o5gGAAAAAAAA+EQxDQAAABl1/PhxPQcAAJB/KKYBAAAgo4aGhvQcAABA/qGYBgAAAAAAAPgUCIfDkeHhYXuhqKjIvvWS6nbK4OCglJSU6CUz8nkjnxv5zMhnRj5v5HMjnxn5zNT29iyvkWvaO/Qas3Tk21VTnfH9JpPvyJEjMnPmTL1kls18HB9uqp2f97PC8+dGPjPymZHPG/ncyGeW7nz0TAMAAJhwemXj5Mmy8ft6UQttWyrFLb16KX0uuOACPQcAAJB/AhFLNit7oVBIgsGgXjIjnzfyuZHPjHxm5PNGPjfymZHPTG1P9RBb0tGl15ilI9/O6opx9tsj6wLzRPaF5YGrRrcXaq+S0tfvkcgD5XpNdp8/JVX7JZ9ZMu38vJ8Vnj838pmRz4x83sjnRj6zdOejZxoAAADMelukuLjYngJL2yRkrwxJ29KAjHZg65GWQJW0H7Nmj7VLlTVfZd0fCLQ4dxswmicAAMhnFNMAAADgdqxNqsrrpWlfWMLhfmmVOild16PvTKRTZq2OSCSyVi+7MZonAADIZxTTAAAAJqiG+cUSCKheZM5UWtup77Ec65PO6la5ZY5aCErt6mbrAbtl/HJapZRN07MAAAAFiGIaAADABKV6nUUiqheZMw20Vep7REJ9B/WcNq1MRu9NZNa4xbQpU6boOQAAgPxDMQ0AAAAuwbJZek5TPdX0bBxr/Ziy27imTp2q5wAAAPIPxTQAAAC4qZ5oHXXy5H61EJK2zfUiTYslOs5n/fPOCZ+hvTvMRTYAAIACRTENAAAAbtNqZUdPs31dteLi6VInrTLwgCqlBaV2c6tUNsyzr7O2Sqqk2XmEb4zmCQAA8hnFNAAAgAmnXNaEw7LGHlxgVLBmh0Tsgpk2d62ErXZqimyvlaBebRfa9HXWdtTUytrIDqlR10mbVmOtXzvSe80Lo3kCAIB8FhgYGIicOXPGXpg0KXFtzdRO/UVSfZGKUsunT5+256PtxraJdeLECTn//PP1khn5yKeQz4x85FPIZ0Y+8inZzHforlXy/i89pteYpSPfq5+6/az2a5KOfD/96U/lkksu0Utm2czH8WHOF/t+zsV8Si4/fwr54pHPjHzkU8hnliv5AlajyPDwsL1QVFRk33pJdTslFApJMDjyd04j8nkjnxv5zMhnRj5v5HMjnxn5zNT2dtVUy5KOLr3GLB35dlZXZHy/yeQ7fPiwXHrppXrJLJv5OD7cVDs/72eF58+NfGbkMyOfN/K5kc8s3fkSl/IAAACAFGM0TwAAkM8opgEAAAAAAAA+UUwDAABARjGaJwAAyGcU0wAAAJBRjOYJAADyGcU0AAAAAAAAwCeKaQAAAMioKVOm6DkAAID8QzENAAAAGcVongAAIJ8FwuFwZHh42F4oKiqyb72kup0yODgoJSUlesmMfN7I50Y+M/KZkc8b+dzIZ0Y+M7W9Pctr5Jr2Dr3GLB35dtVUZ3y/yeTj/eeWD/n8vJ8Vnj838pmRz4x83sjnRj6zdOejmDYO8rmRz4x8ZuTzRj438pmRzywf8mWrmNbbcL/MbVqvl8xSvd9k8h05ckRmzpypl8yymY/jw021S3Ux7ZXGBvndz/5TrwHy29vf/R6Z3Zz4c1fh88WNfGbkM8uVfIGIJZthQqGQBINBvWRGPm/kcyOfGfnMyOeNfG7kMyOfmdqe6iG2pKNLrzFLR76d1RUZ328y+fbs2SMLFy7US2bZzMfx4aba+Xk/K8kcH1ffX6/XAPntxfXNKT0+lIn0+aKQLx75zHIlH9dMAwAAAAAAAHyimAYAAICMYjRPAACQzyimAQAAIKMYzRMAAOQzimkAAAAAcsLD3T8ddwIAINsopgEAACCjjh8/rucAt0/e9FeeEwAAuYBiGgAAADJqaGhIzwEAAOQfimkAAAAAcsapU6fk5MlThtvf6xYAAGRXIBwOR4aHh+2FoqIi+9ZLqtspg4ODUlJSopfMyOeNfG7kMyOfGfm8kc+NfGbkM1Pb27O8Rq5p79BrzNKRb1dNdcb3m0y+I0eOyMyZM/WSWTbzcXy4qXZ+3s9KMsfH1ffX6zUOdU20G6+/St71rhl6zaif//yoPPOdl+TOeZfoNUDueHF9c0qPD2Uifb4o5ItHPrNcyUfPNAAAgAmst6VYimvaJaSXjb6/UYqLN0ivmt+/YaS9euzSbfqRVpvJdf+WeDvaBRdcoOf8CEl7TbFs2K/me2VDsZW3xU4y4s3ty1zrTPZvmDyaFznrxIm35NChn8ihw9akbvV04q23dIsJ4M3nZNms2fK2MdODh/T94xqSbfc+IfZhk8ihJ2K2qx5j7efe5+RN+04AgJdAxJLNyl4oFJJgMKiXzMjnjXxu5DMjnxn5vJHPjXxm5DNT21M9xJZ0dOk1ZunIt7O6wt9+j7XLX3/2lzJLDkrZ5h1SO03fGcNupwpo8ydJd2StlOv1Ss+6gGy6eEB21ASTypfc63tc2paWSt/qiKyd2yMtgXlSL5XS2u/kVe1C25bK9L5/kMgDseniqXaq+PfQnzl5E+H4cFPt/LyflWSOD1PPtIV/4dVrMSB7vv/axOiZpoppH7aem/U7Zdt1U/Sqz8o7798tjU8dkPsus1d52v/4bFn42B2y5+CtMkevG58qpi2RT0iz/GLjdXKhXgt/VM+0VB4fykT6fFHIF498ZrmSj55pAAAAE1Ron/WLX8VKWVkhUvdkj16rHWuTqkBAiouLZcP39Dqlt0UCS9vkR+1VMq9BpLO2VKraQ3E91qwtS9vSgASsx6tppNOYvc0WWd9S6r7PErK2GV1fXLxU2o/pO+JUSnOTlXd1m3cvOJVRb0dlVe1UwW1BY0xej3a2gU77Z3fuq5I2Yw6ky4kTJ+3eae7bCdQzzeDC6+6Vr14r0vi1aM8x3ZNM91pb9pwzsIcqui18TM09KgtnfVa2qcZjerpF28b3TBvrR/Kg6TEAAIppAAAAE1NIXvi6SNWCoARr7pHmht0yWk7rkZbpdSJtAxIOh2WRNOj1o0pqdkh3k0il1WZsT6+edaVSJ60yEIlIpKdZ6stjC1L18uo7OiVi3aceX79ZF7F6W6S0dpZ0q8dY097GLlnxlPnUzbJbHrG2XidbTHergl15vTT3qO0M2O1K1/VIcNl2a5sxee12B6W1P76del46/3GVzLIfr/LPchcakVYHfvwLa/ql8XZimyJlF1s3z/9Kjlo3+x9fIp94XvU+OyCnnrpDnr1/iV0Uu/C6z8ue21V7dd/nZdmFQ7Jtc7184CmrndVW3ffs/RudIlsC+x+/VRrtbRyQX6xf7OsxADBRUEwDAACYiI69IF1SIYvtUzvLZXFTvewe6UHWJwelWe7RRbK5N2+VSnvOj5D0Wb/QN6+uFfvRc1dKa3Wn7Ngb7fdVKX95uXPNtPJrm+1b29y1Eok5jXTGuyv0nElQalerIl2Lcx23WFb2zupWWTlXLTjtpGG3q11o7w6rXZX++XW7Q32jvdOiVK4Ep48itdQpnONNUH4kL6jeZ7fPdk7jvGy2NFo3r7xh6j02RZZtPCD3lTi905xea36p3m1PyNHrPi+n7MKcXg0AExzFNAAAgAlIneLZ9cwKKdWnM6pTNuuf1z2wVEHKmTsLfdIXN6BdUMriru80S2bOdK4BFS/+1NDpy8e59tDctdLdVC+bxwwoEOo7qOe0aWXehcCOupGfP1Beby1b2a28lV/5pkh5NEtLTI89IEe8+St5Rd0+dqs+DVP1IhN5tv8NtXYMfbrmh3fLDd91epn5MedjzXKDPacKamofPgY0AIAJgmIaAADAhNMjTy7vkqZ9YedURnvqluaGTc7pmIkKUOMqk7JqPWtzeqrFevvUqXpuVKh91eipodbU/3SinmmO8ltaRZbfKU/+TK+wBMtm6TktUWGwqTvm51dTtGfcbFkbXdcjMm9pm70WyK4h6Xvdurn2T2TGhX8iH1Crbn/CPnVzZLrtcrU23qEDdqGt8akke5ZdeJ1ss7e7075Wm11Ue/xH9l0AMNFRTAMAAJhoendLgzTJorhh/lQRTJ+OOW2xVFXXyyZ9of7ep1Yk0VPN6Yk2ei20LVLXUWlfm80/p9g3rmm18vDTIg2NMW1VIbAjej21kLRtrhdpWiz2WZ8xgguqpDJaPLSokUmdQQh65IulK+MHHbisTM8AWXTo6/KJ50Uab1IjbV4ui9R10R474PQWSzSQQMmf2D3MnFNAfyRP3r/bXp2YHtzgXjXYwRRZttrppXbD9IucuwFggqOYBgAAMMH0PF9v/Ua+aEyBKSiLKyqls3aL9KhriG1uFakttUfz3PzurRJzdbMRZRer9jGjY2rlD+gL+uvTJ5t7dkitfW0yx++OH9dzo+xBEEZOu9wti/Y1iRw2XMNsjOCyh2XrjXpBmVYrO+xBD9R29EAI+ppn6jpsI3ntdrOkbrpqp05zbZbu7eo6b+Vy17cuH1kfsB7azTXTkCVqUIHoaJpvu/lRaXzqgNynT5uec5vqMaZPwbTuu2H9ztH75t5h/d+578HB6+Rue9ABta1b5ZVr1Wmeu+XooN3Ug7rO2hPSaH1WvFNt/8P18uy1zfLF60ynaAPAxBMIh8OR4eFhe6GoqMi+9ZLqdsrg4KCUlJToJTPyeSOfG/nMyGdGPm/kcyOfGfnM1Pb2LK+Ra9rjLiDmko58u2qqM77fZPK99NJLctVVV+kls2zm4/hwU+38vJ+VZI6Pq++v12uA/Pbi+uaUHh/KRPp8UcgXj3xmuZKPnmkAAAAAAACAT4GIJZuVvVAoJMFg4mtokM8b+dzIZ0Y+M/J5I58b+czIZ6a2p3qILelIfO2vdOTbWV2R8f0mk+/w4cNy6aWX6iWzbObj+HBT7fy8n5Vkjg96pqFQqJ5pqTw+lIn0+aKQLx75zHIlHz3TAAAAkFFTDaN5AgAA5AuKaQAAAAAAAIBPFNMAAACQUccNo3kCAADkC4ppAAAAyKihoSE9BwAAkH8opgEAAAAAAAA+UUwDAABARk2ZMkXPAQAA5B+KaQAAAMgoRvMEAAD5jGIaAAAAAAAA4FNgYGAgcubMGXth0qTEtTVTu0AgIJFIRC85y6dPn7bno+3Gtol14sQJOf/88/WSGfnIp5DPjHzkU8hnRj7yKdnMd+iuVfL+Lz2m15ilI99/PLRJ/uzue/SSWTafP+v7p5SWluols2zm4/gw54t9P6ci33801svvf/tbvQbIb3/wjnfIzKb19nwuHr9KLn++KOSLRz6zXMkXsBpFhoeH7YWioiL71kuq2ymhUEiCwaBeMiOfN/K5kc+MfGbk80Y+N/KZkc9MbW9XTbUs6ejSa8zSkW9ndUXG95tMvj179sjChQv1klk283F8uKl2ft7PCseHWzL5eP+55UO+VB8fykR6/hTyxSOfWa7kS1zKAwAAAAAAADCCYhoAAAAyitE8AQBAPqOYBgAAgIxiNE8AAJDPKKYBAAAAAAAAPlFMAwAAQEYdP35czwEAAOQfimkAAADIqKGhIT0HAACQfyimAQAAAAAAAD4FwuFwZHh42F4oKiqyb72kup0yODgoJSUlesmMfN7I50Y+M/KZkc8b+dzIZ0Y+M7W9Pctr5Jr2Dr3GLB35dtVUZ3y/yeQ7cuSIzJw5Uy+ZZTMfx4ebaufn/axwfLglk4/3n1s+5Ev18aFMpOdPIV888pnlSj6KaeMgnxv5zMhnRj5vqc73SmOD/O5n/6nXAPntj8veLX+x/kG9ZJYPx+94v1z1thTLgka9MKJCtvZtlxppl6VlXVKh5qfpfG/8m9Re/Anpatwr4bVzdXu3ZIoFBzZOlgWHt0p/e40E7TXxXM/L/g1S/IUZrvZn9fwdUz/jUVkdXiNzY+elV1qKF8jYp6ZpX1jWzNELmt/9nlW+BFK933zIl9Fimv1+WCFdejFq5D2g75en+2X7sqDzc3x/o0xeaL1rbtwqYev96WXc48Pa9o1q208dlWdqLzIfp9Y+1DEwNcXPs8L7zy0f8lFMcyOfGfm85VO+QMSSzTChUEiCQdNXt1Hk80Y+N/KZkc+skPKpXw6uvr9erwHy24vrm2VJx9hfo+Plw/GrjstEP0fPuoDMO+MUxlz7PdYmVdN3SFX/DqlVxbSjT9vFgyt7IpKgjmbbWV3h7/k71i5//dlfyiw5KGWbnf2Mldbnz/4Z++SeyFopj52XHlkXmCeyLywPXKW3Z99fJ7PG/PxpzZdAqvebD/nGez9HpeT40K93RBfLioqOS9vSUqnraJbukfdLnUjbgOyoCcrwS+ukeH6D9UB9v7MVo3GPD2vblWrb1r47b5rmHKcNsdvtkRbr/Vlf3Sr9bUvtonIhvL4K+eIl0y7Vx4cykZ4/hXzxyGeWK/m4ZhoAAEDO65ENZSvkin3hcQtpyQjts37xq1gpKytE6p7s0WstqlARaJGWdQEpLi62p5ZefV9viwSWtknI+q9taUBa2lVbp93SbSG78BCwlgPW40e3qIoP0fUBKW3ZpdcnYVqtPNJWKfWb1b4x8QSldnWzdVsvu6PvxSjr/brULqQ1jVtIS41yWdtjZemokyf361UAgAmFYhoAAEBOc3rBvPx0v+sUx3MTkhe+LlK1ICjBmnukuWF3TPFLqZeDFw9IOByWvY3WkkcRq75L5JFIRML7mqRr+XTZZD0mEhmQ1up62dSuHqGKbvPkYJtaH5FIf6v85Ze/Im3HnMcnI7igSio7+qRPLwMiu6Vlep102adHr8lAIU2bViaV1s3LfZR2AWAiopgGAACQTY0L7F5d0V5bIz3AbJ1SN32epOUE7mMv2AWIxfapneWyuGlsj59Ku9CmzP1Qk31rUlmx2Ll22kUzrK01yT01aikoZZeplUpQardH7FPxbNPK5D3OHJCEkLRtVkdCsyyO6Z3ZWVunj48uWfHU2C5rAACkB8U0AChgD3f/dNwJQJapwQTCYafXljWNPY2zUvXo6m8VWT5dNqTwlDJ1imfXMyukVBfx5jWI1D8f2zdtlpQZrqE21qwyXSRLRJ0aqvcTCMyTLfK/9B1JOtYnnXoWE4Pq7egUm9X10iqltX/saZxqXcTuPakK0/HFaAAA0oNiGgAUuE/e9FeeE4Bcp3uHTauV7fuapGH+hjGnYp6tHnlyeZc9MmK0iBeJdEtzw6azOv0ysR5pKa+X5p7R/dx3lsW0UN9BkeoyKdPLKHwVT/fHFJvdg2RUtj1ir5t781apsJbry2Ov1ZdGurB7hZ9iMgCg4FBMAwAAyAdz1sjexgaZZ1/8/xz17pYGaZJFcddgK5Oy6k7ZsTe914AKtW+SB/V8Uo61yaraTmleXeucVgrEmlYjDz9tl9P0tfrSSZ9yWt0qt6T0OoYAgHxBMQ0ACtypU6fk5MlThtvf6xYA8sXctXuluaNOSpe26TVnp+f5epHGRRJ/RmlQFldUSmftlhT37CmXlWoUznLnNM9Vco9s/P++I30+esA1zB+9llxgep3M6nGfBgtEBZetFjXeZ2ftKmdFStXLvJFTlUulTlplYDuFXQCYqALhcDgyPDxsLxQVFdm3XlLdThkcHJSSkhK9ZEY+b+RzI58Z+cwKKd+e5TVy9f3xlylX10S78fqr5F3vmqHXjPr5z4/KM995Se6cd4leA+SOF9c3yzXtHXrJLB+OX3VcZvrnUHbVVOf08/fSSy/JVVddpZfMspmPf9/cVDs/72eF48MtmXy8/9zyIV+qjw9lIj1/Cvnikc8sV/LRMw0ACtyJE2/JoUM/kUOHrUnd6unEW2/pFhPZkGy7d7a8bdYTEn9d9x/Jg7Os9fc+J28eesK6f7Y8eEjf5WVsuzefk2WP/0gvAADyhRrwYPLkyfak5hNNqg0AYOIJRCzZrOyFQiEJBhN3kCafN/K5kc+MfGaFlE/9pd3UM23hX8zUS2MFZM/3X5vwPdPefO6z8s77d0vjUwfkvsv0SlUYu/lRuWH9Ttl23RS9MhmqGHerNN7+hJy67XK9DslQPdOWdHTpJbN8OH7VcZnpn0PZWV2R08/f4cOH5dJLL9VLZtnMx79vbqqdn/ezwvHhlkw+3n9u+ZAv1ceHMpGeP4V88chnliv56JkGAAXuxImTdu809y0905QLr1gsN1i3jb2jvcjefOOI9X9r/RVTXD3OVPFNLTtTTI+2kXaqt9ut0qjWPXar07vNbgAgaurUqXoOAAAg/1BMA4ACd+DHv7CmXxpvYbnwg3LDtdbtYwd0YWxIXnhht8i1i2XRhfaKUW8+J3fdv9vusXbq4BPSKI/KQtepnFNk2UZ1n0X1TNt4nYzdDAAAAID8RTENAAqYOoVzvAlTZNGixdbto/KC6n325g/k2edFblj0Qc8i2LP3L5Flz10k9x08wGmcwFk4fvy4ngMAAMg/FNMAABNe9FTPV94Ykjdf3i3PRk/xHOvC6+Tu251ZVVBTp3Uue27IWQHAt6EhjhsAAJC/KKYBAKBP9Xz2ha/Lk16neGpzbjsgp1SPtKfusJefvX+jbOOiaAAAAMCEQTENAIDoqZ7PPyqNiU7xjB2M4LJbZY/dS22mlHFRNCApU6aczSi5AAAAuYFiGgAAluipniOjeJpcdqv8Yv1iabzZGc1z4WMijU/dKnP03aMul0Wq0KZG84wd8ROAjdE8AQBAPguEw+HI8PCwvVBUVGTfekl1O2VwcFBKSkr0khn5vJHPjXxm5DMrpHx7ltfI1ffX6zVAfntxfbNc096hl8zy4fhVx2Wmfw5lV011QTx/ysmTJ+XVV1+V+fPn28tHjhyxb2fOnGnfbtu2TW688cas5cv15y+V+fy8nxWOD7dk8vH+c8uHfKk+PpSJ9Pwp5ItHPrNcyUcxbRzkcyOfGfnMyOct1fkopqGQFEox7ZX1TfK7117Ta3A2vvmzn8vLb/5aGuY5fUDX9XxfFv/pNLnqoj+RX791Um7+7r/L1/5qiVzwtrfZ9yN93v7e98rshia95M3v8XHblVfI137iFEeBfHfT+2bKk6+q60AkxvdnN/KZkc8sV/IFIpZshgmFQhIMBvWSGfm8kc+NfGbkMyukfOov7RTTUChUMW1JR5deMiuk41eZSPn27NkjCxcu1Etmsdt797vfLV/96ldlwYIFUllZKcuXL5eKigr59Kc/bd//4IMPpjQfr69bOvKpf7cyfZwrO6sr+HwZg3xmybTz835WeP7cyGdGPrNcycc10wAAAJDT7r77bnnooYf0kuOXv/ylfPnLX7bvAwAAyCSKaQAAAMioZEfz/Pu//3t55ZVXZN++fXqNyObNm2X16tVy4YUMpwsAADKLYhoAAAAy6mxG81SFM1VAi0Qicvz4cbtX2mc+8xl9LwAAQOZQTAMAAEDOi/ZOGxoakm984xt2IY1eaQAAIBsopgEAACCjVM+ys6Guj/Yf//Ef8t3vftfuqQYAAJANFNMAAACQUap32dn41Kc+ZT92/vz59EoDAABZQzENAAAAeeGxxx6TyspKKSsrk927d+u1AAAAmUUxDQAAABmV7GieyvXXXy/PP/+8fPSjH5X3v//98olPfEK++MUv6nsBAAAyJzAwMBA5c+aMvTBpUuLamqldIBCwR1WKUsunT5+256PtxraJdeLECTn//PP1khn5yKeQz4x85FNUu/9orJff//a3eg2Q3/7gHe+QmU3r9ZJZIR2/Cvnixe53y5Yt0tvbK48//ri9Tnn99dflL//yL+XQoUPyDuv9ks18ifD6mqn9Hrprlbz/S4/pNWbpyPfqp24fZ78H5AulH5WNeslxvTxycItUlupFLXX5DsgXrX3Ktwbkb2by/svHfLHv51zMp+Ty86eQLx75zHIlX8BqFBkeHrYXioqK7FsvqW6nhEIhCQaDesmMfN7I50Y+M/KZFVK+XTXVsqSjS68xS0e+VO43HfmUVO2XfGbpyLezuiLj76tk8vH6uqUz34033ih//dd/LdXV1fa6KNVb7e/+7u/s22zmSyQXnr9EspkvW/9+jP/50iPrAvNE9oXlgauc7YXaq6S0q0oGttdK7E+Wunw90qL22RORlTN4/42VD/n8vJ8Vnj838pmRzyxX8iUu5QEAAAApluxonn/0R38kvzX0vP3d73437l+wgVQILqiSyo4+6VMLx9qkKlAlVUsDUly8QXpH1gXsHg2BQIv0qHVRvS1Wu2J7Cixtk5Bebf1aJm3WNuzHrOMagACQTyimAQAAIKOSHc1T9Ux76KGHpL+/X68R2bp1q11gW7hwoV4DpE9o7w7pbFos5XpZpFNmrY5IOLxG5kqvtEyvk1k9EfvUoO6mepkXLZqpIlv5QdnaF7ba9kur1EnpOqfU1rOu1FpqlQHrMZFrRerttQCAfEAxDQAAADntIx/5iCxfvlwuueQSqaqqkkWLFsn69evlySef1C2A1GuYX6x7mgWktHaWdD8wWkoTqZSyaXp2/wtSL82yeK6zWH5L60gvNrsIV229Z+22Qald3SxyqE9C1n99h0SaV+vTRueulNb4s5gBADmMYhoAAAAy6mxG87z//vvlpz/9qbz55pt2b7QjR47InDlz9L1A6jXtC9s9zeypv0w2Baqk7Zi+U2aNFtNs9TIveprn9DrplIPSF23bUSfTo6d5ltdby6rQZv3Xoe8HAOQdimkAAADIqKlTp+q55EyfPt1+7BVXXKHXABkybbFUVXeOFsjGqtana45MO6Q2Wmxr6pZwWJ3mGS3OrZVyKZMyeqIBQN6imAYAAIC8oYoRqvcPkFHHdsuOjphTO2PNWSTNHXWyxR6JQOyRP6ODENgDFzRsknZdhOtZF9CDEARlcUWl1G/W11br3SJ19FQDgLxBMQ0AAAAZlexonkA2xF4zTZ26OasnprdZnLmytr9VDpY7bUtrRVr7Ve8zy7Ra2dEzS1aUOad5zmtolu7tznXSgjWPOAMSqO1vLpPWJvUAAEA+CITD4cjw8LC9UFRUZN96SXU7ZXBwUEpKSvSSGfm8kc+NfGbkMyukfHuW18g17Yn/rJ2OfKncbzryKanaL/nM0pFvV011xt9XyeTj9XVLJt9LL70kV111lV4y89peZWWl3HLLLfLRj37UXk5HPl5ft3Tky9a/H3y+uJHPLJl2ft7PCs+fG/nMyGeWK/nomQYAE8GxdllaXCyTJ0+2J/XXcTVt2B9//9Jt9skmjoMPO+1q2vWKs2Rte5m1z2Xb37QXe1ucfcdN1j5i9gwAAAAAuStiUb3T1DSeVLdTBgYG9Jy3VO/XbzuFfG5+2ynkc/PbTiGfm992ykTL99yNN+glg/7WSKX1kV/xdL/e3kCktVoiIs2R7pj7K9t0pp5m676Y+z2Mu1/F2naF3rfS3TR2u92RZrWv6tZIv8+fV+H95+a3nZLr+cZ9X1lSvV+/7RReXze/7ZRDhw7pOW9e2/vYxz4W+frXv66X0pOP19fNbzvFb75sHOcKny9uftsp5HNTbfy8rxSePze/7RTyufltp5DPzW87JTYfPdMAYEIKSu3qZuu2XnbrCyaPONYmVWrofrlPuu0Rx9KtXNb2WFk66uTJaE85AAXtbEfzBAAAyAUU0wAAMXZLy/Q66ZRKeeTgXRkopGnTyqw9irzcx8meAAAAAHIbxTQAmJBC0rZZ9T5rlsVznTVKZ22dqLXWnKzadsCeA4BUYzRPAACQzyimAcAE0rV8un3B/0CgVOo6KkeH7h+h1kWkWw3P//mPSsvYU0ABIAWGhob0XPIikYj1GRbQSwAAAJlHMQ0AJpCKp/slHA7bv4xGIjukdpq+Q6tse8ReV35Lq1xvLdeXt0iPc1d6HeuTTuvmirKgswwAAAAAOYpiGgDAbVqtbHjULqfJpvZ0X8dMn3Ja3Sq3zNGrABS0KVOm6DkAAID8QzENAGBUUnG7qPE+O2tXOStSql7mBQL2qVr2KafSKgPba4V+acDEwGieAAAgnwXC4XBkeHjYXigqKrJvvaS6nTI4OCglJSV6yYx83sjnRj4z8pkVUr49y2vkmvYOvcYsHflSud905FNStV/ymaUj366a6oy/r5LJx+vrlql8FRUVsnLlSvnIRz5iL+davrHIZ6a2l61/P/h8cSOfWTLt/LyfFZ4/N/KZkc8sV/LRMw0AkFZqwIPJkyfbk5pPNKk2AArfb37zGz2XvNLSUrugFvu54ffzZcmSJXormMjOf8979BwAAGcnELFks7IXCoUkGEx8Yg/5vJHPjXxm5DMrpHzqL+1LOrr0GrN05EvlftORT0nVfslnlo58O6srMv6+SiYfr69bMvn27NkjCxcu1Etm6cinimpqAJbx8Pq6pSNftv794PPFjXxmybTz835WeP7cyGdGPrNcyUfPNAAAAAAAAMAnimkAAADIKEbzBAAA+YxiGgAAADKK0TwBAEA+o5gGAAAAAAAA+EQxDQAAABl1/PhxPQcAAJB/KKYBAAAgo4aGhvQcAABA/qGYBgAAAAAAAPgUCIfDkeHhYXuhqKjIvvWS6nbK4OCglJSU6CUz8nkjnxv5zMhnVkj59iyvkWvaO/Qas3TkS+V+05FPSdV+yWeWjny7aqoz/r5KJh+vr1sy+Y4cOSIzZ87US2bpyDd58mSxvvvqNd54fd3SkS9b/37w+eJGPrNk2vl5Pys8f27kMyOfWa7ko5g2DvK5xbY7+MD98tvX/9NeBvLdOy5+j8xat14vxcuH4/e2K6+Qr/3kiF4D5Leb3jdTnnz1kF4yS/Vxmc3jVyFfvHTko5jmls18OV9M+/5GmbywUa8RqXi6X7YvC+olh3u/IWmvmS5HPx2WNXP0Kksy+Xj/ueVDPoppbuQzI5+3fMoXiFiyGSYUCkkwGP+P0ljk85btfDurK+Tq++vtZSDfvbi+WZZ0dOmlePlw/KpfDrzyR6UjXyr3m458Sqr2Sz6zdORT/75k+n2VTD5eX7d8yFdcXCzWV1+9xhvPn1s68mXr3w9fny8vrZPi+S9La3+n1E5Ta0LStrRUdlQMyI6a0Z/NvV+nXd/qiKydq1dZ0vH8Kal6Xshnlkw7P+9nhefPjXxm5DPLlXxcMw0AAAAZxWieyG0haf9Cg1Q8/bAupClBqd3cKlK7RXr0GultsQu0agosbbMeZXCsTaoCAd1uQ9xjA0ur7PvUYwEA+YViGgAAADKK0TyR047tlq5nKqRi/pjeEdNqZUdkrZSreVUkK6+Xpn1hCYf7pVXqpHTdSKlM65GW6XUibQP26cV7GxtkXmzRrUOkqj8ike21egUAIF9QTAMAAACAOFdI2UivNINjfdJZ3Sq32NdFC0rt6maRht2jPc8Uq81BaZZ79Gmhc2/eKpUdO2T3MXvRMivxPgAAOYtiGlLu4e6fjjsBAICJa8qUKXoOyFUvS99I0cst1HdQz2nTyqRSz45QBTc9a7PazNKztuoyKdOzAID8QjENafHJm/7KcwIAABPb1KlT9RyQg6Ytloobu6Rr39iroPVIS6DF7n0WLIsri7kLZ8rYApvdUw0AUAgopgEAAADAiKDUfLpJupbfKW0jvdPUKJ3zpL5psXPNNFUo66iTJ/fr+zbXi0Tvi7J7otXLpnanKNf71ArprK6SxZzaCQB5j2Ia0uLUqd/LyVOnnNuT+lYvAwCAiY3RPJHz5qyR8L4rpG56QAJqxM1AqdRd1i2RB3S5TA1G0NMsDfPVKJ3TpU5aZSB634hyWduvRgAttUfzXNDYJN3ba2XMsAYAgDxEMQ1p8dZbJ6U0GJRg8EIpLdW31rJaDwAAJjZG80RemLNGIpHI6DS2WDZ3rT1Kp5rUiJxOkSwotdsjsnauveAU3azHOu3WjPZcsx47+hgAQL4JDAwMRM6cOWMvTJqUuLZmaqf+UqP+cYlSy6dPn7bno+3Gtol14sQJOf/88/WSGflyN9+rn7pdrr6/3l6OUgMMfHjhFXrJ7bt7XpY7512ilyaKH8mDs26VRr0ktz8hp267XC8MybZ7vy5lG28Ve0CoRA49Icve+Lhsu44LN6fDi+ub5f1fekwvxcuH43f/qr+V8sce12syl+/QXas8nzfHAflC6Udlo15yXC+PvvyEVATPNt+gtN/6fhlcNSB3XalXGZx5Y4fcNvvv5Tt62XG9PHJwi1SW6kWL+fX9oXwh+KhM123T9fwpfl5fJT5fZl5fJRv51L8vid9XPH/5nO+nP/2pXHJJ4u8C6ch30UUXifXdd2Rdvj5/hZJv/H8/0pOPzxfypSNf7Ps5F/Mpufz8KeSLRz6zXMkXsBpFhoeH7YWioiL71kuq2ymhUEiCwcR/kyGft2zn21ldYSymLfyLmXrJot6HgdHbPd8/MuGKafsfny0LX2+WX2y8TuS5z8o7798tjU8dkPsu0/c9dofsOThOMe3N52TZh63nev1OimlpooppSzq69FK8XD5+33jjDdm0aZMc//fn5Okfv6bXmqUj366aas/nzdEj6wLzRPaF5YGrnP2G2quktKtKBsb8VT7l+Y4+LUvLuuTG/k6pjV6jprdFAuUHpbV/x8g6837VhaY3Sdm47cz498MtmXzq35fE76vs5uP1dUsm3+HDh+XSSy/VS2bpyKdOtfP6ghyL19ctHfnG//cjPfn4fHEjn1ky7fy8nxWePzfymZHPLFfyJS7lAWfpxImTo9Nbb+lbZ3niGZK+162b53fLC2+KXHjd5+XUQaeQ9uZzn5WF9h+wHpWFsz4r26z77aLZrNnyNj0te06dCvMjefDD9fKsNffs/UvkbY//yO6lpu5/8JB6vLOtt0W34ayI2060HXLf448/Lu973/vsv4pcfvnlsmXLFn1PPFVE+8xnPiPTpjmVnuvK3mnf5oPggiqp7OiTPr0sx9qkyvp51S+6xcUb7JHSolThTT0XgUCVtKyz5tepe0PS+clSaem1Zu3Htlj3Ra9rE3DWe5m7VrqbOqXuyeheemSDvd9i5/F6+/aFpsVqN71KX4A6JO01o+0S7gNAQozmCQAA8hnFNKTFgR//Imb6ZdzyxLVbPvHh+KKWKqztuV3NqZ5pn5dlFw7Jts318oGnDtgFN3Xfs/dvlG1vXi73fbdZbrBa3rB+Z8wpol6c7Tx7bbP8Qm+n8eYnxB5wCjlNFdIefvhh+cpXvmL3nnjsscfkS1/6kr0+amwR7dixY/JP//RPMnXyZHs5H4T27pDOkVHPeqRlep3M6nGuKbO3sUHmLW0Te+yzY22yqlaktV9dr+YekYZO+xFu9XLw4gH7OetuspY268d7KLeODTnUZ7VximYvP93vXPOmv1UqGzZJ27Gg1G7vlmapHOnB1rOuVFZcutdp19Ms9eXRIhsAAACAiYRiGlJOncI53jSxTJFlq51CmNJ482x5273PSbQDWTyr7cYDcl+J06vM6bV2Dp6vl3da+5pxmyrO+bgmG7LuoYcesgto8+fPt5evuuoqeeSRR+z16hpDY4to//zP/2xfAygfqBHPoj3HSmtnSXf0Qs69u6VemmWxvljz3Ju3jvRac4pu9+jTLMtlZVulmjGolKoFTpdru1DmmyqaRWT7Mt2dfFqZzHLmxuiR3Q0iTR+KhlwprdWd0kcxDTgrjOYJAADyGcU0IBMuvE62HdwpX71WLz9fL3fZp2+OpQYqmC1v+/BuueG7B+QX6xfr9cmaIstuusOZVQU1tU3PAh4yZdGiRSPFJLugVFoat6ym1157baSQFqUKamr9kiVLZPPmzfY6dauKatHHqVMPv/aTI/Z9uappX9juOWZP/WWyKRDbs6te5umfo7hshXTKQbtQ1fe6V0+0sWZJmVNj9CXUd1DPWXpbnP3ap2+qUzu9qYKg065U6jpEDvYl6v8GwAujeQIAgHxGMQ3IGKfX2Sl9uuaz/W84q2MdOmCP+Nn4lDrl01l11i671T5V9NTBJ5xRRD0LeMiUF198cbSYZE1qRLnYZTW9973vlX379ulHOF566SV7/c6dO2X16tX2OnWreqZFH6dOPbzpfTEDf+S6aYulKrZnV3WrDOifwz6NMuKcWll2sVdPtHNjF+kuK5OgOsW0vN4u9Dn7Vad2eqmUrX3Rds7zvqMm8QVSAQAAABQeimlAukUHAlCDBsS4Ybrh1LySP7ELba+84Qw68OT9u+3VRnFth+SFF2Lb6h5u9j4vl/uecnqpfeAiRgHNdXfffbfcfvvtIwU1VUhbtWqVvf6SSy6xT+tURTRF9UxTp32qa6jlnWO7ZUdHpdObbO5iae6oky36gv6hbUslEGixByGwByqwr2Gm7umRLbV+e6ol0Nsi8xoqpfUWfZppjFD7Jo+eaeWyuKlTVjylQ+oBExiEADg7U6bw7xFQKH7729/Kr3/9a70EABMDxTQg3dQpnqqY9ditzsiaalTO25+Qbdc5v0jMmasKXWo0z9ny4OB1crc96MASq+2t8sq16jTP3XJ00Lq58INyw7X6PnXKprXd0bYb5ejFsaeE6gELovu8+VERa59qBFHktttuu03uvPNO+eQnP2mfvqkKa5/61Kfs9VHqGmlji2r/8A//IMdP5vZoubHXTAvYAw44vc9UoWptf6scLHdO85y+XA04sNYZnGBarTzSJlI3XT1ut5R5XjMtkS79eD2VHxwZVCB6Hbbo6Zur5J6Ya6GVSZk1Hx3Ns/yBAdl6eIFzmqeVX9oGZK2+hBqA5DCaJ1A4BgcHZcGCBXoJACaGQDgcjgwPD9sLRUVF9q2XVLdT1IdvSUmJXjIjn7ds59tVUy1X35/oCkNA/nhxfbNc096hl+Kl4jhSRRh1imBUqo7fX/3qV/Y11Iae3ylPvhozXKyB359D8Ztvz/Iaz+ctKhXPn0hI2mumS9fH++0BA/h8diukfOrfl8y8r0Ylk4/X1y0f8k2ePDnuc9gLz59bOvJl7t+PeHy+uJ1Lvtdff10+8pGPyJEjo9duzaV8JunI5+f9rBTK8auQz418boWaj2LaOMjnFtuOYhoKSb4W0xTV7rvW8fjRji69xszv9hS/+dL6y9D+DVI8v8GZVxr3Slh3B+Pz2a2Q8vHLrlsh5VO/dM+cmfg6j+nIRzHNLZv5XlnfJL977TW9BvkqdOItuff/t0+e+vD/p9dMTG9/73tldkOTXvLG54sb+czIZ5Yr+QIRSzbDhEIhCQYTX8CZfN6ynW9ndQXFNBQMVUxb4lGMSsVxpE4xVBetj0r18auKD175o/xuT/GbL5X7TUc+JVX7JZ9ZOvKpf18y/b5KJh+vr1sy+fbs2SMLFy7US2ap2O/nPvc5aWy0h+ExUvf94z/+o14axevrRj6ziZrv29/+tl0UP336tPzud7+T7du3y0033WRvR62rq6uzj/Fs5eP1jUc+M/KZkc9bbD6umQYAAICCpApl0dF3oz3SostqMhXSAIyvtLRULrzwQpk+fbrMmDFDzjvvPHn/+98vc+bMsa+f9r//9//WLQGgMFFMAwAAQEYxmieQ366//nq555577NHG1aBJb3vb2+Tv/u7v5G/+5m/klltusQtrAFDIKKYBAAAgoxjNEygcqleaOrUTACYSrpk2DvK5xbbjmmkoJFwzLZ7ffFwzzYx8bsnkm2jXTDv4wP3y29f/U69BunztJ0fkpvclHvgA5+6Py94t8z6/SS+ZFdLxq0zkfP/3//5fKSsrk9/+9rd6TW7lMyGfN/K5kc9souejmDYO8rnFtqOYhkJCMS2e33wU08zI55ZMvolWTFPHEf+eolAk+vc0qpCOX2Ui5/uv//ovueiii+T//b//p9fkVj4T8nkjnxv5zCZ6Pk7zBAAAAACcFU7zBDARUUwDAAAAAJwV1ZuDYhqAiSYQDoezeprn4OCglJSU6CUz8nnLdj5OS0EhUaelXNPeoZfipeI4Ki4uFuszVy+l/vjds7zGM3+U3+0pfvOlcr/pyKekar/kM0tHPvXvS6bfV8nkS8fxy7+nKBSJ/j2NKqTjV5nI+VQh7Y/+6I/k5MmTek1u5TMhnzfyuZHPbKLno5g2DvK5xbbrXvV3cvI3Q/YykO8mXzBF5j3yL3opXiqOo0Itpr2yvklmNzTpNWbJ/BxKKvMpqdov+czSkY9imsjD3T/Vc97unHeJngNyB8U0t0LP96EPfUi+973v6aXs5vv+/ffJf/X9TC8B+e3t736PzG5er5fMzvX4HSubx28+5WMAgnGQzy223XgXiE5XvkT79bs9hdfXbSLnS8X7KlE7BiA4t+dvLI4Pt0LKxwAETjHtkzf9lV5y+8rXvk0xDTmJAQjcCj3f2O842cyn/v2gpy8KRSo/TxU+/9zONh/XTAMAAAAAAAB8opgGAACQo06d+r3nBAAAgOygmAYAAJCjTrz1lgSDF7qmEyfe0i0AAACQaRTTAAAActRbb52SQ4d/Yk2vxd2+dfKUbjFxvPncZ+Vts2bL2+59Tt7U6/zY/7j1mFlPyH69fO6GZNu9yecAkD3qGpTjTQCQDIppAAAAOeqtE2/JiRMn7du39G10eWIZkhde2O3MPr9bXkiiijXntgNy6uCtMkcvA5iY1IAuXhMAJItiGgAAQI566+RJOfnWSfv2LX0bXZ5Q3vyBPPu8yA233yE3yG559uUhfYcy2lNsm90LLb4nWmzPNKd322dl23NP6HazZdlzP3IeP+ZxIj+SB3Ube3r8R3o9AACY6CimAQAA5KgfHP6F/ODH1mS4nUjefHm3PCuL5YaPfVxuuFbk2Rd+4D7F8vndIh87IKe+2yw3yKPy0HOxBbdYalsfl1MHd8pX1bbuv1WO3jT6uIW6aLb/8VvllfU7rXYH5BfrF4s8dqs8eMi+C0AeOnXqlJw8aU36NrqsbgEgWZOGh4clm9OZM2eM63NlIl/iSTGtj07pyjfefv1OvL7nNhVavlS9r7ymsdtP9fM3dvvnOvnNl+r9+p04Ps5tyvV82Xpf+Z3ScfyOdee8S8adJgZ9iue1i2XRhVNk0aLFHqd6zpSyC62bC/9EPmDdPNv/hr3WbbHccMUU63aKlF2slu+QRZdZN/pxUer00G3XvWH3Tnvn/foUU/hmep/nysTn87lNpny59Jp7UdegLC0NSmnQmqzboL5V64FcZnqfn+3E59+5TbH56JmG9DnWLrdddJEUFxfHTRui509Y9y+1lpdtj/k2vH+D066mXa84S2/8m73tpdtC9mJvS3yG6D4G7XsBpFevbJw8WSZbU/xxuFTaj+kmPoW2LbWPXXVk//AL7s+X4pZep+F47M+fDVYyADkveornog+KXSu7YrHhVE/LtX8iM/TsudOnjs66VeSpA3LqqTv0egD5So2OfOjQT1xTro+O7JyqPnZK3aAqI6e/27+SpW6AFXPu2T57+DLQC3LfpKKiIsnmNGnSJOP6XJnIl3hSTOud6Tz7/sq2AYlEItY0IK3VIg3zN8oP9P0B6/5Jk85z2h/YKMXzG6w1zdLdsTxmO+5JMa0fmc6bZG87cJ6zbC1arO3aOdTULc3PrJAr/u5ZOT72sTk08f47tynZfIppfaqmsdtP9fM3dvvnOvnNN/5+z7P/ctO0L6yPv+jUKctnmNonmM6zjuyA85kRUAd5U3fM9qzPmB8vkOINP3A/zjWpz59Jcp7xvtRMHL/nNo3/vsrulI7jF2b7v1Evz1q3z96/xPll7MPR5a+ncITOMaIFvPU75T7Vaw1JM73Pc2Xi8/ncJlO+XHrNvUSvO2mact8dsuegGkwlOqVrUJUpsmyjtf2N19l/vDh38bn33C7SeHMqR1eeGEzv87Od+Pw7tyk2Hz3TkEFBqV3dbN3Wy+6x3UGOtUtVeb01owpea6XcWZtG5bK2x8ryzVWyha4pQHYda5OqQIu0rAuM9DCL62DW2yKBQMCaqmTL63qdkfUZs7lVKhs2SVu0x5vu7eo8PqC32yMt0+uk0/osmmftt0et0j1lnXZ6HYAc8CN54THr5tpm+UXML2T2NczkUXkhXdcwiztVdEi2fe1RezWA/KVGQla90Ey3+Svai9aZlsVdKzJ+EJXYHmGjvcY+K0/265W2+B5h0QFcttm915z2Tg82R+x2Hnw8toeb2Yzp6rP7iPSpNoecgWCiueJ7yI2V4Od88zlZptfHbg9IN4ppyAEvyIayFdYvtpXS2p+JQpo2rUyut24O9jmnggLIpno5ePGAhMNh2dtoLW1us0/ltAtt5fXS3KN6nj0iZYc67daepi2WqupO6VPFNOuxS+e/LFv7nB5xA22Vervlsra/1frEiRbve+zPoCt0z7nupnqZt1TvH0B2HTog1kfCyCmeUc6pniKNvekaYfNyuUUPOvC2WUvkE+o6a9baV97wGtQAQK478ONfWNMvjbf5av/j1ufT87r311N32D14nWKSKj7dKo36DxHqDxCNN+tC1aEnZOFjTs/bUwfvlRmvj3dNyEfl6EWft9o+YX0e75ZPfEN/7ia9HZGj/aqNvr5lEhL+nJvr5Vn9c9LzDZlEMQ0ZFJI268NO9T5bPNdZo3QtXyHq5E6RTql7kv4gQKFqmD/aQ8ye4gpWlVK1IGjPzf1Qk31rO9YnndWtstL+zIj2bvVpWq1sD2+XmmnOYrBsljMzVu9u6zOoSRbp8yXKb2mVyo4+6XMWAWTTZbfaPdG2XacGDIhx4XWyTf1Sddvl1sLY05Iul/tG7nMGEoieEnXhdeoXws/LMv2LXOx9Yx/ntFX3W9PGz9v7c3Kk+jQoAOlmGsBl7JTbHpWFMb2vnJ5Zuufu7bOdz7DLZtt/fLCL/h7Xmjw6KLK/V/W0vUPu1p9n9qAuCS2WGSXq9iKZca118/qvnF5r9nZGB3Qxbyc+98LHVEEs2VNUE/ycUc/XyzvvfU5mxH2mA+lFMQ1p11lbqn95LpW6DlPvswq750i3+v25YV786V0ACobrmmnba8UpnymzpEwXvWKF+g7qOb/6pK9Dz1qig4/Yn0H2qeReGmRBtJ19CuhBp3cbAABA1sVfe8wu7L/5K3lF3WX3oFXFqlvtIpN9evrgr4zXmjy73rWJepKN18tstDeZ7WwGikn0c6o/btykt60Kaup+Bi1AhlBMQ9qNDkCgph1SO+YX5oqnH7Z7jti9Qazl+vIMXa/oWJ98x7qZVTb66zyA3OLZm8yLdVwftD5J7MJcb4ssaGySvWFdxFPXSfRy41bpj7bz+KwCAADIGfrajnL7E6O9aNWketeW/Il9arpzCubofaO9fPV1y86Zz+1cdqt9CqYqeN0Vd103HxL9nIruweychmo5m30AZ4FiGnLHtFp5pM0up8mm9nRfrUifcvrRR/TpYwBy0tzF0txRpwcKiZ4q7sW6f3WddDbdYyiEJXistY+mZ1bIk/oCG6H2KmEQAgAAkNsul0WqQPXYAecaYbEX9L/wg3LDtSLPvvADu5dW7MX958xVPbl2y7Mvq4LTkLzwwvjXOjOJ386P5Mn7E29nzsea7QLfyEjMuuDn9JZLlCPBzxkdZOFxdR23y+U+3QPuAxdFi4ZA+lBMQ04J1twjqu9IZ+0qZ0VKqZH79LWa1Cmn0iqvfqUy5jQzAOnkumaaNY1/Wrcz8m59uXPc9lU4PVhHNMyL2Z51XF/WLZEH9Inkc1fK1hujp29anymrY66FNq1MZo2M5lkua/q2yss6X2mtZHYwFAAAgLMw57ad8tVr9XXJbn7U7ol232XqHnVtxyekUZ/6+M77d0vjU/p6kZfdag9I4JwCulGOXjzeNdM86N5mzna+JnL7ONu58Dr5oh6JeaEqflnLd488PnEO75/zcrnvu81yQ/QUUOs+1YPNuQ9Ir0DEMjw8bC8UFRXZt15S3U4JhUISDCYuZ5DPW7bz7ayukCUdXfaySbryJdqv3+0pvL5uEzlfKt5XidqpQo06hTAq1c/frprqhMej4nd7it98qdxvOvIpqdov+czSkW+8f1+UbOZLx/F79f2Jel4C+ePF9c0T6vhVJnq+sd9xsplP/fvB52kGqB5iNz8qjU8dsItX+x8/2wEGkEgqP08VPv/czjZfYGBgIHLmzBl7YdKkxB3VTO3GfnCq5dOnT9vz0XZj28Q6ceKEnH/++XrJjHy5m+/VT90uH/jyv2Q8n9rv+7/0mGe+iy66SK/xxzoO9JxbOp8/ZWybWLz/Mpsv+r4ySUW+0tLSuPdaqp+/Q3etisufbL6x/OYbu1+TVDx/Y3F8FHa+RMdjVCE9f+o44pc/FAr1y99EOn6ViZ5v7HecbOZT/37weZoJQ7Lt3iXyief1oiVaWEPqjP08Pdfjg8+/1OWjZ9o4yOcW246eaaNS3U4hn1s689EzLZ7ffPRMMyOfWzL56JkG5C96prkVer6x33GymY+eaSgk9Exzy5V8iUt5AAAAAAAAAEZQTAMAAAAAAAB8opgGAAAAAAAA+MQ108ZBPrfYdlwzbVSq2ynkc0tnPq6ZFs9vPq6ZZkY+t2TyTbRrpnWv+js5+ZshvQbIb3/wjnfI1V95Qi+ZFdLxq0z0fFwzDUgPrpnmliv5KKaNg3xuse0opo1KdTuFfG7pzEcxLZ7ffBTTzMjnlky+iVZMm2jH7+HDh+XSSy/VS2ap3m8y+Th+3ZLJN9GOX2Wi56OYBqQHxTS3XMnHaZ4AAADIqKEheuEBAID8RTENAADkpC9/+cvy93//9/Lzn/9crwEAAACyLxAOh7N6mufg4KCUlJToJTPyect2PnV6yDXtHfaySbryJdqv3+0pvL5uEzlfKt5XidoVFxeL9Zmrl1L//O1ZXpPweFT8bk/xmy+V+01HPiVV+yWfWTryqePxA1/+F3nooYfkC1/4gtx6661y9913S1lZmW4xur3Ozk7553/+Z3n11VflXe96l9xxxx12ES4qHfk4ft2SyXfkyBGZOXOmXjJL9X6Tycfx65ZMvvG+HyrZzMfr63au+cZ+x8lmPvX+4zRPFAp1mmc2vh8o2Th+8ykfxbRxkM8ttt0t779MvvaTI/YykO9uet9MefLVQ3opXiqOo0Itpr2yvklmNzTpNWbJ/BxKKvMpqdov+czSkS/2l/Hjx4/bBbWxRTW1vWeffVbuuece+T//5//Ihz70ITl48KB9f2Vlpaxevdp+fDryFcrxSzHcjHxuyeSjmOZW6PlyqZi2745Pyu9/+1u9BOS3P3jHFJn/6L/oJbNzPX7Hyubxm1f51AAEqqCmpvGkup0yMDCg57yler9+2ynkc4tt99yNN9i3XtKVL9F+/W5P4fV189tOKbR8qXhfJWqnP3JHpPr5G+94VPxuT/GbL5X7TUe+VO7XbzuFfG5+2ymm99Wvf/3ryJo1ayJ/8Ad/EFm1alXkwIEDkfnz50e6urp0C8ehQ4ciF154oV7Kj+eP49ct1fv1204hn5vfdko23ld+2ym8vm5+2ymmfGO/46R6v37bKdl6//nZr8L7z81vO2Wi5cvW9wO/+VLZTsmnfFwzDQAA5CR1zTT1V8LopEZP+vznP2//BfHRRx+VJUuW2KcLXnXVVfoRDjVK5OnTp2XKlCn2CHOqx4Sa1HyiSbVRvduQfqq3IQAAQL6imAYAAHLS7bffLr///e9HpjfffFPWrFkjb3vb2+S2226zT/G85JJLpKenRz/C8dprr8mkSZPsESMjkYh96pGa1HyiSbXZs2eP3grSidE8AQBAPqOYBgAActJ5551nT//93/8tn/vc5+Sd73yn/PrXv7avi6aukTZ37lx7oIE777xTvve979mPUfd98pOfHLleGgAAAJBqFNMAAEBO+t3vficNDQ1y0UUX2Rd8VYWyf/mXf5E/+7M/0y1EbrzxRmlubpbPfOYzduFNLVdUVMi9996rWxSAY21SpU9DjT1dtaU3/v6q9pBeYfnhF512S9v0irNkbXuptc+l25xt96yLPzU2uo+YPfuiTsFF4XpLX8wZAIBCRTENAADkpKeeesqziBbrpptukldffVX+53/+R37+858XbK+0iqf79emqA9JaLVJf3iLxJ7hqvS1S+pEHrZlm6d5e66xLKWu7I6fHdktzR52UJllQmzp1qp5DIer8j9ftAvcbb7yh1wAAUFgopgEAgJykTt9MVEQbS/VMmxiCUru62bqtl93R3mlRqpdaeb01c590R9ZKubM2jcplbY+VpaNOntyvV2HCu67snfbttGnTEhbVtmzZIu973/vsHo7q9vHHH9f3AACQ2yimAQAAFITd0jK9TjqlUh45eFcGCmnatDJrjyIv9/nvm8ZonoVt6uTJ8s///M9y7Ngxe9lUVFOFtC996Uvyla98xe7lqG4ffvhhCmoAgLwwSQ0vn83pzJkzxvW5MpEv8aSY1kendOUbb79+J17fc5sKLV+q3lde09jtp/r5G7v9c5385kv1fv1OHB/nNuV6vmy9r/zuN7PH72mJWPefOXNaLx+Tp/9Z9T5rkoWzR+/vrK0Ttdaak1XtP9BtE0+Kaf3odFrOWG2i+z6tFqw1p8e0ic83/qRG8zStz5WJ4/fcJkXdXnjhhbJx40Y5evSonVkV1e6++275yU9+Il/4whfs4pkaSES1Vbdf/vKX5aGHHorbVjomXt9zm0z5oq95LkzZyuJ3v7z/zm2aaPn8vq/8Try+5zbF5qNnGgpYr2zQF2t2pg3Wmih131LpGtCLnnpl4+Rl8m9nfckPnWHkKtGON7cvc60D0q23pVgmT55sT6PHxVJpVx0HjrXL0uh81ECXfeHx1LxX91vHUux+3cdj3L6N/LbzEv949XxE84w8LxyXyGFfv3mGPn6ny4pnKmRr3xqZq+9zqHVh2dtozf7Tx2QDp10iS772kyMjn69qmjFjhl08U9Tt9ddfL0eOHJF58+bZ66Kuuuoqee211+Ie6/53yzz5bacmNaiJaX3slOr9+m2npnzMt3DhQv0q5jj7+4775x35vNT3RwddsX1/o9Oupl2vOEt627c9O2gvxn4PGZmsfSQ7oAuA7JhUVFQk2ZwmTZpkXJ8rE/kST4ppfXRKV77x9ltUdEA2Fi+QV9oG9AWSIzLQ9oosKN4oP7DvP08mSUAC4+ZT7az/zjPd52dSj7c0PiTbQ6Prz7P2a200pp154v13blOy+ca+r1paWuKWz3Uau/1UP39jtz92Ok+9GRv36guYRy8e3inLZ6j7z1NHhJwXbR/aLrfN/nu5ssdq84/z47Yzdhpvv0VFP5B/mny1vPp0f8LjcWTfnlN8u+Sfv/jH289HU7edRz0n4XC/tP54gRRv+MGYx53dxPF7btP476v0TH73m9njVx2fsQMQxB67o/dXtj1qr5u/slWut5Yb5kePMe9JMa0fnZx/xybpf7Ps48ZaE3e8hn4pXdbaK9990ei6cSY1mqdpfa5MHL/nNt30vpkjn/dqUqd7RgcGUbc7d+6U9773vbJ///64x/X29trrYx/rfD7H/rtlnvy2U9PAwOj3Q68p1fv1205N+ZjvxRdfjHstszkppvXONPbz1BnQZfTz0rk/EP3u/8N/kskL1V8omqW7Y3nMdtyTYlo/Ojnbtn4BsZedz9MxA7o8s0Km126X467HZm7i8+/cpsx+P0h+4vU9tyk2n30IAwXnWJ8clEqpWhDUK0SCNfdY/1ypizWHpG3pPGuuU1bNWiltdi+VHmmJHeZ/nRofzWnXYP2KsKJsqdVOLQdktOOKekyVfvzoX5dGHx9VKc1NInWrvUc6C7VXje57ZJsh6fxkqbS0t0mVvq+qPSQ966LtYkdxc7JFt0HnmtRobFRfniYi6709vU4u/9aArI3v9nJ2rOPxZamQivmJj8e66VW611iv5/EYbaeOR/v48Dgeo8eJ/Vde3wdEUGo3t0plw6aR7QB5aVqtbHhUldPqZZP170Z6Wcfm5nqR6la5ZY5e5QOjeU4M6hpp6lpp6vRORRXV1LXULrnkErnrrrtk1apVsm/fPvs+dXv77bfbp4ECmWP9259gQJel8xusmSYGdAHgQjENhWnaIqmqVr90xxaWrH+gIhFZO9f6R3N7t/WLvLpA8xapneb8kn4w2outP/rLtNOuyT5tZrvVTm/GpLdFFhzeKv3Rv3Adiv9lvOyWR6RV6mSL6Xd667GltbNG/irV3WTlfnK0TFbfJfKIus/6x7WztlQ2Xaxyqr+ijf6S1NsyXeouc3rYqHb15aNFBSA5qijlHA93XalXnatpi6XiRlWULk54PLb275Aa63hsr1ngeTxG2413PM471CoD1uNVb7Othzf7Px6srOqzo4/jB3mupOJ263hR11Fb5axIqXqZN1LwLrX+dbOOt+211q+kgOP4yZPGIpo6PTBq5cqV8qlPfUo++clP2u8ldatG8L3tttt0CyCbnAFduuzfA9bk9IAuALKDYhoKlPrFO1pYin7h9+qx5bTdUaN/DbD+EZvlzJ0ltb2xv+xb61arLC0x14nS5q6VSMxfu8ouVv+EjqqsWOz8gmL/49os99g5g1J2mVqp9MoLjSLN1+otzF0prRQD4KVxwWgPStcxoQrQqvdXqgWlpj0s4X1Nvo5H1TaVx2NN+zjFcCDXTauVHZGIbF/mUa7S948cN7bZdsE6Etmhl8+Ste3t4fDIvssfUNscM51FIY3RPAvbc32/sG9NRbRYqqCmBiNQ7yN1SyENmad711rfsRfH9MYfHdClS1Y8ZfzCAmCCo5iGwmYXqvSX/f5WOejVY6u3ZeQX/EDgLIoJ1n76P94l03WRQp2O6WK16W6ql82xFzS1qZ5xowWG0tpOvd4xq8zfryijRYpSqesQOchftJKmLpgcfR3UpETnoxeGjb3fNCVqd/XVV9vbzKox10wbexpnpeoRZh0rUlsqX/yhXpkqc9b4Ox73b4h53s7ueByo2CGl1uPVaxF3EeFx9UmfdfwAcKjjMJnPP7/UaJ4oXJV/dnHCIhqQbV3Lp+vPNfW9WfV6H3sap1oXcQZ0aVzg8QdAABMZxTQUJvXLeNx1yyyep2/1SEt5vTSrC63bv+irU8l8sK/LNiq4bPvIhUyrumKv5TSq/JZWkeV3ypM/0yssofZVzikyusgw0BbfM82fCvsf/JFChTXF91CAH2MvmKxE5/1emDdRuxdeeMHeZu7S1xlUvVx6muXBj3wx5rp856C3xX3dMs/jsVc2zG849+OxZof9eHWaZ8XXp/v/Eqyvt1hGTzbA5hxH/j//AOUPi5yLZgO5Kn5AF/flIyrbHrHXzb15q/UtW/3ROvZaxWlkfQ9Rf1a/wucf0wFkD8U0FKY5i6S5YV78L9C9W+y/PI33S3KofVPCnjD1zzv/lIb27rD/sbPn26vGFAs89jOtVh5+WqShUY17ZtIjW8b0TBvfXFlkbW/kOmvHnAELfBcPAJO5a+Wbn31Q5i31HjjDt7mLpalxweiw80qaj8f4YnqFz+JYSNpW10ln0z2cFgqkmRrNEwBy3rQa67u7XU7L2QFdAGQHxTQUqLmyNtItEnN9pkD5wZgLl5dJWXV0NM9yWdlWOXKa5Cq5J+aaY2Uyw75wuhrNM6hH+pun21WN9JgJ1jwiWw9Hr0VVKjsqnL9mmQSXPSxbb9QLFntUw446+5S0QGC3LFaj+BzqS6qAMXdtv7QecnIFpteJtKVoFEZMaLPv/qbz3lzaptecrXJZE94rMj/mNDHD8eiM5jlXbrG+tHodj9F26nis/Nwjnsdj9HgoLp4uXR9/2Ls4ph/vnMamB/J4IGOXGQYmLEbzBJAvgstW298xGNAFQKxAOByODA8P2wtF43TJTnU7ZXBwUEpKSvSSGfm8ZTvfrppquabd+wJD6cqXaL9+t6fw+rpN5Hxj31fr1q2TBx54wJ7PhXyJqHZ7ltckPB6VdORL5X7TkU9J1X7JZ5aOfOP9+6KkI9/kyZN9na7I8euWjnxKqvZLPrN05MvW8av4ycfr61ZI+bL1/vPzearw+rqRz0y1y9b3A6UQnj8lXfnomQYAHqKFNABAav3mN7/RcwAwMTi94IvtgTmi816T+sMOgBwXsajeaWoaT6rbKQMDA3rOW6r367edQj632HbP3XiDfeslXfkS7dfv9hReXze/7ZRCy5eK95Xfdkqqn7/xjkclHflSud905Evlfv22U8jn5redko33lWqjvxqNi+PXLZl8L774op7zlur9+m2ncPy6+W2nZOv49dNO4fV189tO4f3nptr42a/C6+vmt50y0fJl6/uB33ypbKfkUz56pgEAAAAAAAA+UUwDAABARjGaJwAAyGcU0wAAAJBRjOYJAADyGcU0AACALPvaT45IIBBIOEUvTG26b+xUWlpqXB87qW1d98yzxvtiJ7/7TUe+VO7Xbzs1kc89+W2nJvV+BgCgkFFMAwAAyLKb3jdTjXyQcAqHw/Zkum/sNDAwYFwfO6ltPXfjDcb7Yie/+00m36FDh4zrY6dU79dvOzX5ff5SuV+/7dSU6/nU+xkAgEJGMQ0AAAAZNTQ0pOcAAADyD8U0AAAAAAAAwCeKaQAAAMgoRvMEAAD5LDAwMBA5c+aMvTBpUuLamqmdusioujZClFo+ffq0PR9tN7ZNrBMnTsj555+vl8zIl7v5Xn94s5z4z/+0l4F8d/573iMX37laL8XLh+P30F2r5P1fekyvyVy+n3/5C57PW1Q+PH8K+eJlM9+rn7o97v1sko58F110kX09qui6TD1/2Tp+x+7XJJnnT0llPsXP86eQL14282Xr+FX85OP1Lex8/3DNIgbBQMFQ16D8p10v6KVzPz74fEldvoDVKDI8PGwvFBUV2bdeUt1OCYVCEgwG9ZIZ+byRz418ZuQzK6R8u2qqZUlHl15jlo58qdxvOvIpqdov+czSkW9ndUXG31eqnRqt0OsLVCyOX7d05FNStV/ymaUjX7aOX8VPPl5ft0LKl633n5/PU4XX1418Zqpdtr4fKIXw/Cnpype4lAcAAACk2PHjx/UcAABA/qGYBgAAgIxiNE8AAJDPKKYBAAAAAAAAPlFMAwAAgIce2VBcLMUtvXrZEWqvksC6Hr2UPEbzBAAA+YxiGgAAABJr3Cxtx/R8CkydOlXPAQAA5B+KaQAAAEigQpoaRepWt0lIrxlL9VRTI6GqKRCo0oW3kLQtDUhLe5tUBQL2UPNV7SHpWReQ0tJSa7lFRvu2OW1VGzWN6QgHAACQUyimAQAAIKEZNz8srVInW0xFrt4WKa2dJXvDYQlbU3dTp9Q9OVomq+8SeSQSkUhPs3TWlsqmiwfk0KEXpLW6Xja1O+W5nnWlUndZt0R0u/ryKmlPYU84AACAVApYX3oiw8PD9kJRUZF96yXV7ZTBwUEpKSnRS2bk80Y+N/KZkc+skPLtWV4j17R36DVm6ciXyv2mI5+Sqv2Szywd+XbVVGf8faXaTZ482S4IjWfiHL+90lK8SWa8vk3qQv8kxfNF9obXyIxtS2X6z1ZLeO1c3W403/FnavV9M6S9Zrp0fbxfti8Lihxrl6VlR2W19fjTL70k5714tWx+t7rvqGwoXiCyLyxr5qgthOzH/fxTJ+Xev0jt66uk8vlTyOeWreNX8ZOP19etkPJl6/3n53Nc4fV1I5+Zapet7wdKITx/Srry0TMNACaI3pZiu1CgpujpWMXFS53eH+qX3Oh81ECXtc594fFzoTIU17R7nirmsn9Dcu0TsX/GDWL/NLHz1v83up6XYtmw374TQNScNbK3sUE2bxt7RKri1+jny/TlXXq944qyoJ5LrGF+9PibLiueEXn56Jv6HgAoBL32gC4XXXRR3PeNlH3PsYS2LXW2p74/xewj9vsf32+AFIlYVO80NY0n1e2UgYEBPect1fv1204hn5vfdgr53Py2U8jn5redMtHyPXfjDXrJrLtJItK417y9/tZIpVRGWvtHl6+3/olo7tHLHvzsV7F/jr6tkcrq5khzdcx+xrDbmfIZJP382T9jc6R77Lz1/ybrZ23aF7Nf+373z5/WfAmkup2S6/l8v69SuF/VRn81Glemj1/F7/YUv/nG3686PioiW/v0fvVnRXNTZUSanCNooM2ar26N9Ot89rJ930CktTrmOIo57g4dOmR/JlW2qZzdkebYzx/N78+b6nYKx6+b33ZKto5fP+0UXl83v+0U3n9uqo2fz9Nm69+Y+76Vvucv+nkcu4eE3/8MeP+5+W2npDpftr4f+M2XynZKPuWjZxoAYIweaZleJ5d/a0BizuA6Z6F9XSIVK2VlhcRdT0mOqYuTt0jLusDIX1BHOsP1tkhgqbrouftC5iu7Bu0LmTsXLI+9kLmVX7ext3c2Peum1cojbZVSv9n7guvAhGQfGyL1DZ16xVi9sqXW675R8aN5lsvi2Ous2Z8JAXpPAJhgRgdicfUg05+L7u88lv0b9Poq2fK6XpeA+u6kBoOJUgPI2Mv6+1hn18qR7cWN4qy+k+kMqexNB+QrimkAgBiqEDVPDrYNyF1X6lUpEZIXvi5StSAowZp7pLlhd/wXQamXgxcP2Neq2ttoLXkUsWIvZP6dO95vX8g8EhmIuZC5+iLq5I9Y7cJ9W6WicXP8l0GfgguqpLKjT/r0MgBHsOYR65jTCxb7mO6ok+l2MfwFWWwdn3KoL6lftMofsI7jQ/OcX9Sm14lYx7Bz/TQAmBjsgVikVQbU95d9TdIwf6n+/uL8kVN9LqrvNt1N9TLP/kOjRV22Yn6DNPdY340ij0jZofH/mFF+bbN0du3Wn9Eh2W19t1Lfzxz1suro7fZ+BtpiRnFWhbbyg9Lar/YzIFtlhUxn2GVMcBTTAGAiaVxg/7Uz+pfF+O9BnVI3fZ71NSoNjr0gXVIhi6epBdULpV52x+27cuSL3NwPNdm3JpUVi8VuNa1Mrpf75J4atRSUssvUSiUotdsjssNeb7HaXeHMATgr5bImvF1q7GM3yjnOIg+U6+VyWat++bNH81wj5XPXSmR7rdXKaTfSw3VareyIrLVaixw/flzKH4g5VqPbtLajptH1AFBYHvxI6cj3sNFeZiHpOyTSvFp9dlrm3CJbb+ySHXtD1neoPjkozfo7j/WJe0urVHbskN2q0PbGUem6caustD9nrc/R1c1qJrG5i6U5+sfCY7tlh1Tp72dKpTyybLY95/yhxNlPaO8O6ayOtgtKzaet72qH+XMjJjaKaQAwkTTutX/hjf7COvY0zkr1V8/+VpHaUvniD/XKFFCneHY9s0JK9ZfHeQ0i9c/H9k2bJWVxv6ybzfJzIfPY0xCKF4i1q7NjfXkd/++7AM7G0NCQngOAieW+bzk9zJzJ+QODSJ/0xQ3YGJSyS/Xs2O8j08qsb02OUN/Lei4Zo3/UVEUyif6h0jZL/rRUz47VUTfyPa54vvXt6pmj+g5gYqKYBgDQdO8w1Xukp1ke/MgXx5yKebZ65MnlXdK0b7SIF4l0S3PDprM6/TKxHmkpr9enO6ieMnvFu59bYqG+gyLVZVKmlwEAANLD+r4Rc/q89S1E+g7r2Wll1je0GHZPNUew7Oz636tTPeufbxtziqdyUH45oGdj9mNr6h75HhftiQxMZBTTAABuc9fKNz/74Og1Oc5F725pkCZZFHf9I/WlsdM5fSGNQts2n13PtGNtsqq2c/R0CwApNWXKFD0HALB7ol0Wc83Y/U/Kimcq9B85VU+06LVhRXqerBs95XLOIml6ZoVssS+dEZK2zT4v1qFO9Wyok7q4UzyVTvl276A9F3tqp30d2Zg/gva2FNuDEAATGcU0AIDR7Lu/aV9UvHRpm15zdnqet77YNS6S+DNKg7K4olI6a7ekqPdbVLmsVKNwljunIdwpq+1rjvT56AHXMH/0WnLqAuizetynwQJIjfjRPAEA9kAs4pxKqU6jbNq3XWrtQle5rNWX4FDfUeY1NEu3fV1KZa6s2dekv/eUSl9Fa3wvNk/qVM+Ya9GOaJbLj77f3k9p7azR/dhnLcySuunO96QFjU2yt73GfgQwUQXC4XBkeHjYXigqKrJvvaS6nTI4OCglJSV6yYx83sjnRj4z8pkVUr49y2vkmva4C264pCNfKvebjnxKqvZLPrN05NtVU53x95VqN3nyZPv0lfFw/LqlI5+Sqv2Szywd+bJ1/Cp+8vH6uhVSvmy9//x8niq58fz1yobizTKjL2aAGTUyaNlRueWNlfJh3n9xspkvW98PlEJ4/pR05aNnGgAAADLqN7/5jZ4DAGSUKpoVL5CXn354zEjNAJIRiFiyWdkLhUISDCa+Ig35vJHPjXxm5DMrpHzqL7FLOrr0GrN05EvlftORT0nVfslnlo58O6srMv6+Uu2Ki4vtiyuPh+PXLZl8e/bskYULF+ols1TvN5l8HL9uyeTL1vGr+MnH6+tWSPmy9f7z83mq8Pq6kc9MtcvW9wOlEJ4/JV356JkGAAAAAAAA+EQxDQAAABnFaJ4AACCfUUwDAABARjGaJwAAyGcU0wAAACaod7z3z/UcAAAA/KKYBgAAMEH99rUf67nMOn78uJ4DAADIPxTTAAAAkFFDQ0N6DgAAIP9QTAMAAAAAAAB8CoTD4cjw8LC9UFRUZN96SXU7ZXBwUEpKSvSSGfm8kc+NfGbkMyukfHuW18g17R16jVk68qVyv+nIp6Rqv+QzS0e+XTXVGX9fqXaTJ08W67uRXuON49ctmXxHjhyRmTNn6iWzVO83mXwcv27J5MvW8av4ycfr61ZI+bL1/vPzearw+rqRz0y1y9b3A6UQnj8lXfkopo2DfG7kMyOfGfm8pTrfK+ub5HevvabXAPnt/Pe8R+Y2rddLZuk4fimmuSXzcyipzKekar/kM0tHPoppbuQzS0e+bL3/1Pew2Q1Neo03Xl838pmpdhTT3HIlXyBiyWaYUCgkwWBQL5mRzxv53MhnRj4z8nkjnxv5zAopX3FxsVhfjfQab6nOp375W9LRpdeY+d2e4jdfKvebjnxKqvZLPrN05NtZXZHx91Uy+Xh93QopX7bef34+TxVeXzfymal22fp+oBTC86ekKx/XTAMAAEBGMZonAADIZxTTAAAAkFGM5gkAAPIZxTQAAAAAAADAJ4ppAAAAOa5nXcC+npuaAoGAnqqk7Zh157E2qYrORw10WuusNut69Iqz1SMbXPsNSEuvvnscKndVe0gvjZoyZYqeU0LStlRv0/5ZWqy9JhDX5tzyAQAAnA2KaQAAABn2uc99Ts8loXGvPdKoGiDBmXZI7TR9X6xjbbJy1iqZ1WO1eaBcrzw3Tfti9tvfKgfLz61gNXXqVD2nBKV2e0TWztWLZyHV+QAAABKhmAYAAJBhjY2Nei7VeqRlep1c/q2BcypOJTStVh5pq5T6zW0y0uest2W059xSZ32ovUrmNYh01paO9E5T61TPsdLSUus22psupmdanJC014z2ODP1cDMy5QMAAEghimkAAAAFoUdaAvPkYNuA3HWlXpUmwQVVUtnRJ31qQZ12WX5QtvaFJRzul1apk9J1PRKs2SHdTSKVVp4dNUG74FZaO0u6IxE5dOiQdV+n1D3pfUJnaNudsuLSvbrHWbfMqt2S+PTPGHH5AAAAUoxiGgAAQD5oXBB3bbD4nlydUjd9ntTrpUwK7d0hndVVssg+5TQotaubRQ71uXuFzV0rkchaUSeeqtE8yy6udNb7Ui5r9WMBAACyLTAwMBA5c+aMvTBpUuLamqmd+jKn/mIYpZZPnz5tz0fbjW0T68SJE3L++efrJTPykU8hnxn5yKeQz4x85FOSyXfjjTdKT8+5XrQ/eTe9b6b8064X9JI73w8fKpWPRL4hb3z6SvfzN9BpXyNNHn1VtszdZ8/PfOZ1+Yerxn/+Dt21St7/pcf0GpMD8oXSj4p88w359OyY5+/gFyX4V9bqgbvkT7tWyvvv+I6+J+o++Vbo0xLZHJTHZli5KkqsdYPS+cn3y6pvOi1sn/2mDNz9p/b6/r8dkLv+RP0s/XK7td1ZVr4ffuEi+dg/OU3v+5bucWf/vE6b2T7yzVbL+vVVcvn9pxRCvlc/dfs47yueP/I50pEvW++/2M9Tc74D8kXr8+pBvTTio4/Iq1+pFPUpGZXN54/3X27lG/vvdK7lU3L5+VPSls9qFAmHw/Y0nlS3U1Qxbzyp3q/fdgr53Py2U8jn5redQj43v+0U8rn5baeQz81vO4V8bn7bKYWeT38Fs6k2z914g14y626SiDTuNW+vvzVSKZWR1n693NNsbf++SLde9OJnv9aeI01W1qZ98fsdaKuMSHVrRD0L9nxTt/HnVbkr25znKvYxhw4dGnmcdU+ktVoizT3WrP2zNNvZ47fXHWmO/owxbfzkizLl88Lx4ea3nTL++yq7+Xh93fy2U3ItX2Njo55zZOv95+fztNn6vLrvW7y+Y/ltp0y0fKl8Pyu8vm5+2ymx+RKX8gAAAJBf5q6Vb372QZmnBwJIuWNtsqq2U5pX10rQWrSvT9awSdrtwQREetYFRgYh8DJ16lHZYm0jkd6WYlm6LXYrs6TMNHrpWGPyAShs6RvQJZOcgViqljqDtGzYP7pOLasp7tT+3hZ7nTr1f8O2dqkKtDjXlFTrYz5/7UFf1kV7W3tsT1330np8i/rsttarAWLi9mXfrx9nb9sZHMbJ6FCf++5BZIDCRjENAACgwMy++5vS3FEnpdYvPqnQMH/0Wm2B6XUyqycyOlrotFrZ0TNLVpQ5o3nOa2iW7u1OIUtdFy06mmew5h4nk/3L2kuyuMfj2mra3LV75Yrl0/V+51m/rXlfMy1hPgDIE52X3WOfXrZmjqqLTZe6y7rt5Yj1eVlfHh0BuUdayuul2fqcC4fDsuhnKyTxnyYc3ttT6uXgxQP2fd/8rLU0MhqyGiF6h1T1q4FgItJ9WZ2sahdZ9PEKafhetHrWI7utz/3FfOZigqGYBgAAkGHJ9qQof8D6pcmrOqSKWZEdUhvXa2u2rFW/MG2v1ctnq1zWWL+sqV/Y7F/A9OSKMnet3cZpN1r0UiN6qvb2aJ72IALO4w8dqpNyNSCBXXQLSu12vU37Z4k+fq69b9c+49r4zIeM+/KXv2yP2gog3oMfKR0t/kd7lGmVF5fpuV55wfpnovla/Wk6d6W0VndKnyp+9e6WehktXs29eauMP5xLgu3ZKqVqgdOXd/Zf3mff2tS+qqtksf73Rf1bpD7Pg/MrpOKw/mOIatO0eORzH5goKKYBAABk2D/+4z/quYlJjeaJwva73/1Orr76arnlllsSFtX6+vqkoaFBPvGJT8imTZvk97//vb5n4qqqck71SzSpXqCxo/t6TalupyZ1GqBpfeyU6v0maqfELn/tJ0fsdblKDaYyWvyP73E7qyz+5PT68ujPVSp1HSIH+3Rf3uoyiZbdkuG5PY/T6EN9B/XcGNMWSYV0ye5jIj3P148W6YAJhGIaAAAAgJRau3atHDt2TN7znvd4FtVefPFFufTSS+V//ud/ZNGiRXLkyBG58sorZWBgQLeYmLq79al4CabRnqDm+6NTqtupSb0+pvWxU6r3m6idErusRkcuDBXSqk+vjE5OL19LR5/0OXMJ9b0eewJogu15CJbN0nNjBWXRx0V27G3jFE9MWBTTAAAAkFFTpkzRcyhkkydPlvvvv3+kqKYKZrFFtTVr1sgTTzwhDz74oNx8883yr//6r1JZWWn3VAMmtrmyqLFL6p7UJ4HqQQDsi/zPXSzNUi+b2p1eZb1PjblmWscOu8eYcy0ze40lwfYSmVYmlSPbs7aoBinQAxqoUz2lto5TPDFhBSKW4eFhe6GoqMi+9ZLqdkooFJJgMHFFnHzeyOdGPjPymZHPG/ncyGdGPrNk9rurplqWdHTpNWbpyJfK/aYjn5Kq/ZLPLB35dlZXSOcFJa5TNtU2fvKTn8jhw4dl5syZdg+nX//61/pex89//nNZuHChXHvttfbymTNn7NtJk7z7AKjT1vy0izp58qT84R/+oV4yU712FLXtqNj5qPH2G32M33yqfVtbm/zXf/2XXmOWzdc3195/6jmLvl6Kev9l+nNNtRv/87RHWgLz5L+/NSAb/mrs86dG2iyVvtXONR+d/YZke+10+3RMpbJtYLQnmSqGTa+zi2gVjU0SaJwk9+hTRlXBa55dRGuW1raDUvf6PRJe80Fr2WN79rb6Rh4f+vYaKX3qMhnQA8nYI4SW16s5kepWe/3UmHzRzCapfp6Vifb5nK3vB0ohPH9KuvIFwuFwVotpg4ODUlJSopfMyOeNfG7kMyOfGfm8kc+NfGbkM0tmv3uW18g17fo3HA/pyJfK/aYjn5Kq/ZLPLB351C9/v7r+Y3pplCqk7dy5U44fPy5/8Rd/Yc+PLRq98sorUltbK/fee6+9fPr0afv2vPPOiyuYjBXbLpbpMWqff/zHf6yX3NRj/Ba/ovv12y42n9fPo/Ldfffdesksm69vrr3/1q1bJw888IBect5/mf5cU+38fJ4qKX/+3vg3qb34l7I6vEa8zrb0uz3Fd74U7jct+Syp2m8282Xr+4FSCM+fkq58FNPGQT438pmRz4x83sjnRj4z8pkVUr6JVkxT18ZSPZMSSfV+k8nH8eGWTL6xxYxdu3bJF77wBfnFL34hn/70p+XWW2+1t1dTUyOXXXZZ3GmddXV19nsjWhxJRz5eX7dCykcxzc3v9hRf+bpbZPLCRmnaF5Y1c/RKg6R+DkvK8qV4v9nMRzHNLVfycZrnOMjnRj4z8pmRzxv53MhnRj6zQsqXrdM4UrnfZPLt2bPHPpUvkVTvN5l8HB9uyeSLnmb3ve99TzZv3ixHjx6Vz3zmM7Jy5Urdwtme+qVEFdTUheXVNdV6e3tlzpw5snXrVt0qPfl4fd0KKV/unubp4PV1I5+Zapet7wdKITx/SrryjX9RAQAAAABIwvXXXy933nmnPaCAOr0ztpAWpf66rwqr6jS9a665Rr72ta/FFdIAAMhVFNMAAACQUYzmWfj+9m//1i6i/c3f/I1e400V0lasWCEf/KC6SDoAALmPYhoAAAAyaurUqXoOherjH/+4ngMAoPBQTAMAAJig3vHeP9dzAAAA8ItiGgAAwAT129d+rOcy6/jx43oOAAAg/1BMAwAAQEYNDQ3pOQAAgPxDMQ0AAAAAAADwKRAOhyPDw8P2QlFRkX3rJdXtlMHBQXtY7ETI5418buQzI58Z+byRz418ZuQzS2a/e5bXyDXtHXqNWTrypXK/yeQ7cuSIzJw5Uy+ZpXq/yeTj+HBLJt+umuqMv6+Sycfr61ZI+bL1/vPzearw+rqRz0y1y9b3A6UQnj8lXfnomQYAAICMuuCCC/QcABSGt7/3vXoOwEQQiFiyWdkLhUISDAb1khn5vJHPjXxm5DMjnzfyuZHPjHxmyexX9aRY0tGl15ilI18q95uOfEqq9ks+s3Tk21ldkfH3VTL5eH3dCilftt5/fj5PFV5fN/KZqXbZ+n6gFMLzp6QrHz3TAAAAkFGM5gkAAPIZxTQAAABkFKN5AgCAfEYxDQAAAAAAAPCJYhoAAECO61kXkOLiYnsKBAJ6qpK2Y9adx9qkKjofNdBprbParOvRK85Wj2xw7dealrZJSLc4G1OmTNFzIqH2Kr29kLQtDUhLr77jLKjnKS6nPY15brz0tpzDz9UjLTH7sX8mvf+R1+0cnzMAAJA7KKYBAADkg8a9Eg6HJRKJ6GmH1E7T98U61iYrZ62SWT1WmwfK9cpz07Qvdr/WtL1WEl8eOLGpU6fquVhBqd0ekbVz9eLZauqOyzrQJlK3OguFrOpWGbD2r14zNXVfVielFNQAACgIFNMAAAAKRo+0TK+Ty781cO5FKV+c3mTRHlgb9uvVit1jLto7rMVKFuOHX9Trq2TL63qd3pbdM8167NLiDbKhZbRHXGyPtdGeX1VWm6VSnKA7W3BBlVR29MlRtXCs3coUk8WzN9rgyM81dt/R3m92j7MkutGVP9AtzR11ssX/QwAAQI6imAYAAFAQ1KmG8+Rg24DcdaVelWY960ql7jKnJ1h4X5M0zF+qT3V0inp27zjrvu6mepkXLVoda5PlH3lQmu37HpGyQ51qrUGDvPzufv14kfrNo49fVSvS2q8ef49IY5fd2kto7w7prC6TGXrZjwMPvX/k54r0NEt9uT6Fs7dF5h2K9jjrl62HN/s7hdRWLoutn+NgH33TAADId5OGh4clm9OZM2eM63NlIt+5TeQ7t4l85zaR79wm8p3bRL5zmyZaPsW0PjqdPmM1aFwQd+2ydS9F7z8tEemUuunzpN5qFjntP994+1XbVrtumB97zbR1ss++b598r0GkafEHnbZXrpCvVnbJz35hzb/0PStLkyyc7Wzng8u3SkXHz+R11e4XP5PvXV0vN9v3TZWldzWp0Ha70xGRM1Z+Z78fl4+XT3Uer6pQus2xF5+Rzsa7ZWlQtfugrHjq4+pBzuPtsPNisgaktPYDsrdtqUxV+7YaRKwtn1bzejm63dH5fbLv8zE/1+ybZeuNnc7PFdveyl79dJvOofJGYrZr/SAj7UYn5+Hx685myvXjY/z3VXYnPv/ObeL9Z5787pfX99ymiZbP7/vK78Tre25TbD56pgEAAOSDhhfl5MmTI9fgWjNHr9cqnu6XcN9WkeXT5eGDemWKNO4Z3W84vEZizyBVhTZV5Js8eYZ8olPk5ZGeVw2yQJ0KqaayFdIlL0vfMZFQ38v6/vFcITMu0rMxjv4scU+06LXl7J5jN6rn5Za4vH5Ff67i4umy4hn9c81ZI/0f75Lp9s87WZZtf1O39iMkfYf1LIAJqNce0GXs53NoW+JT1QHkpklFRUWSzWnSpEnG9bkyke/cJvKd20S+c5vId24T+c5tIt+5TRMtn2JaH53OU3/+nHSe8b6iovMkIJVy49XTpGjGcunsaZaNH/2S/MDYNn4ab79q286uve6r1Kdbjl5ov/MmK4cKrC/Ab58qaU+dsnxGkUy7+EqR//XHo9tRbQPOz3ZeILovte1Jcp6hzcV/Vhn3XJxnvRbR5fjnaZosf6hVAsuny8YDo9sJxGz3+C9fGdnu6D7U83n9yM8Vneyfy2o37aZOe1kV66q+OUNvW+UNxOS1fpDodkemfvnlMyJXXuxs51ymXD8+xn9fZXfi8+/cJt5/5mn8/Tqfp4HAmOfP+eCLX5fFifffuU2pzjf++yq5idf33KbYfOp4BgAAQKGYu1a++dkHR69RljbqGmCdUvekvpz/sXZZWlzsXKx/7uK4i+07AwboC/9b99337/fq+0LStlmdnOqfPaBAw6aRa7M9uTxBT7VptfJIW+Xo9dZs9bJb73t3l+l6beVy1We/E/NzOQMpqJ/L/jnWxQ6lUCFlphFVDXrWzZP66lZZmZGBIQDkrd4W3Su2OGaAlJgBWmzqGplV0q4+B+2BVaqkyh40xfmcjQ6UYk9xn1kAUoViGgAAQIGZffc37WJWqfWLWDqVPzAgrYeca5SpUznl6X49imi5rO1vlYPl0euWqQED1lprnfvu+tZ9Um/fVyp9Fa1Saa/3yS6QidRNV4/fLTOertB3mAVr7rGfizu3Wb+STqtximv2vleJVDTrVvFm3/3qyM8VmF4n0uaMjhqseWT05y2eLl0ff1hqvYpp6vm32zm/FNsDF2yvlaC+GwBcVPG+vF6a9jmnqreK9TniqxjWKbNWq1601udszEApkYj6jN7kFN0ApBTFNAAAgBxX/kBEwk6Vym1areyI7BhT1Jkta9UvUttr9fLZKpc1Yff12UYFpXa7cxqkOsVz+7KYUpGdy7kvMibf8XfW6fURWVtjtbOLTM627B/Teuz22GuzzV1r/yzRrQdrdujHrxT5epdUvNsZq1M9T5EHnJLdqHL7uYhmG32slakmZrtx+ygZ+bnUtKNmZM8eP6/ax+jPOLqP0dNfY/MDmLge/EipU6jXU2ltTA/ZY33SWd0qt9ifudbnzepmkYbdTq/ehCo9esmqz6wdUuNV9Adw1iimAQAAIKOGhob03FnobYn5RbRUVly6N76IBwA57L5vDYwU29U00DbaNzfUN2Z0gmllPnvuzhotps1dKwMVO+yesepzsqo9vSf8AxMVxTQAAADkD9WDLOYXUc8eewCQZ4Jls/Scpnqq6dk41vpEgzaP9o4dkKquUtmwX98BIGUopgEAACCjpkyZoucAACNUT7SOOnnSLn7pAVqaFuvrTYrUP++c8Bnau8NcZLO4B0qplBkX6VkAKUMxDQAAABk1depUPQcAGKGuNdnTLA3z1cAl06VOWmXAvg5kUGo3t0plgzMAyiqpEvPwKapX2uhAKepU+B0Vj3DNNCANKKYBAAAAAJBWzmAod12pFzX7lMzYgVPmrjUPXBIzqMuOmlp70BO7SDatxlofHS1ZGR0oxWnLNSWBdAgMDAxEzpw5Yy9MmpS4tmZqpyre6iCNUsunT5+256PtxraJdeLECTn//PP1khn5yKeQz4x85FPIZ0Y+8in5kO/QXavk/V96TK/JXL6x+zVJx/Nnff+U0tJSvWSWzPOnpDIfx8e55Xv1U7ef1fvKZCI+f+Q7t3zZev/Ffp4mysfrS75k8mXr+4FSCM+fkq58AatRZHh42F4oKiqyb72kup0SCoUkGExcLSefN/K5kc+MfGbk80Y+N/KZkc8smf3uqqmWJR1deo1ZOvKlcr/J5NuzZ48sXLhQL5mler/J5OP4cEsm387qioy/r5LJx+vrVkj5svX+8/N5qvD6upHPTLXL1vcDpRCePyVd+RKX8gAAAAAAAACMoJgGAACAjGI0TwAAkM8opgEAACCjGM0TAADkM4ppAAAAE9Q73vvneg4AAAB+UUwDAACYoH772o/1XGYdP35czwEAAOQfimkAAADIqKGhIT0HAACQfyimAQAAAAAAAD4FwuFwZHh42F4oKiqyb72kup0yODgoJSUlesmMfN7I50Y+M/KZkc8b+dzIZ0Y+s2T2u2d5jVzT3qHXmKUjXyr3m0y+I0eOyMyZM/WSWar3m0w+jg+3ZPLtqqnO+PsqmXy8vm6FlC9b7z8/n6cKr68b+cxUu2x9P1AK4flT0pWPnmkAAADIqAsuuEDPAUBhePt736vnAEwEgYglm5W9UCgkwWBQL5mRzxv53MhnRj4z8nkjnxv5zMhnlsx+VU+KJR1deo1ZOvKlcr/pyKekar/kM0tHvp3VFRl/XyWTj9fXrZDyZev95+fzVOH1dSOfmWqXre8HSiE8f0q68tEzDQAAABnFaJ4AACCfUUwDAABARjGaJwAAyGcU0wAAAAAAAACfKKYBAADkuJ51ASkuLranQCCgpyppO2bdeaxNqqLzUQOd1jqrzboeveJs9cgGa58b9utFLdRedU7bnjK838rXYm3dYuc3zI8Vd1+PtOjnIfZ5aem17wQAAEgrimkAAAD5oHGvhMNhiUQietohtdP0fbGOtcnKWatkVo/V5oFyvTK3TL3gj/TcuWm2fkb1nNjPS3+rHCynoAYAANKPYhoAAEDB6JGW6XVy+bcGZO1cvSoTeltGe4gtbZOQXh3bg8yeXL3ZnLydUi/zYnqk9bVX6e0tje9xl8i0WnmkrVLqN8fuHwAAIPUopgEAABQEVbiaJwfbBuSuK/WqTFCnX5YflK19qodYv7RKnZTaRbOQtC118tg96fpbpbJhk10cO/6b/3YeK+WyVq2XZumOrLWWlHrZIY/Yvc32NnZJ3Wr/xbHggiqp7OiTPr0MAACQDgHri0pkeHjYXigqKrJvvaS6nTI4OCglJSV6yYx83sjnRj4z8pmRzxv53MhnRj6zZPa7Z3mNXNPeode49bYUy4JGvaA17QvLmjnWzLF2WVq2Qrqc1VLxdL98efEkX/nG26+1Z2kpXiBjdu1Qp52unSuhbUtl+tcr5OjT1XKhtbroh/8kxV+YIf3tNRJ0Wmq9sqF4s8zo2y5/euBz8sXq/yWrw2tkrp3/aMx8l1RYbaqD1vP3/Y0y+UvvcrYV287e1gIR6zn4hytjnue4NvGy+foqqWqn5Hq+XTXV47yvspuP19etkPJl6/03/uepg9fXjXxmqp2f91U28ym5/Pwp6cpHzzQAAIB80PCinDx5cuQaYXYhLYYqooX7toosny4PH9QrU6Rxz+h+1dT/dIW+R3tmhcyYPFkmW1Px/AZr+agcVev3bxg5/bO4eIFY9/hwhZSZrgXnxxtHR4qKAAAAaROxWF+K7Gk8qW6nDAwM6Dlvqd6v33YK+dz8tlPI5+a3nUI+N7/tFPK5+W2nkM/NbzuFfG5+2ykTLd9zN96gl8y6myQijXvN2+tvjVRKZaS1Xy/3NEdE7ot060UvfvZr7TnSZH1dbNoXv9+BtsqINDl7iM67f97uSLP12OYevWgvOzkPfW+jlbnZyWjnd8/b29vXFJHq1oj9bMe2s7flbDt2v3aWaPsx3Pm8cXy4+W2njP++ym4+Xl83v+0U3n9uqo2f/Srq+bM/0z0+qxR7v+rzL/qZpz7XdXv12Mo255F2mxu3em4nyu/PoTiv70CktTr6+e183kY/8xW1rf6nK+LWmah2extH83pJPl9ifreX6nZKqvOl8v2sTLTnL5XtlNh89EwDAAAoJHPXyjc/+6DMixsIIH3s65Q1bJJ2PVBAz7rAmEEIHKH2TVKv51M1mmecY22yqrZTmlfXjjm9FAByyECnbDrULM2yQ3b7HWDF+lyPbDd8ts1ZI2HXKfVpoq95CcBBMQ0AAKDAzL77m9LcUSelS9v0mjSaVis7embJijLndM55Dc3Sbf/SVy4r1eia5c5InqvkHmmt7pS+sb+MTSuTWWNG8/RLbTt6Gmlgep3M6olkdhRTAEjSYO+3RSpWysoKkbonx3zqqQFdrM9L9Zm24Xt6ndLbYv+R4kftVdZnrEhnbalUtYecU+lr2vUfL9SgL6OjJ7f02ivtbS4t3iAbWqzPybH3WULWNqPrA4Eq6RzQd8SplOYmK2+iAWFUxuh29B9U1DU11fU+R/J6tLMda7d/9mgOCnfIdRTTAAAAclz5AxH7Yv9GqpgV2SG1cdcZmy1r1Qia22v18tkqlzWG67MFa3ZI5AFn7E3b3LUj11OLjIzKqdupHNa0o6Zcarc7xa7jxX9pZY62K3eyqmX7Zxl9vOp1MdIbI+6+6GOs52VkvxTSAOS6kOz7rkjVgqD1+XiPNDfsjvkjQo+0TK8TaRuwP9MWGa4yWWJ9pnY3iVRabXbUxPdH61lXKnXSKgPqs7GnWerLYwtSDfLyu/vtz0n1+PrNuojV2yKltbOkW3+edjd1yqptB+xHjFV2yyP2aM1bYgpxI+xRneuluUdtZ2BkVOfgsu2ytzEmrx79ubU/vp16Xtr/YYX9BxGVI9Izy11oBHIMxTQAAABk1NDQkJ4DgAnk2G75tvyVLLb/+FEui5vqZfdID7I+OSjNco8uks29eatU2nN+hKTvkIye5j53pd0TeMfeaL+vCqmY72y3/Npm+9amTh+N+QNG2cWJ9hiU2tWqSNcirnqalb2zulVW2n/QcNpJw25Xu9DeHVa7Kv3z63aH+kZ7p0WpXLF/sAFyEMU0AAAAAADSTBWTvvPNVVKqT2dUp2zWP697YKmClDN3Fvqkr0PP2oJSdpmetXmNkhx/amhp7TgJ5q6V7qZ62bwtvvwV6hszhPS0Mu9CoLoEgd5foLzeWu6To1bemva9IvqyAIGzOO0fyDSKaQAAAMioKVOm6DkAmCh6ZEttp9z3rQHnVEZ76pbm6IX9ExWgxlUmZdV61ub0VBtPqH3V6Kmh1jTQNn6C8ltaRZbfKU/+TK+wBMtm6TktUWGwqTvm51fTWnHO0J87cvp+pEcyNogOcLYopgEAACCjpk6dqudQaHbt2iUNL/XK7t279ZrE1LWhgAmhd7fUS7NcdaVetqkimD4dc9piqaqul036Qv29T61Ioqea0xNt9FpoW6Suo9K+Npt/TrFvXNNq5eGnRRoau/QKiyoEdkSvpxaSts31Ik2LdZFsVHT05+i13EZHf+6VDcVL4wcduKzM+qmA3BWw/gGLDA8P2wtFRUX2rZdUt1MGBwelpKREL5mRzxv53MhnRj4z8nkjnxv5zMhnlsx+9yyvkWva487RcUlHvlTuNx35lFTtl3xm6cj3mTkflOf++y25+OKL5dOf/rQsWrRI3zNKFd2amprkBz/4gUyePFlWrFghDz30kL531ER8/sjnlky+XTXVGf9cU+3G+zztbSmWBbJX3rjtXXHPnxrxcvryK2RveI3MPdYuS8tWiCpTffypr8qVN/9SFqn1atTOL8yQ/vYaEbt9l1Q83S9tf7pFJn/RWv9vdRKUkLTXTJcVzzjbbdqnB4+xtnlj2c/l7pP3ylXq54jZVtAuYi3QQx00yd59IgsevED6uz4uL1jbOvpptQ3VZrPM6NsuNfpU0eHhN+Tf6mbIJy7fOzo4jtrufD1owo1b7e1PtZ6XN7cvkxk3f93Ou31ZML6d2qf1881Wz/P3N8rkhY1x601jyky04yNb3w+UQnj+lHTlo5g2DvK5kc+MfGbk8+Y33yuNDfK7n/2nXgPkt7e/+z0yu3m9XvI20T5fJlox7ciRIzJz5ky9ZJbq/SaTb6K9/5RU5osWM/71X//VLpCNLar9+Mc/liuvvFKeeOIJqa2tlVAoJA0NDfL73/9ennrqKbtN1ER8/sjnlky+XC2mRfH6upHPTLWjmOaWK/kCEUs2w6h/PIPBxB04yeeNfG7kMyOfWT7kU18Kr76/Xq8B8tuL65tlSUfMqSEeJtrnizrOx3te0pEvlftNJt+ePXtk4cKFesks1ftNJt9Ee/8pqWp36tQpeb72r+Xatn/Ta0S2bNkiDz/8sLz73e+WT33qU/Ltb3/bzn/ffffFbe9P//RP5Tvf+Y5ccsklek38ftWFyb34yRd9/Nk8f1779rtfv8+fEpvvXParpLqdkuvHx87qiox/rql2fj5PFT5f3Mhnptpl6/uBUgjPn5KufFwzDQAAAEBKvPLKK3LjN74l73jHO0ame+65R375y1/Kv//7v8tHP/pR+dnPfiZXXHGFfsSoP//zP5dbbrlFzj///JHp7W9/uz2p+T/8wz+0Twk1TX/8x39sT6b7otMf/MEf2NM73/nOkXmvKbr/6HJxcbFxim7bdF90Ou+880a2o+bHmy666KKReVVMM01qux/60If0MwcAyDSKaQAAAMgoRvMsXHPnzpVvVHxMTp48aU8nTpyQdevW2UW1pUuXSm9vr32K7/79+/UjHGoEP1WIa29vl//5n/8Zmd566y17ii6rAQtMU3R/pvuik+p9oKZjx46NzHtNqoedmqLLp0+fNk7q1FQ1me6LTmfOnBnJr+bHm371q1+NzDujHbon9fOoHp4AgOygmAYAAICMYjTPwqcKPps2bZJp06bJwYMH5Rvf+Ia0tbXJ7NmzZdWqVfLFL35RHn/8cfmv//ov+elPfyo1NTXykY98xL6+GgAAuY5iGgDkoYe7fzruBADjecd7/1zPAamhimg7/uN1+1TFsUW0KFUw27lzp3zzm9+U0tJSufbaa+U973mPXVwDACAfUEwDgDz1yZv+ynMCAD9++9qP9VxmHT9+XM+h0Lz00kvyn7/9v8YiWiy1XrX57//+b/t6aupUUAAA8gXFNAAAAGTU0NCQnkOhmT9/vtw3Z7ZnEQ0AgEJAMQ0A8tSpU7+XkyfVBZKtW/tCyaO3AAAAAID0oJgGAHnqrbdOSmlpUILBC6U0OHqr1gNALmM0TwAAkM8CAwMDETXssjJpUuLamqldIBCwLzQa9f9v737g46jue+//lkhJXHqfNLGvWAW5WAl5YhocguJeJGHXWFwK5E+DJEu1pPDXJS04CYnrJoBlxZUlDImvScg1pMklBBNJroUkkqYFHorAtZHkXseEmDROQyITiWjRyyY3tzXQrmCfOWfOSrs7Z1cra/9opM87r8nOmT0789VoRpZ+nJlRbfUIaCXaL7FPLPW47DPPPNO07MhHPoV8duSb//mO3rJRLrm92SxxqQcMXLnmQtPyenT/s/LZyveb1lx3UvZ+8XK5TtrkxbuukLOcJS8/9gU55/Z+kcsSl4l859Evy3q1wOLQt1bKmvtulv1HbpCLXn5M1l/p7Lc7Hpe9V6T/h7u7DtOIse3Bw3LrCtNIyvu1IN7Td7TJBV93d/BCOH+VdPKp8zy6X5Rc5Uvcro0f9p9Cvnj5zPfcZ246rePKZiHuv3TzqYc8OH/LmSV2C3H//evdO+W1X/7CtAB/O/N975NzP7vJtGZ/fvDvW+byBZxOkYmJCd0oKCjQr8lkup8SCoUkGAyalh35kiOfF/nsyGfnh3xPNtRZi2lr/ttyEfVzPuBMCa/7//mYj4ppCUWwybZ6p2qyeJbYxyZzxbT47aSzbRfFtOmoYtrl3X2mldxC+/mizvPp9ks28mVyu9nIp2Rqu+Szy0a+x+uqc35czSTffPn+FhYWJv2DLyqf+ZS5vP8U8nmRz4t8dgs9X+pSHgBgzjp16jU59eqr5tWZYtp+s2xplfP/98pTR1Xrx/LU5ICGfjk+rl7NsptW6mKWGqX29rKVZvqC7H1Z9Unlx3Kn7vttORTXdqf1j6W+Gbqb75gMq+2oIl3sZ45+W6/jTp09kSquJdmOWU/0PfvngfmJp3kCAAA/o5gGAD51+CcvOtOvzGt0ctt+c9aFVXKV8/qjl06KHD0s25z5bQ9+230d+rHIy7+WHznzVy09Wxehbrl9uew/clheP6L69Mt1ux6TVPW0Q9+6wemnRrlFR76pthppdlhevKNKHrn9rpQFueMj/c7/L5fSGQ41O/Sty+W6J9ztvP7gzc52LjdFs5Oyd1ezPKIuY3Xe23+T83VeGy30AfMfT/MEAAB+RjENAHxIXcI53eQrZ71bPuS8PDLykrz80jFn7mZZu+JsWXaZM/vCr+Xl8V/LI87sh85e7PS9QvYeuUGW6dFpqiiWmipgqUtGtz2YeK+1e2VN2bfl+BVflteP2N6bGjWW3iWeieJH08mKlTqrLhhGPdEs53zxMVl2oyoMznT9AAAAAPKBYhoAYA6IFs4OywNPqQcPvFuWyWJZu7ZK5Il+eWAoWmBzXsxllec8VSUvHnlcvqM+l4Zt350avXbRn7TpkXBTRbPEUWFTo8k0nWeGzGg6ue8GU5RzC3+qYCjO17b+k2bdqqCm3v9i6tF1WNgGtwf0/ZHUpG6M60610jnqvDnaKbXR+aixXmeZ02f7oFlwetR26/eGTMuhtxWQ2q7EZbXSFbv9BGo97mdC0lkfkJ6XvPcxVH2mvrbo11sf/3UlMdReGJ9pRgalPWb/qRzFxcVxWWa7HwEAwPxCMQ0AMAdEC2f3yrYnRK5a+4f65v1nnb3c+f9+2XZftMAmcmjoXuf/b5b96d7g/6Zv60s5VdHqgeh9yfToNjUaLFqMu1fWfOvH+q04K27Ql2Cqz94yzX3VPMxoO7X91/W2zHTjB/Xbat3uMvdy1tPaBhaWbQckHA7rG467U480lpj3Yo12yoayjVI26PTZWmEWnp7Sc2uk7xfHTcsxOiy9dTUiff0yWbrSy2plrS1LEme+Y4mZS9A6MPn1qa915CGRpk2dU9vKlS/8Xcx+HpOOo5UU1AAAwCSKaQCAOcEtnLn05ZyKuTRSO/fdungW9zCAo9+T655Qbyan7rN21hWf1OtxR6eZhwLokWCLZf0md5Savh+bRXQU2yO3f88dvRZzSariFvdsPihrVSHuvsPu5+IeVGAegKALeB+UW80IuMmvGzhtg9K+tEk++IMx2VJuFs1CcHWtVG97SoZMe/CJZmnbtFnKunuk34zkCg0fkZrqKtHPtjq0I25EV3v0g8kMtTv9EkbVxQiuqpaa7mEZVg09Aq7d+QoN9dl6W6HNHf1my6BGsE3mS7s4FpTGXR1S07IzrVFyAABg/qOYBgCYG4rebS69NJdzaubyT8e2cndEl1sY65frrlwpb7/2mFyl3n/i1xIzdsbCFKz06LTFsv6ub8s2Z15fXnml+yCAr12RpJB11hXyNTWybXL02gfletU2l28+5eRN5qIb1cg3cynptffKVXc8Lrfqr83J82ibXBW9BNR5T41gc98DTpe6XLFSjnSOyS0fNotmq6RKqtc9K8O6iBSS4aM1UlpSIVWtvZPL+vt6paw0KDLaJfWrnpWOEXdE11hnjTTvso8qO/XbE24xbFepjCUbYecIHeyT3rpSKTXtdAxuL5amFWaE22CbNFeYYt2hHbL6+T3O9qKjzWZQHHP2Q21d9GsGAAALXSAcDkcmJiZ0o6CgQL8mk+l+yvj4uBQVFZmWHfmSI58X+ezIZ+eHfPuvbpBLbm82SwB/e/qONrm0q9u0kltoP1/UeZ5qv6gRVasnh2m6Wg+G5Tb11ApVxCq9RvrcxVL90Ij8z6oz0v75Mt3345nthXL3e4/Lw3/0T1L/VyL3dDVI8NAOKfzHtRLeIrKj8ClZG75NViZ+varPV5fJiNP/uJN/13tHZN96ka6GpbL/vGZ5ZftbZZPzuegAOtvXKLJNDjgb0X3013l86jNm/ccfqpPjOxbJ196n1n/cybNaJLpvJKS3d/xzYfmrN9pl0decPH/b5I6imzTkfGaXLBveJw0lJsep70v4jivN+8rUetz1Zv64SrefMtfPjycb6qY9rvKZb778fFm0aJG+HDqVfOZT5vL+U8jnRT4v8tkt9HyMTAMAAPCDlqfltdde0388qyla1IlSRbTw8B6Rq5fKPUfMwgy46NJt8j1137SXnOkTa91C1NnLpPr5YQmNDsuz65ZNPqDj0I5Fkw9KKFzVYpZ63X/AybutRZ6Kf/LH5H3hwuER+U6Ns7kHr5ssts1EyyqToXCpXPOwyLPDIZH/9kU5/ok+WWryxT1YYVrH5bizHgAAAOUMVX3L53TGGWdYl8+ViXyzm8g3u4l8s5vmSz5gvrEd54nTQvv5Mt1+eYv6z59nvMX6XkHBWyQgNbLukhIpWHa19A62yV0f/7r8b2vf+Gm67eqp8lJp/Zdfyb7+Fvnwuc421LJll8m6wK9kJPQrCdRcJiVq2Q+/Ipe0tspA9Mb9Tg4JuJlV/sBb3PW9JSDymRv/VK7e0CE/WnXXZM74r7FEmv7HHjnj2mVy12H3fffrPEPeYvqf+NWP9PpVe2r9b3F61Exeahqdej/p5j678WGzbEzWfX+pWbf6TGByvTpHIKDnJyfn6/yRs973nhOzLI/TXD8/0jqu8jjNp98PbMuzPS20n8+Znsg3u4l8s5vIN7spNp/6dQEAAADzRfkW+bsv3CmV1pvznw418qxPeo62SdXkMLGglK44Iv1PiNSujr9o0hWSzl3JL0/XT/MsaZTNrc2ysytJypIGueeh6oT7rjVLv36ggHuvNi/3fm5ND5iHC+iHFrgPIQjtrZfCuCciqPu/mdmUnK9lU5P0tm5Oem83AACwsFBMAwAAmGdWfv7vpK27SYrrO82S2QjK2k+I9Er8gwAqLiuT5haZKkhddL3sWdcilfppmRtFNnVMPYkziYqtA1LWuDH50zzXb9Jfx0ZVcCtplN3qoQYVZv3VbaZXvIqt6uECle4TO5c2iXS6TzYNrr9H9jy/2l0eKJae6t3Ji2Nf/rjp5/bVDzTYWmHeBAAACx3FNAAAgDmuYmtEwqoiZFPSKD2eJ2KulC3qcsZ9jaY9O8H1+/S64saglW+RSGSLTJWYgtLQFTaXUTp5ylUu932Vv6dBfToojfsi0nTOCf0J5x0np5td9fEWrMr11+F+1vl0Q8/U+huc7ZtM5VvCk32i24he4hm7fCpf7PKpDLrl5BgbG5vspycKaQAAIAbFNAAAAOTUyZMnzRwAAID/UEwDAAAAAAAA0kQxDQAAADm1ePFiMwcAAOA/FNMAAACQU0uWLDFzAAAA/hMIh8ORiYkJ3SgoKNCvyWS6nzI+Pi5FRUWmZUe+5MjnRT478tn5Id/+qxvkktubzRLA356+o00u7eo2reQW2s8XdZ5Pt1+ykS+T281GPiVT2yWfXTbyPdlQl/Pjaib55sv3d9GiReL8LWeW2OUznzKX959CPi/yeZHPbqHno5g2DfJ5kc+OfHbkSy7dfEOf/bT8x2+4WTfmh7e9c7GsuvcbppXcQvv5stCKaceOHZPly5ebll2mtzuTfAvt+FMymY9imlc28lFMsyOfF/nsyGdHvuRi8wUijnyGCYVCEgxGH01uR77kyOdFPjvy2fkhn/qj5PLuPrPELhv5Hq+rzvl2Z5KP48/LD/nSOZ6Vhbb/MnmeK+nmy9fPl/3798uaNWtMyy7T251JPs5fr5nk498Pr2zkKywsFOdPObPELp/5lLm8/xTyeZHPi3x2Cz0f90wDAAAAAAAA0kQxDQAAADnF0zwBAICfUUwDAABATvE0TwAA4GcU0wAAABaod573ATMHAACAdFFMAwAAWKB+89OfmLncOnHihJkDAADwH4ppAAAAyKmTJ0+aOQAAAP+hmAYAAAAAAACkKRAOhyMTExO6UVBQoF+TyXQ/ZXx8XIqKikzLjnzJkc+LfHbks/NDvv1XN8ilXd1miV028j3ZUJfz7c4kH8eflx/ypXM8Kwtt/2XyPFfSzZevny/Hjh2T5cuXm5Zdprc7k3ycv14zyce/H17ZyLdo0SJx/pYzS+zymU+Zy/tPIZ8X+bzIZ7fQ8zEyDQD8bLRL6gsL9S/Uaip05tW041D8+/V7Q2aB45/vcvs1dJkFp8lZ93pnm+v3vaybQ+3utuMmZxsxWwYA7V3vepeZAwAA8KGIQ41OU9N0Mt1PGRsbM3PJZXq76fZTyOeVbj+FfF7p9lPI55VuP2W+5Hts3VWmZTHSEalxfpRXPzRitjsW6aiTiEhbZCDm/ZpOd1vhg63OezHvp5Byu4qz7mqzbWWgNXG9A5E2ta26jshImvslG/svk9tNt59CPi/VJ/G4uvvuuyOvv/66aU1ZKPtvdHQ08pnPfCbyqQ+eb5Ykl418057njnS3m418mdxuuv0U8nml20/Jx3GVbj9lvnx/zZ9yKeUzXya3m24/hXxe6fZTyOeVbj+FfF7p9lP8lI+RaQAwrwSlcVOb89os/UPukkmjnVK/qsWZaZWByBapcJdmUYVsGXSydDfJA9GRckCC5ubmaS9T8pOnn35a1q1bJytWrJA//dM/lf3795t34qkb8H/xi1+UpUuX6lGcVecsNe8sDDzNEwAA+BnFNABYEPqlfWmT9Em17Bm+LQeFNKOkVGqcl2eHudgTdm+88UZa96jwgx/84Afy8Y9/XK644grp6uqSyy+/XK666iq9POrUqVPypS99SRfRXn31VTl+/Ljcdddd8ntve5vpsTDwNE8AAOBnFNMAYF4JSeeuZue1TarK3SVKb2OTqKUifXLNg4lD1oD8UTd9nS/FtPb2dtmzZ4/82Z/9mZx//vlyww03yAMPPKCXq6Lhjh07dBHt17/+tTz33HPy9a9/XX7/93/ffBoAAAB+QTENAOaBvqvdS8UCgWJp6q6RjpHEyzjVsogc2ObMblst7dTTkCff/Zdj+lh9+9vfLr/7u7+ri2lnnXWWns4++2xdXHrPe94jlZWVct555+nLJT/0oQ/JypUrpby8XC6++GJZs2aNVFVVyZVXXqlHgqmpurpa6urqZP369fLJT35SrrvuOtmwYYP8+Z//uXzmM5+Rz33uc7Jp0yb5whe+ILfddpts3bpVLrnkEv2q2n/1V38lmzdv1v1uvvlm/Tn1+WuvvVavT61XXb6ptqO219TUJH/8x3+sc/zRH/2RznXo0CH5xCc+Yb5S15/8yZ/o5e9973v1iDSlp6dHfz3q61f7QT08RO2XVAa3ByYf7BEIBMxUK52jzpujnVIbnY8a63WWOX22D5oFszTa5a4vOs1yvYsXLzZzM6P2Q22XGemqv+7E/ZKwHwAAALKAYhoAzAPVD43o+05FIhFn6pHGEvOGUdO5Wy8rv3aPVDvt5op2ydCf2KmNDkuv83JhadBtY8H75B8sl9dee01++9vf6hFab3nLW+TnP/+5HD16VA4fPizPPPOMPPnkk9LR0SF9fX36cskHH3xQ/uZv/ka+9rWvyVe+8hXZvn27vtfaX/7lX8rGjRt14UsVvdQ9ylSxSxXZ1q5dqwtcH/7wh+UDH/iAnHvuuXpU2H/9r/9V3vGOd8jb3vY2vW31qtrqMefqfdVPjSpTn1Ofjxbt1HobGhr0dqKFNlWAU8U4NfJM5VLFwGPH4otiql1SUiJ33HGHLrSpc/RTn/qUPP/88/rx6mo//Pu//7veL9PadiDmPLef69pop2wo2yhlg06frRm4qPvQDiks7ZPakeh2IzIglRKo7zztp/UuWbLEzM1WjewZDk/tl8EyaVpKQQ0AAGSZ84tHxp9ykG4/hadJeKXbTyGfV7r9FPJ5pdtPIZ9Xuv2UdPPN7GmeCRKf5un0GXmoWj8BLLosmdk/zdM8WZSneSaV6e2m20/JV77Y40o9xfNtb3ubacXz4/7bvn175CMf+Ujk5Zdf1u2XXnopcuWVV+rlUc8//3zkxhtvjCxatChy66236vWobU53vunza9sBez59ntdEOvSp6D5F99YfpLf/pn/q4lhkzzqJtB5M3K57frcNOnOdNRFpHTD774DevlquDbbpnwFjOmNbpE3/nHCnyT6K6meW6/7OonB4RG+7ps5Zv+mv9sPkzy7zde8Zjv++6X3l5Enk5jv972+idNeX6X7KXM83/XGV33zz5furzovp5DNfJrebbj+FfF7p9lPI55VuP4V8Xun2U/yUj5FpALDABNdvEvW8z97Gje6CjGqWyuhlYOqSU+mQsX2Nwrg02Myn+6UparScuixVXbKqRrepkWrqVS2PUqPkvvnNb+qReOphBO9+97v1CLuXT71qeszGoLQHKuVI55jc8mGzaLZG+6Xv4VZZe5FpTwpK6Qrna35iUIKra6Xm6LA7Sm10WI7U1YiYh46Eho9ITXWV+RnQLEfOHdMjyL77aae1y4xsU5drVhzRl6I7v6Y6PzWapDjmMtLeFZv1Z7bE3AcylYrLnJ9wTh4AAIBsoZgGAH5W0ig9zh+Z+9YnKVeZ93saYt8vly3qcqhIj2mfJmfd+8LhyW1XbJ26BGxyopCGFM444wy58cYbTWt+uPPOO/Vlm3v37pX/83/+j76800bdQ+2ee+6RkZEReetb3yrf+8UvzTspbFsdd8+0+Hsf9krT0krzoJHcKD1XPavXUVIqZd098pS6tPKl41K2abNIX7+EnP/194nUro7+FKiZnC/5gw36VQkd6JHeulqp0pesBqVxk1sMi15CWnNuqZkDAACYGwJqmNqbb76pG+qX2lRs/dQvc+oPpijVVk+sUqL9EvvEUv9V9swzzzQtO/KRTyGfHfnmf76jt2yUC75+n1lil418z33mppTbLS4uNnPpeemll/Ky/5TY7drk8/urLKR8scfzXMyn5GP/Ddx0o6z6m/vNEu+2f3h3sXws8n156XMf9uYb69X3SJN7n5P7yw/q+eUPvyB/dfH0+ab9+aLX/Sv5i5c+K3+YsP9e7r1BLjh+k4x9fqXOd2D1S3LxP90oIw07RL7UJed8a5UcDB6Ui8dukZV6PSNyk5p3Pv+zvma55NEyee6bNSJ9G+SCm//BXfGkW+X7L/2p/OrPL5TRv5gaaXfY2c59y5yvs7rIZPt7+cjhb0m18+Moul/G1foe/ZiMfVPdIdKV7++vEtsvcdvzLd90/34o7L/Z51OjX52/5cwSO/afHfnIp5DPjnxp5nM6Zfxa0nT7KVyz65VuP4V8Xun2U8jnlW4/hXxe6fZT0s2Xj3vPKNzzxivdfgr5vFSfdI4rZaHtv+n2S/r3THPo+4/dGnP/Qrt0tut8pdPeM01ztln90AGnb6ve7kCrk6fTyRG9d5m5Z1o009GOz0zeGy16z7VE0Xumxd5bjXumueZ6Pv798Eq3n5JuPvOnXEr5zJfJ7abbTyGfV7r9FPJ5pdtPIZ9Xuv0UP+VLXcoDAACAv5Rvkb/7wp1SOYunbU4JSsPnWqVlVX3cEzIHt7v3RNwQvY9ZSanI93ZJnywTdVFmxWVl0tN3RNousz9NdMk7pv6rs77nWsvOyfUPbg+c/pNCh9qlsqVGOq7PwFNMAQAAkqCYBgAAMM+s/PzfSVt3kxTXd5ols3DRbRIerpaepdGHiwSkUgbi74lYUiXV0ifyibXuMlVc6y6TqnQeGqDu7ThYJk1m/ZUtbTKQ9v0We+Wa0sKpe8npBxn0SKO+/xoAAEB2UEwDAACY49QDPsLJHmepHzSSWEBa6T5oZF+jac9SSYN+mEkkOm1NHPkVlIauqQeSuJm2yGSvhPaJc5rii3HlW6bWPdnPXWfsl632w+QDVfQ6nf0SDuvJ/SyFNAAAkH0U0wAAAJBTJ0+eNHMAAAD+QzENAAAAAAAASBPFNAAAAOTU4sWLzRwAAID/UEwDAABATi1ZssTMAQAA+E8gHA5HJiYmdKOgoEC/JpPpfsr4+LgUFRWZlh35kiOfF/nsyGfnh3z7r26QS7u6zRK7bOR7sqEu59udST6OPy8/5EvneFYW2v7L5HmupJsvXz9fOD+85lM+/v3wyka+RYsW6YdvpJLPfMpc3n8K+bzI50U+u4Wej5FpADDHffdfjklhYWHKSf1CrSbbe7FTuv3UdMXDj1iXx06Z3m66/dR09tlnW5fHTpnebrr91EQ+76T6qOMZeOWVV8wcAACA/wQijnxW9kKhkASDkw9GtyJfcuTzIp8d+ez8kE/9F/7Lu/vMErts5Hu8rjrn251JPo4/Lz/kS+d4Vhba/svkea6kmy9fP1/2798va9asMS27TG93Jvk4f71mko9/P7yykU/9RwrnTzmzxC6f+ZS5vP8U8nmRz4t8dgs9HyPTAAAAAAAAgDRRTAMAAEBO8TRPAADgZxTTAAAAkFM8zRMAAPgZ90ybBvm8yGdHPjvyJZduPu6ZZsfx5+WHfNwzzUv1O9K6TX7z05+YJf7yn2+8Id947qh8/L3vkdJ3/D962a7DR+SWsg/JW844Q37976fkb4/9q/zZBz8g/+Wtb9XvY347833vk1V3fNm07ObT+avkIx/3TLMjnxf57MhnR77kYvNRTJsG+bzIZ0c+O/Ill24+iml2HH9efshHMc1rPuRrb2+Xn//85/K//tf/0v3e+ta3yquvvqrnb775ZnnXu94lbW1tprfI888/L+eff75p2S2k/aeQz458dmp9FNPsyOdFPjvy2ZEvudh8XOYJAACAWdm0aZN8//vf10WyWKrA9p3vfEf+8i//0ixxnTx50swBAAD4D8U0AAAAzMqiRYvkc5/7nHz1q1/V7ehomV27dulC2jvf+U7dBgAAmA8C4XA4r5d5jo+PS1FRkWnZkS858nmRz458dn7It//qBrm0q9sssctGPnU5Xq63O5N8HH9efsiXzvGssP+85nq+f/u3f5P3vOc98vTTT8vKlSvl2WeflYsuukhefPFF+b3f+z3Ty3Xs2DFZvny5adkttP1HPjvy2an1qSK287ecWWKXz3zKXN5/Cvm8yOdFPruFno+RaQCA0zQkdzm/yN/1z6ZphPbWS2H7kGkBWCjUH/a33HLL5Oi0e+65Rz7/+c97CmmKuocaAACAX/EAgmmQz4t8duSzI19y6eabuw8gGJTtgUqRg2HZevHU+kJdtVL8wmaJbK0wS/K7/5RMbZd8djPpxwMIvOZTPvXQgXPOOUf+7//9v7q4Njo6ai2msf+8yGdHPju1Ph5AYEc+L/LZkc+OfMnF5mNkGgAgu4ba9S/8agrUd0pILwxJZ31ApgawDUp7oFa6Rp3Z0S6pdeZrnfcDgXbnHefd7WreTNvVEgBz0e/8zu/ohxG8+eabSUelKSdOnDBzAAAA/kMxDQCQPaOdUlvRLK0HwxIOj0iHNElxWsWwXinbFJFIZItUDLVL5dEOGYuo9ph0HN0pnaroBmBOUsW0D3/4w/o1GZ7mCQAA/IxiGgBgVlpWFU6NGnOm4sZe845jdFh66zrk+otUIyiNm9qcD/Tr0Wap1UhpiZmN46xjX480Wt8DkG/t7e1SXFysR54tXbpUtm3bZt4BAACYPyimAQBmRY06U/dsiU5jnTXmHZHQ8BEzZ5SUytS7qZRNFdPKt8hYdY8Um2JdbZd7oSiAueXuu++W/v5++dGPfiTHjx+X559/Xg4ePCh33nmn6TFl8eLFZg4AAMB/KKYBALImWFpm5gw1Us3MxnGWJ5Td4gQbekyxbkxq+4pj7rUGYK74xje+ITt37pT3vOc9ur1s2TJdYLvvvvt0O9aSJUvMHIB0/fVf//XkKHB1H1Il2laTeh8AkBsU0wAA2aNGonU3yQOHVCMknbuaRVqrJPqcz+Yn3As+Qwd67EU2h3o6aPxDB5JdAgogn1588UVZsWKFablUWz3R84033jBLAJyuL33pS5OjwMPhsF4WbatJvQ8AyA2KaQCA7ClplJ7BNn1ftcLCpdIkHTK2VZXSgtK4q0NqWir1f03fKLXS5n7CI9iwWzqOuv0CgWLpqd7NPdOAOUg9dOCxxx4zLdejjz4qF1xwgbzlLW8xS1w8zRMAAPhZIBwORyYmJnSjoKBAvyaT6X7K+Pi4FBUVmZYd+ZIjnxf57Mhn54d8+69ukEu7us0Su2zke7KhLufbnUk+jj8vP+RL53hW2H9ecz1fb2+v3HzzzfLVr35VKisrZWhoSD/RU7XXrVtnermeeeYZufjii03LbqHtP/LZkc9OrW/RokWTI9SSyWc+ZS7vP4V8XuTzIp/dQs9HMW0a5PMinx357MiXXLr5KKbZcfx5+SEfxTSv+ZTv8ccfl3vvvVd+8pOfyHnnnSef/vSn5aMf/ajpMYVimtd8yvfPt98q/zb8C9NCtnz3X47JJ/9guWkhW97x3vfJyrY7TMtuNufvka23y29e+LlpAf72znPfJ2Xb48+X+fTvW2y+QMSRzzChUEiCwaBp2ZEvOfJ5kc+OfHZ+yKeKWpd395kldtnI93hddc63O5N8HH9efsiXzvGssP+8/JRPXdb5n//5n57LO6PUkz7PP/9807LLZr7p8P31mkk+9e/HJbc3mxbgb0/f0Zax34eUxPOX8wXzie18mU//vsXm455pAAAAyDh1n8NkeJonAADwM4ppAAAAAAAAQJoopgEAACCjIpGImbPjaZ4AAMDPKKYBAAAgp06ePGnmsFDcM/CzaScALtv5kTgByC+KaQAAAMi4VPdMw8L0qU9+NOkEIJ7tPIlOAPKPYhoAAAByavHixWYOAADAfyimAQAAIKOmu2caT/NcmF5//T/ktdded15f97wCiOc9T6bOHwD5RzENAAAAGcdlnkj06quvSXFxUILBYNzrq69SHAASqfMi/nw5i/MFmEMCY2NjkTfffFM3zjgjdW3N1k/9ohT7Xx9V+4033tDz0X6JfWKdOnVKzjzzTNOyIx/5FPLZkW/+5zt6y0a54Ov3mSV22cj3r3fvlP/385tNy84P+08hn1e+8sUez3MxnzKX95/ih3y1tbXS29ubNJ/z+6fzR2Gxadkt5P2n+Dnfc5+5SS65vdm0XOqG6VdecqFI7EdUvdW0H93/rHy28v1uY4E49K2Vsib2n/ebvi2v3/hB08Bc8fQdbXG/h832/Eg8fzlfTo97/tws+4/cIBelWIbcsp0v8/Xf34DTKTIxMaEbBQUF+jWZTPdTQqGQrranQr7kyOdFPjvy2fkh35MNdXJ5d59ZYpeNfI/XVed8uzPJx/Hn5Yd86RzPCvvPy0/5Uv0iquzfv1/WrFljWnbZzDcdvr9eM8mn/v2wFQfW/LfznDn7cbH/n48toOLASdn7xcvluidi/+j/sdxZdoNsu6xNXrzrCjlLL8NcoIoDmfp9SEk8f5OfL8tNK2qqmrawzhc7imlzk+18mU//vsXmS13KAwAAAIAMOHXqVTO95nldUI5+T657QmTbg7F/8H9Qbn3wZpEnmuWBoyIvP/YFeXvZF2Tvy+o9VXxb6W1/8TF59Ftq+bdlr+4f28flrkctd/tH31JFB/W5O/XrSrnT2SbmFu95Ep0W2PkyC+5x7j3+p84pd1r/2Mn45V90zo24cw7wopgGAACAnOJpngvT4Z+86Ey/sr4uJIeG7nX+v0qWFbntSUXvlquclx+9dFLOurDKme+XR55Vf+S/JMefUB365fi4enXbV639Q3mXasq9cvzsL8vrR74t25w+133/x3qpHP22nHN7v2x78LD73hPNcs63zHuak6NcvXdYbl1hFmHO4HyZJef4V5dR6+P/0Ta5yjn+bzFFs0Pfio4Mdd578GZ55PbL4wvKTxyTZZvUufFlWc8wUSRBMQ0AAAA5xdM8Fx51Sdp008KyXEoT/0g/693yIeflkZGXnPk/lKsuM/Mv/1p+5PaQbUM/Fjl6WLZJlVx1YbQoHS3MnS3LnM/IC7/WI3Dcot3NslYXyj4oa2+aes8VfQ9zje38SJyQnm3XrpQ7x6+QvUcOy94r1DnzY3lK3dLrppXuyNAVK53zyS1iT7qsStZSRMM0KKYBAAAAQE4dk+HEy8dM0eyqpWc7/79YSs91Xu47LHuf7ZdH5Gb5zh1Vuhi2VxfJYotxlsKcnJThF9TrvbLGXMqmH3bwxK/luFoMzHcrPiHfUcVlhyqoqXNAjz6LFqfvu8Fc5nmDLqbpwjUwAxTTAAAAkFMnTpwwc8DCc1H5zc7/Ry/ZjDH+a3nEefnQ2e6IM7ffMXnkqX49imb92cv1PdWuix1Vk5Qpxom5lG1y4sbsmB+WLa0yc8kslvV3ucf9i6oQ7dh27bflkBkBqp+eG3tu8CRdzBDFNAAAAOTUyZMxl9MAC40ZMbPt2pibm7/8mKy/9l6Ry9rk+uill/rys355RN0fTY1WM5ejKdvKp//D3y3G3StP6XtBqaeFrpS3x90zDfCvs1Rx2Tm+7558eED85ZuxD/E464ovuqPULnu3LIte8nzfYTnkvKh7q02OWgNmgGIaAAAAAOSMO2Jm/039ct2V7uVnb7+yWR5RI2XuukKmrtg0f/RP3h/N3BPN9vACmxU36BE57iVuN8i2y9rkRUbfYL4wx7d6eMDk5Zoxx/hZV3w55hxTDxyoku9scs+vi258XL5zmbkE+tp75ao7HuchHJixQDgcjkxMTOhGQUGBfk0m0/2U8fFxKSpK/a8B+ZIjnxf57Mhn54d8+69ukEu7us0Su2zke7KhLufbnUk+jj8vP+RL53hW2H9efspXWFgozu+Yum1z7NgxWb5cjSpILpv5psP312sm+dS/H5fc3mxagL89fUdbxn4fUhLPX84XzCe282U+/fsWm4+RaQCA0zQkdy1aJHf9s2lm02iX1BfucLY4Nf9D/QYAP3rXu95l5gAAAPwnEHHks7IXCoUkGAyalh35kiOfF/nsyGfnh3zqv1he3t1nlthlI9/jddXTbHdQtgcqRQ6GZevFWd5/o51Su3RYNke2SIWZv35sg3yM4y+OH/Klczwr7D8vP+ULBALi/Iqp2zbsP6/5lE/9+8FIG8wXaqRNpn4PUxLPX84XzCe282U+/fsWm4+RaQCA7Bhq139Qq6mwoUtCemFIOusD0r596r3A9kH9jnZoh748TC3Xfeo7nU8MSvvSJumVZqkMtDst16/6Nph11ErnqFkIwBd4micAAPAzimkAgMxTo8cqjkjHSEQikTHZI9fI0nZ9kabWfLRUxiLOe4NtIi07TTFsUHasapHWg2H9mdKj0f9KWyFbRjqkRtpkQI1M08ua5e9lhx75MtDaK02bVNENgF/wNE8AAOBnFNMAABkXOtAjvXW1UlWiWkFp+FyryPPDkwWvmuoqZ6mjvEra9BLHUL+0rNsj16vnmTvvNm6afMeiRj5a7t78s+KyVP0AAAAAILMopgEAsqO7SYrNpZyFq1pEHj4uw+atslLvvRBCw0fMXDrK5PeLzSwA31m8eLGZAwAA8B+KaQCA7Ggd0JdhqikcDjvTbeYSTbtgaZmZAzDfLVmyxMwBAAD4D8U0AEDGBVfXSs3kvdDUswgKYx5CkER5lbQ+fI08cEg1QtK5iydbAQAAAJh7KKYBAGalZZX79M3opJ8zUNIoPYNl0rTUXbZ6W6sc6Gpw75OWVIXcdrDVrG+jSHXMvdBKSqUs4WmeAPyLp3kCAAA/C4TD4cjExIRuFBQU6NdkMt1PGR8fl6Ii9ybSyZAvOfJ5kc+OfHZ+yLf/6ga5tKvbLLHLRr4nG+pyvt3Yfmo022o5IOEt5XpZIo4/Lz/kS+d4Vth/Xn7KV1hYqC/vTuaZZ56Riy++2LTssplvOnx/vWaST/37ccntjC7G/PD0HW0Z+31ISTx/OV8wn9jOl/n071tsPopp0yCfF/nsyGdHvuTSzbdgimmjXbKu9Br5nmnKuj0ykmI0G8eflx/yUUzzmo/5KKZNWYj5Dt78KfmP3/zGtAB/e9s7F8uqe79hWnazOX8HNv6FvPbKSdMC/G3RuxZL5e7482U+/fsWmy8QceQzTCgUkmAw9YU/5EuOfF7ksyOfnR/yqaLW5d19ZoldNvI9Xled8+3OJB/Hn5cf8qVzPCvsPy8/5VOXd6uHjyTz/PPPy/nnn29adtnMNx2+v14zyZevfz/4+eJFPruZbDeTv4cpifls50um94utX7LzlOPPi3x2tn6zOZ4VP+0/7pkGAACAnOJpngAAwM8opgEAAAAAAABpopgGAACAnOJpngAAwM8opgEAACCnTp7kZtsAAMC/KKYBAAAAAAAAaaKYBgAAgJxavHixmQMAAPAfimkAAADIKZ7mCQAA/CwQDocjExMTulFQUKBfk8l0P2V8fFyKiopMy458yZHPi3x25LPzQ779VzfIpV3dZoldNvI92VCX8+3OJB/Hn5cf8qVzPCvsPy8/5SssLBTnd0zdtmH/ec2nfPn694OfL17ks5vJdjP5e5iSmM92vmR6v9j6JTtPOf68yGdn6zeb41nx0/6jmDYN8nmRz458duRLLt18P7qjVX7705+aJYC/veO882RlS6tpJcfPFy8/5ZuumHbs2DFZvny5adllM990+P56zSRfymLaaJfUl14jfaYZ1XowLLdd5MyY9+WhEdm3Puhu95/vkkVrtoms2yPhrgb3AwlUv2mLHmbd/7H7Wfnep86XofZCWe2sNo6zjRFnG0vyuP84/rzymS+vxbRQd8rzZeLFDll/7nVyhjlftEM7pHBVS9z5Yss3bTEt4VxMdb6YLXvMZD8r+fj+KuSLN5vtLqRimkQcqqCmpulkup8yNjZm5pLL9HbT7aeQzyvdfgr5vNLtp5DPK91+Cvm80u2nkM8r3X4K+bzS7aeQzyvdfkq+85lfMZN6+umnzVxyp7PdVNLtp/D99Uq3n/LYuqvMnMVIR6TGOT6qHxox6xuLdNSJc8y0RQZi3q/pdL/G8MFWfTxNvp+EWlfK7Spm3R+59zndHGhNXO9ApE1tq64jMpLm15vufkm3n8Lx55VuPyXT+aY9rhyzyWdb/+T6Es6HxPMlPLwnUh37/mCb9Xyx5Uv2dU3mS9h27Pniru/A5PkS/xVNsW3XJt1+CueHV7r9lGznS3k8p8FP+497pgEAAADIk6A0bnL+JJdm6R9yl0wa7ZR6NcJGWmUgskUq3KVZVCFbBp0s3U3ywCGzCJhTUp8vtRXNzkxbjs6X8snz5f7ELMACQDENAAAAOcXTPDG9fmlf2iR9Ui17hm/LQWHAKCmVGufl2eGQ2wZ8wT1fep2jt2MkF4U0w5wvRzhfsABRTAMAAEBO8TRPTAlJ5y53NE1VubtE6W1sErVUpE+ueZBhL4BruvOlV5oeGNRzALKLYhoAAACAnOq7eql+UEUgUCxN3bbRNGpZRA6oG55vWy3t1NOwgPU2FjvnSmDa82VAPd+npZLzBcgBimkAAACYlb/+67/WhRG3OBLQy9w//NxJvR/rxIkTZg4LVfVDI/qJr5FIxJl6pLHEvGHUdO7Wy8qv3SPVTru5ol1yMt5mdFh6nZcLS5M9nxDIvZrOMXOupD5fKq7v0Jdd5vp8KeN8wQJEMQ0AAACz8qUvfUkXRqLFEWXqD7+Ifj/WyZMnzRwwjZIGuechXU6TnV3Zvi+TuYSurkOuv8gsAvykpFF2d+pyWk7Plw0xl5wCCwXFNAAAAABzVnD9JlHPL+xt3OguyKhmqZwcRVksTdIhY/sahXE28Ktgw+asny/uSOSlnC9Y0CimAQAAIKd4mucCVtIoPZGI7Fuf5M9v835PQ+z75bJFj3LsMe3TZNZ9f3WRblZsnRo9OTlRGMBcYj0fYpQ0yL5wOOH9ioyeL9F1x54vkyOROV+wgAXGxsYib775pm6ccUbq2pqtn/qvOOqEilLtN954Q89H+yX2iXXq1Ck588wzTcuOfORTyGdHPvIp5LMjH/mU2H6/3LVT/m34F7qN7PnuvxyTT/7BctNCtvyX0vfKezZtNq14+Tx/n/vMTXLB1+8zLbts5Dt6y8bJ7dryFRcXm7n0vPTSS3nZf/z7MbfyxR5XSqbz2c6XXOy/H336L6znaTTfTM+XsbExMzfFD99fhXzxZpMv8Xiez/sv4HSKTExM6EZBQYF+TSbT/ZRQKCTBYOp6NvmSI58X+ezIZ0e+5MjnRT47P+V7vK5aLrm9WbcBv3v6jja5vLvPtOLl8/xV51myXFHZyPdkQ92021X4+exFPjvVL53jajb5bOdLpveLrV+y85Tjz4t8drZ+szmeFT/tv9SlPAAAAAAAAACTKKYBAAAAAAAAaaKYBgAAAAAAAKSJYhoAAFjQ7hn42bQTAAAAEEUxDQAALHif+uRHk04AAABALIppAAAAAAAAQJoopgEAgAXv9df/Q157/XXrKwAAABArEA6HIxMTE7pRUFCgX5PJdD9lfHxcioqKTMuOfMmRz4t8duSzI19y5PMin52f8j3ZUCeX3N6s21HqnmjrPnKxvOc9y8ySKb/85XF5+B+ekc9Wvt8sAeaOp+9ok0u7uk0rXj7PX3WeJcsVlY18+69umHa7Cj+fvchnp/qlc1zNJp/tfMn0frH1S3aecvx5kc/O1m82x7Pip/1HMW0a5PMinx357MiXHPm8yGdHPrvT2W6yYtqVay40La9H9z+7oIpph761Utbcd7PsP3KDXJRi2cyclL1fvFyukzZ58a4r5CxnyaFvfUGG/+TLst5pzH79C9NcLaZdf8EK+e6/HDMtwN8++QfL5YHnjpqW3UzOj8R/3zhfMJ/YzpfZnB82+fz3LTbfGeoD+ZzOOOMM6/K5MpFvdhP5ZjeRb3YT+WY3kW92E/lmN2UrXzKvvvaavPqqM1lekXkvP/YFWXOfaWBWbMd5vif1x1QkEkk5hcNhPdnei51m0u+xdVdZ30ucxsbGrMtjp2zkS6efmsjnndLtp6ZM51PHs+04P90p8d832/kyk3yn2y/Z+cLx553S7aemhZ5vtueLn34/5Z5pAABgwTt16jU59aoz6ddX417hpYphby9b6U5ffExeNstFfix3Rper6Vs/NstjHP22nHN7vzPTL9dduVLujPkP2E99K/rZL8jeqZUCAADMKRTTAADAgnf4Jy/GTL+Ke0UCUwzb9uBhef3It2XbE81yjimaHfrWDfKjOx53lh+WF++oErnvhrhimbbiBvc9qZLvPHpYbl3hLha5V6TcrFMV2r5vKcQBAADMARTTAADAgqbuhzbdtPDcK2tiRpjFXpJ5aOhe5/9vlrW6CPZBWXuT8/LCr/XotItuPCx7r3hJj05zR5/NRJUs07chOVuWXea8mHUCAADMNRTTAAAAkEA9DECNEnOn/apgpp2U4RfU61SxTRfanvi1HNcPGVDLbhBRo9YevFl1nIHlUqqeTAAAADDHUUwDAABAmhZL6bnqNb7Y9rp6CufL/1seeULkqjsej7l0EwAAYP6hmAYAAIC0XVSuRpzdK0/pe6GZBw6oe6ad9W75kLPkkZGXnP8/KXu/qy4HBQAAmH8opgEAACB95gEC2651L+ncdlmbvHjjB503PijXm4cOvL3scrlOquQqZ+mPXjqpPxbrrAvVe+7TPNc/5n0fAABgLguEw+HIxMSEbhQUFOjXZDLdTxkfH5eiIn232aTIlxz5vMhnRz478iVHPi/y2fkp35MNdXLJ7c26Dfjd03e0yaVd3aYVL5/nrzrPkuWKyka+/Vc3TLtdhZ/PXuSzU/3SOa5mk892vmR6v9j6JTtPOf68yGdn6zeb41nx0/5jZBoAAACABWBIdhQWytlf/aFpu0J766Wwfci0ALjc82XHIdOcrdEuqS/c4awVmB8CEUc+K3uhUEiCwaBp2ZEvOfJ5kc+OfHbkS458XuSz81O+x+uqGZmGeUONTLu8u8+04uXz/FXnWbJcUdnIp0ZEpN7uoLQHKqVZPiIdI38vjSXu0lBXrRS/sFkiWyvcBY5s5FPS2X/8++GVz3zTH1ezy2c7XzK9X2z9kp2nU/nc80UGI7Kl3H0vKhf5kuH88JpL+WZzPCt+2n+MTAMAAACwQNTIrV8QadrUKSGzJJEqrhUWFuopEKiVzlG9VDrrA9Le1Sm1gYCzPCC1XSEZao/2a5dB/WnF7av6qIlBb5iXDu2YPMYD9bHnkyrCucsL23fIjsJ69xwaVeeOOU+G2p3PtEu7OU8KnT5d+jwD/INiGgAAAIAFY+n6HdIhTXK/rcjl/JFf3FgmB8JhCTvTQGuvND0wVSZr7hPZHYlIZLBNehuLZdd7R5x+I9JR1yw7u9xywuD2YmlaMSAR06+5opZCAeYXdcnmqhZpG3SO8ciYPp+Kt7vnyeD2SmludY//kfc+Ky16qUV3s8gm9/N71vXJNQ9SdYa/UEwDAAAAsIAUSeMmVeSKHU1mlG9x/rjfItGr2krPrTFzrprqKtEX+JSUSo20yab1qhWU0hVqoTIo/S0ibZeZS0bLN0hHXa8cf8ltAvPCS8elb90e2aBPlKA+n6Sl3zn61fFfIx3Xu8d/cP0madVzNm1SZT6/9hPVegngJxTTAAAAACws5VtkoHVqNNkU9xLN6GWexY29ZrmrrDT1vXyimivM5W+BYmnqFnl2ONlFpYD/hIafNXOGLi47RofliF6QhrpSKTWzgB9RTAMAAACw4FRc3yHSuFHuf8EscIS6NkqTdMiIucxzrDN+ZFp6aqRjRF2+NjXt0yPYgPkhWHqhmTNGh0WXnUtKpUwvAOY/imkAAAAAFp6SRtndKdLcEj/6bMqQ3J8wMm16FVIVe581fdP1gOw45DaBeeHsZVL98DXmvoMh6dzVLNJa5Rz98cd/aO+u5PdMA3yOYhoAAACABSnYsFs66kzDEWzYLG3dTbJUX+b5lFQNtokcHY55UuH0KraOScfRSvcyz6VNIp1jcttF5k3AZ6YuWXYn/XTakgbZd7DVvFesR3OObXXvk1axdUDaWtzj/7NSneKeaYC/BcLhcGRiYkI3CgoK9Gsyme6njI+PS1FRkWnZkS858nmRz458duRLjnxe5LPzU74nG+rkktubdRvwu6fvaJNLu7pNK14+z191niXLFZWNfPuvbph2uwo/n73IZ6f6pXNczSaf7XzJ9H6x9Ut2nmZ0/w20y6I1IgfCUw/1sJnN/rPJxf5LZqHnm83xrPhp/1FMmwb5vMhnRz478iVHPi/y2ZHP7nS2O7DxL+S1V07qNuB3i961WCp3f8O04uXz/KWY5pVuP4V8XvnMRzHNK/l2Q9LVsFSuedg05RPynRf2StM5mfk6FM4Pr7mUb0EV0yKOfIYJhUISDKa+ISf5kiOfF/nsyGdHvuTI50U+Oz/le7yuWi7v7tPtRNnMl4ntZjNfKuSzmwv5cnlczSRfqlxR2cin/oibbrsKx58X+exUv3SOq9nks50vmd4vtn7JzlOOPy/y2dn6zeZ4Vvy0/7hnGgAAAHLqxIkTZg4AAMB/KKYBAAAgp06e5FJbAADgXxTTAAAAAAAAgDRRTAMAAEBOLV682MwBAAD4D8U0AAAA5NSSJUvMHAAAgP9QTAMAAAAAAADSRDENAAAAOcXTPAEAgJ9RTAMAAEBO8TRPAADgZ4GxsbHIm2++qRtnnJG6tmbrFwgEJBKJmJbbfuONN/R8tF9in1inTp2SM88807TsyEc+hXx25COfQj478pFPie333Gdukgu+fp893+jDcuPKT8s/mGVRt/5gTG75sDMz1isbyjaK3Puc3PPHZ7r5fvg1Kf7YnSIf3y1j36xxP2DYtmuj+4316W2rdd9fXSQ/vLtYPvZl0yHqY/9Tnv2bagnmcf9FWfffDL6/P/vZz+T973+/adnlM59fzo9pjytHPvKlyhWVjXy//J9flXM/u2ly2XT7L5V87j/yza18R2/ZGHc8Zzqf7XzJxf77+df+x+T5Eovjj3yzyZd4PM/r/ed0ioTDYT1NJ9P9FFXMm06mt5tuP4V8Xun2U8jnlW4/hXxe6fZTyOeVbj+FfF7p9lPI55VuPyVb+R5bd5V+tQkP74lUO78a1XRGtz0W6agT57eptsiAao50RGrM+zrfYJv6TWvq/QRpb1f1c7YdXbcy0Jq43oFIq9rWuj1OqunN9e/v0aNHzVxymd5uuv0Uv5wf0x5XGdxuuv2UVLmiMr1d1Sed7Sp++f6mkuntpttPWWj5Mnk8K4n5bOufSb7T7Zfs6+L480q3n7LQ883meFb8tP9Sl/IAAAAWrKA0bmpzXpulf8hdMmmsV2ormp2ZNhmIbJEKd2kWVchtB1tFHr5G7k/M4kM8zRMAAPgZxTQAAIAZ6ZevlW2UXqmRjpFcFNKMs5dJtfNyZDjktgEAAJAXFNMAAACsQtK5yx19VlXuLlF6G5vkTndOmh4Y1HOYGZ7mCQAA/IxiGgAAQIzexmJ989lAoFiaum2jz2pk95ExGWh1ZlsqpX0eXHaZazzNEwAA+BnFNAAAgBg1nWP6KU7u1CONJeYNo6Zzt9QUi1Rc3yHq+Z3NFe2Sk/FpLx2XPuelrDTotgEAAJAXFNMAAABOR0mj7O7U5TTZ2ZXt+5iFpOurLSLr9siGmEtO/Wrx4sVmDgAAwH8opgEAAJymYMNmUc/77G3c6C7IqGap1JebupecXiN7ZKSrQebDuDSe5gkAAPwsEA6HIxMTE7pRUFCgX5PJdD9lfHxcioqKTMuOfMmRz4t8duSzI19y5PMin52f8j3ZUCeXdnXrdqJs5svEdrOZLxXy2c2FfLk8rmaSL1WuqGzk2391w7TbVTj+vMhnp/qlc1zNJp/tfMn0frH1S3aecvx5kc/O1m82x7Pip/3HyDQAAIA8W7RokRQWFqacVJ9oP7975ZVXzByQa0Nyz9lnx5xbO5wlALyGZMfkeRIz+e2pO4d2cJ4jOyIONTpNTdPJdD9lbGzMzCWX6e2m208hn1e6/RTyeaXbTyGfV7r9FPJ5pdtPIZ9Xuv0U8nml20/JVr7H1l2lX23SXZ8y03yZ2G66/ZS5/v19+umnzVxymd5uuv0Uv5wfuTyu0u2npMoVlentqj7Tb3cg0ub8+fORe58zbWdfdtZERNqcd+JlI186/RS/HH+pZHq76fZTMp0vk8ezkpjPtv6Z5Dvdfsm+rql87vnSNmia2liko04irQezny+ZGX9/B9us57iS7nbT7acstPMjsd9sjmfFT/uPkWkAAAAA5r/RYTkiNfLR8qlLiNz7HjZLvxq2MtoptYGYp/Me2iGB+k7RjxcZanfma533A+4y3W6XHQ3uaJ1AoFY6R/WnHIPSPnm/Q2fabtY42qXX39lVa95Tn4npG+2n6CxmeWwmIK+CUrpC5Nlh89AddR5MHqcBmRq0FpLO+sDkaLbayYf0uMuj/d3lg7KjsF66zPkTUudH9Lwz/d31uvPFxcXx29LninNu6vWac8U51+r1een0e0L3AjKOYhoAAAByiqd5Ii9KqqS2rlc2lhXH/NFfIVsiEdmSzlNyu0VqRyIS2dfoPgiku1nkc2EJh0ekw1lv0wPqz3j1B3+lHOkcU1cASWSkQ2padk4WCtSDRXpkt35voNX5zNKdUqrWafq5BbnD0r60ScoGneW6X7NUThYXgHwalP4WkQtLnTNAFYcrjkiHOn6d43Sss0aad7nHaahrozStGHDODXV+HJCyxvt1kSu6XJ8bkQGzvELWbuuT4y/pDcjwCyI1Muz8T7dkuLtNqpzzc3B7sTRJhzw35pxbg23SXBFbwO6Vsk1qnVuctQ3KjtJrRB4a0dupcs45IBsopgEAACCneJon8iMojfucP/p/cKvzh7htNM10yqS0xMxqbbL2IvUalKrqGr0kuo2eBvPc3ZJS51OxaqR2tfte6bnOZ1o3S6NaZ2y/Hz7j/PnvFhCUius7pKY7WlwAciv2XAkE3ELxbeq4L2mQnkiPe/w6gqXxR/qUctmii1yJVCHbXb7svdXS8o/qRAw5x3mtbK4+4o4WHeqX5tYqp4+z/Khzxm1qFD2utHyDLmD3HIiWmGumzs3RYXlWWmXTevc80+ePngMyi2IaAAAAgIXjw7eYkTHONNIhR+JGuKRQVyqlZlZz2svMbJy4S98qE8bFJBbkkmmWyug6ljZJrxyR4XQyAhnWZkZIRqfJQrFjcHv0OHemiqkjPdjQIwNSOXmZZ7RgHV0e/czk8lXVUv38sIRG+6XHOcsqSsvkyHBIQsNHpOZcddapEWpuX5d7uemUmPNqdFj6zCyQTRTTAAAAkFMnTpwwc0AOqSJX7H3JFHPpp61QFRp+1szNxKC0VzTHFCAGpM28MyN1HTIWU8CIxIwAAuaEQzuksqVNBqLH6GD8kV6xNTJ5mafEFKzV8ui5Mbm8ZK1Uy3HnPBwWUcWzEmd6oV/6+8SM5CyV0jr9ccMdqWblfLbazALZRDENAAAAOXXy5EkzB+RQeZW0tVTK135o2srQ/dLUHXOJmJiHETh/rD/1vdmPbwl17Zz5HZs+fLG0dTfJ/WbUjr4hOw8hwJwWks5dU0e6GrE29dABxR05lmy5Hml2/rOy01lHmbofmypyS4/zv1qpir6/wjk7d3XKuGqa8zZ6yXQc57PV61pk1153O4MPqJGdQOZRTAMAAACwAKh7NA2IfMx9GqB7aZq6gboZ9VXSKLvVTdQr1FMIPyvyiVb3YzNSIRvMOtT6N8pmfW+n6M3V07NStujLT911FDeKk9F2zykgjy663jm2o5cjbxTZNHVvv4qt6uECxeYyz9Uig+7xG13unn+Vk8uV8v9+ofSahw3o4pkqgVVXOXOuiq1j0iFNcoF6mqce/ZlstGZQGr6yR+TqpXo7O8/tOL3RocA0AuFwODIxMaEbBQUF+jWZTPdTxsfHpaho6vHUNuRLjnxe5LMjnx35kiOfF/ns/JTvyYY6ubQr7sYrk7KZLxPbzWa+VLKR79ixY7J8+XLTsstnPr+cH7k8rmaSL1WuqGzk2391w7TbVfzy/U2FfMllOl86x9Vs8tnOl0zvF1u/ZOcpx58X+exs/WZzPCt+2n+MTAMAAAvGd//l2OQNkROnRYsW6cn2XuJ09tlnW5fHTrHru+LhRzzvR6d0t5tuPzXNNF+qKdP91LRixQrr8tgp09tNt5+a5vr+i+ZTxzMAAMi9QMSRz8peKBSSYNByrXMM8iVHPi/y2ZHPjnzJkc+LfHZ+yvd4XbVc3m2/D1I282Viu9nMlwr57OZCvlweVzPJlypXVDbyqRER021X4fjzIp+d6pfOcTWbfLbzJdP7xdYv2XnK8edFPjtbv9kcz4qf9h8j0wAAAJBTPM0TAAD4GcU0AAAA5BRP8wQAAH5GMQ0AAAAAAABIE8U0AAAA5NTixYvNHAAAgP9QTAMAAEBOLVmyxMwBAAD4D8U0AAAAAAAAIE0U0wAAAJBTPM0TAAD4WSAcDkcmJiZ0o6CgQL8mk+l+yvj4uBQVFZmWHfmSI58X+ezIZ0e+5MjnRT47P+V7sqFOLu3q1u1E2cyXie1mM18q2cj3zDPPyMUXX2xadvnM55fzI5fH1UzypcoVlY18+69umHa7il++v6mQL7lM50vnuJpNPtv5kun9YuuX7Dzl+PMin52t32yOZ8VP+49i2jTI50U+O/LZkS858nmRz458dqez3UwUH5SZ5pt+u4fkK4suETkYltsucpcrob31svQXmyS8pfz08o12SX3pcdkUvk3KE+bXlf5SPv/aF+Vi2/p032ukzzSl5jsy8rdNElTzsevRb7o8+ZL0UyimeZ1Ovkwcz9nIlypXVDby/eiOVlnZ0mqWJOeX728q5Esu0/myXUw70rpNfvPTn5gW4G/vPO8DUtayzbRc+Tx/lUz1U+LyRRyqoKam6WS6nzI2Nmbmksv0dtPtp5DPK91+Cvm80u2nkM8r3X4K+bzS7aeQzyvdfgr5vNLtp2Qr32PrrtKvNumuT5lpvum3eyDS5vxa1jZoFhpjnTURaR3Q86eVb6QjUiNtEb2GhPlqaY0csK1P95vKorZ5YJtEpK4jotcau54YnnxJ+ilHjx41c8ml+/Vmup/il/MjE8dzpvspqXJFZXq7qk8621X88v1NJdPbTbefstDyZfJ4Vvj+eqXbTyGfV7r9FPJ5pdtPic3HPdMAAAD84tAOCQQC7lTfKSGzWGRQ2qPLnan47sNmeZTz/tIm6ZVmqQy0Oy3X8N5685la6Rw1C0eHnX5tUhUznKz82j1S090j/aOW9Qy163UUFhbqqX1ILUzoN9optTHbXfJiR0z+kHTWT2Wv7Zr6qgAAAOYiimkAAAB+oC6bXPWsdIxEJBIZkw5pkuLtqjylilGVcqRzTF1xIJGRDvnIl++bKo5pFbLFWV4jbTIQ2eK0lBbpk3v0ZwZae6VpkylulVc5vVQRLKbAVtIgPZEeaSxJWI8qklUc0ZnC4bCMPFQtzbvUemzbswt1bZSmFQNu9siAlDXeP1l0AwAAmIsopgEAAMwRzRVTI7TUVNzYa94RCR3sk7511VJVolpBadzUJnJ0WEJqfl9Eehr0Hc1ESkrlg+7cNKqlepX7mYrLnHVNqpAtkYiMdYo0LY2OOKtPKM4ZJY2myOY2g6UXujPTOPHbU2Yukdp26uIbAABAvlFMAwAAmCPaBtXorKlprLPGvGM8fI0UR4ttFc0i3cMyrJabSy3dqVLu1J2nc6GUmiKYTbChR2dQI87CBy+UpqVTl2nGGtzublcX3Va1mKWpnfztq2bO3c6AVE7mdy8TBQAAmLsopgEAAPjFtgNxxbaIHsU1KO0VzTGFuAG51XQ/HaGuWu99yy5aK21yRIYTR6cNtUtli7qUM1p0m/5JisorYz83c66KrVPZpSLm8lIAAIA5iGIaAACADwRXVUv1tl2ThSY9IizuIQSuUNfONEem2QVX14o0bowraIX27pJmKUs5ks3pJV1fTTUyrVn69aizkPz80D/pJYr6OuKLd9NtBwAAIL8opgEAAPhBSYPs05dbupdD6hFh+xolKBWyobNm8n5rG2Wz7P74P3hHkZWUSlnsUziTUfdBG6mVHrMddfnm0qsvnHqQQOx6yjdIR52aV/0+K/I59dRPc+lpbD9nnbsnM26U371qauxcxVb10IFivS11iaoMcs80AAAwt1FMAwAAyLtyfdP/LeWmaej7lm2NKS1ddJu5HFJNU0Wn6P3N1NTTUCE13xxz16UfEBDt5z5YQH/OWb4vfJuzVaN8i0R0Yc7Qn3PXpy/fdPpOpYhZj3n4gdtvnzRcpJ76adme05rK2CM11bfEbC/az50S9wEAAMBcExgbG4u8+eabunHGGalra7Z+6r8iql98olT7jTfe0PPRfol9Yp06dUrOPPNM07IjH/kU8tmRj3wK+ezIRz4ltt9zn7lJLvj6fTnPF92ujZ/2X9Rs8zm/f0pxcbFp2eUzn1/Oj5keVzbZyJcqV1Q28h29ZePkdlPlU/vvp988Vz7+093y3DdrpMgsj6W3e+QeOfvjAfm7sVtkpVkeNd63QS549KPy7Deu0p/P5P7zy/GXynzKF3tcKXMtnzKX959Cvnjkmx/5Ak6nyMTEhG4UFBTo12Qy3U8JhUISDE7+d1Ar8iVHPi/y2ZHPjnzJkc+LfHZ+yvd4XbVc3t2n24mymS8T281mvlSykW///v2yZs0a07LLZz6/nB+5PK5mki9Vrqhs5HuyoW7a7SqhZ++VjTt+I2VyREp39Uij5R59eruHdkjhqjOmLnGOoR7UUdxXKyOd9XqEZSb3n1+Ov1TmU750jqt85lPm8v5TyBePfMn5KV/qUh4AAAAAzCPjQ38vUr1BNlSLND2QcAfB0U6pDbj3Ctzxj2ZZ1FC7HrEQCNTK/S+YZerBGw2FUltfq99rNw/Z6Kx37zk4tcylHxxilge2T207dnnx3YfNUgDAXEUxDQAAADm1ePFiMwfkWkgOPipSuzoowYbN0tbSH/NAjkFpX9ok0jmm7xW4VmKeTquKbBXN0jao7u23W0qP9po3XL0rNuvLgtQ9/wa3F0vTigHdjgy2SXNFrXSpB4Ic2iGVRztkTC2PjEnH0Z3uU3OH2uOW7/7pfXFP0wUAzD0U0wAAAJBTS5YsMXNAjo32y9/LR6VKX9pZIVWtzdIfHTk2OixHpE02N7iX8JRfu0dq9JzDea+3rkM26AdkBKVxU5teHFVzbqmZG5T+FpG2y8yFofqJt71y/CW3OcVZxz7bJaZBqfnm/dZLTwEAcwfFNAAAAAALQuhAj/zD322UYnNJZWWLSPMTZmyaKpi5cx6h4SNmzq6sNP4eP80V0cs2i6WpW+TZ4ZB+Gu9Ydc/ktmu7nGVK+Za45Rv6xt3lAIA5i2IaAAAAcurEiRNmDsilQbm/sVdu/cGYewmmngakrcVcbllSOjUSLUGwtMzMpaNGOkai63enfevdYluwoccsG5PavuLJ+6nFLv/ooxfE3WcNADD3UEwDAABATp08edLMATk01C/N0iYXf9i0tVIpreuVngMhkZIqqa1rlp1mxNjQg9dMjVQrr5K27ia5P/qAgV3NerGXunS0d+rBBuaBBjsOOZ/aWx/30AFVdCstcZZ31SYs/4heDgCYuyimAQAAAJj3Bp9oFmmtkpWm7QpKVXWN9DbeL4PqPma7OkQai/XTPHe9d49M3RmtQrbohwm4l24OV3ckHcVWsVU9XKDSvczTPNDgtoucLa2/Z2q5s46e6t363mjBht1xy//+yh3cMw0A5rhAOByOTExM6EZBQYF+TSbT/ZTx8XEpKioyLTvyJUc+L/LZkc+OfMmRz4t8dn7K92RDnVza1a3bibKZLxPbzWa+VLKR79ixY7J8+XLTsstnPr+cH7k8rmaSL1WuqGzk2391w7TbVfzy/U2FfMllOl86x1U+8ylzef8p5ItHvuT8lI+RaQAAAFn2zvM+YOagvOtd7zJzAAAA/hOIOPJZ2QuFQhIMxj/9JhH5kiOfF/nsyGdHvuTI50U+Oz/le7yuWi7v7tPtRNnMl4ntZjNfKuSzmwv5cnlczSRfqlxR2cinRsRNt12F48+LfHaqXzrHVT7zKXN5/ynki0e+5PyUj5FpAAAAyCme5gkAAPyMYhoAAAByiqd5AgAAP6OYBgAAAAAAAKSJYhoAAAByavHixWYOAADAfyimAQAAIKeWLFli5gAAAPyHYhoAAAAAAACQJoppAAAAyCme5gkAAPwsEA6HIxMTE7pRUFCgX5PJdD9lfHxcioqKTMuOfMmRz4t8duSzI19y5PMin52f8j3ZUCeXdnXrdqJs5svEdrOZL5Vs5HvmmWfk4osvNi27fObzy/mRy+NqJvlS5YrKRr79VzdMu13FL9/fVMiXXKbzpXNc5TOfMpf3n0K+eORLzk/5GJkGAACQZy/vWy+FDV0SMu2o0N566/LTdmjH7NY32iX1hTtkSDdC0tVQKDsO6QaQd+847zwzBwBAdgUijnxW9kKhkASDQdOyI19y5PMinx357MiXHPm8yGfnp3yP11XL5d19up0om/mm3e5ol/xp6SNSO9IjjSXmDQlJZ32x9FSPSU9DMKv5UonrN9optUuHZXNki1TopVNmku/555+X888/37TsTitfCjPJ55fzIxPHczbypcoVlY18akTcdNtV/PL9TYV8yWU6XzrHVT7zKXN5/ynki0e+5PyUj5FpAAAA+VayVmrreqXnQMyYsdF+6emukdrVzi9tQ+1SWFiop0AgIO3u0DCXKnA5y9TyQH3n1Kgz23JnPdH5ofZCqW/fYf+sDEq7Wa63qzfoLFvaJL3SLJWBdqelin0xWdSoN5Mvdl2D2wNSu709bjtv8jRPAADgYxTTAAAA8i4oVdU10tvXP1mECh3okd7WzdIonVJbcUT2DIclHA7LWGeNNO+KFqtUgatHakciEolEZGBFk2zsUu8cTrI8Xt82kc3O+5GRDqnpbpL7dWFMFckq5UjnmP5seHiPVG/bJZ2jFbJF9ZM2GUgcmTbaKfWrWqT1YNj5zJh0SJMUbx80b4r0tsRvp+uH5g0AAAAfopgGAAAwBwRX10pN97AM61ZI+vt6pe2yCpGSRumJ9EiDufwzWFrmzihD/dJcVytV5r2KrRF9Saj88Bn78kTb1rpFsZIqqa3TSxxBadwX07+kVC5055IbHZa+dXvk+otUw/n8pjaRln6ZLKe1VsVt59RveZonAADwL4ppAAAAc4EuNDVLvxodNnS/NHW3SVW5+5a6VHLyMs+KZnehIzR8xMzFG//Vj81catXvXWbmEqjLQScv81wtLWZxMp4cJaVSY2aVmnNLzZzr1d+eNHMAAAD+QzENAABgTghK6QqR5icGZfCJZqnp3OCO5hpql8qWNjkQdi/zjAy26d5K3Ci1GEW//0EzdzoGpb2iWdoG3UtEw+ED0mreScaTY3RYes0sAADAfEMxDQAAYI6ouExdHlkplS3mwQMeIencNTUyTY8A6+6R/lG3qUawBdS9yt691L78NIT27pp2ZJrKUf3wNfLAIdUwGaOXdlr8zjsWmzkAAAD/oZgGAAAwV5RXiR53FnO/MynfIB11zbJaX+b5WZFN6ib+5t5q6n5qg2XStNS9JLPyaIeMba0QKa6xL09LhWxQDzmocD/7Wdkke9b1ybAqzJWUStnk0zxjODn2HWyVllXqaZ7F0iSpt3fmO3iaJwAA8K9AOByOTExM6EZBQYF+TSbT/ZTx8XEpKioyLTvyJUc+L/LZkc+OfMmRz4t8dn7K92RDnVza1a3bibKZLxPbzWa+VMhnNxfy5fK4mkm+VLmispFv/9UN025X4fjzIp+d6pfOcZXPfMpc3n8K+eKRLzk/5WNkGgAAAHLqlVdeMXMAAAD+E4g48lnZC4VCEgza7gkyhXzJkc+LfHbksyNfcuTzIp+dn/I9Xlctl3f36XaibObLxHazmS+VbOTbv3+/rFmzxrTs8pnPL+dHLo+rmeRLlSsqG/nUiLjU2x2U9kClxNx10NU6IBF1WfJop9QuHZbNkS3yh1nIp0z209tqEukck56GqWNN3d+wbclz8vc3pX6ISFrbdbZRs/QXsil8m6zK0Neh+OX8SGUm253+uMpvPmUu7z+FfPHIl5yf8jEyDQAAAMCCcesPxvSTat1pTDqOVkr7kHkzx3ob74+//yAAwBcopgEAACCnFi/maZ6YK4JSukLkyHDItEWGu2qlUD/wo146zRNxtaF2/VAOPdV3ivuJkHQ1FEr79pj3Yp+cq0agOcvc9e1IKJy1SVtrs1Ran7Qbks76QEyRT42qq3XzOOusd9bVtbfebFMtV+9btu8YjutnFioxX09hQ5f5etzRcbX1tXp5bdfUfgEATKGYBgAAgJxasoSneWKuGJT+FpGy0uhlRc3SI7slHA7LgW190rTJFM1UUayiWdoGzWg2aZLimKJV89FSGVMj3QbbRFp2mqLVoLQvbZIy5zPu+lqkcrII56raOiBtk/1nokX65B49um6gtVealu6U0hFn+yMdUhO3vha55hebdL+xTkn4eo5Ih/qM8/XskWtkaczwvF6p1V9P7CWoAIApFNMAAAAALBh3fqx4ckRWIFApRzrHZEu5eVNqpHa1W0Aq/++t+lUbHZbeug7ZoPsFpXGTKpr1S7T8VFNd5Sx1lFeJ845rqF+anVaVWXf5tXukpntYht2mUSEbYotcaauW6lVuztJza0RaN0tjidMoKZUyvTSqWvZc6wYINmyWtu4e6R8VCR3ocb6eWqlSn3GSN3zO+VqfH57KsKLU/XoAAFYU0wAAAJBTJ06cMHNA7sXfMy1x9FWZlOoCU7zQ8BEzZ5SUSo2ZVaZGtiVqlkp1GaW6zLP0GumVIzKcMAot2LBbj3S7f0b3bbvQmtMrRb/uJik2RcXCVS0iDx+fLPTVnFtq5gAANhTTAAAAkFMnT540c4A/BEvjx3vpkWpmNqW6Dn25pLrMU02RSI87giyOO9KtuaJd+s0SD2d7CeW8ND07VbxLXId6iqkpKLr5bpMK8xYAIDWKaQAAAACQihqJ1h0dPRaSzl3NIq1VMnl1qI265HPyM86n9IMA2u1P7yzfIgOtzdLcYtpG8xNub31Zpp6bqT7pO+hevBl7aWdwdW3cvdWG2gvjHkIAAEiNYhoAAAByiqd5wndKGqVnUI0eU5dFFkuTdMjY1unGcVXIlpEOOeJ8Rl3mufRqkY6RLUlHf1WohxGYeT1abZd6mEClvgxzo9TGvDcTrVItn9XrKG4sk4F9je690PTXUyZNS93LPFdva5UDXQ3cJw0A0hQYGxuLvPnmm7pxxhmpa2u2fuqHrxoaHKXab7zxhp6P9kvsE+vUqVNy5plnmpYd+cinkM+OfORTyGdHPvIpsf2e+8xNcsHX78t5vhfu2SXnfnaTbify0/6LIt/cyBc9nm3ymS9Vrqhs5Dt6y8bJ7abKx/FHvpnkiz2ulLmWT5nL+08hXzzyzY98AadTZGJiQjcKCgr0azKZ7qeEQiEJBlP/NxDyJUc+L/LZkc+OfMmRz4t8dn7K93hdtVze3afbibKZLxPbzWa+VMhnNxfy5fK4mkm+VLmispHvyYa6abercPx5kc9O9UvnuMpnPmUu7z+FfPHIl5yf8qUu5QEAAAAZxtM8AQCAn1FMAwAAQE7xNE8AAOBnFNMAAAAAAACANFFMAwAAQE7xNE8AAOBnFNMAAACQU0uWLDFzAAAA/kMxDQAAAAAAAEgTxTQAAADkFE/zBAAAfhYIh8ORiYkJ3SgoKNCvyWS6nzI+Pi5FRUWmZUe+5MjnRT478tmRLznyeZHPzk/5nmyok0u7unU7UTbzZWK72cyXSjbyPfPMM3LxxRebll0+8/nl/MjlcTWTfKlyRWUj3/6rG6bdruKX728q5Esu0/nSOa7ymU+Zy/tPIV888iXnp3yMTAMAAJhDhtoLpbChS0KmbXVohxQW7pCh6Lzprz5bv9d8MmZ5ZoWkq6FQdhxS80Oyo9DJ266TTArtrfcss4nLC8zSO847z8wBAJBdgYgjn5W9UCgkwWDQtOzIlxz5vMhnRz478iVHPi/y2fkp3+N11XJ5d59uJ8pmvrS3O9optZuGpUyOSOmuHmks0W9pcf2G2iVQITIQ2SLOy6TB7QHZee6Y7F4rWfz+hqSzvliGN0VkS/mgtAcqpVlqZM/w30qDk1f1C3XVSvELmyWyNTbdlOeff17OP//8ybw9Dd6sp5/PLt1+il/Oj0wcz9nIlypXVDbyqRFx021XWag//1Ihn53ql85xlc98ylzefwr54pEvOT/lY2QaAADAHBE60CNSvUE2VIs0PTBolhqjXVJfWCiBQEDanzDLFFVYq++UH3fVSmWLSG9jsWzoG59c7o77UgWwgP6s/nx00JizztpAu7Rvt7znUEWxQjXyTG+3VjpHzRtxaqStVeSav0oxCk5lMetXmd5cskSvO5q3tst8MqZf3Kg6VWSMfj5pDgAAgNygmAYAADAnhKS/T6R2dVCCDZulraVfpsppg7Kj9BqRh0YkEolIlTSb5VOKGnpkoFWkpnNM7q+Ov9/I4PZiaZIOGXM+Gxlsk+aKWumaLEg1y5Fzx/R61eebd5kC3FC7FDeWyYFwWMLONNDa6y3wGaXX75Y9co08oC/9TKAKYRXN0jbobDsy5qRokgvuPux8jVN59cg03e+IdIy4/dT6lurKXkg6NzVJmf68yl+WNAcAAEAuUEwDAACYC0b7pUdqpUpf2lkhVa3N0j85gmxYnpVW2bTevbSg4voOqdFz6QjJ8FGRtk2Noj9dvkE66nql72B03FeNLuApFZe16VetfItEIluk3DRLz021xaA0fK5VWlbtiCkAGk723roO2aBXFJTGTc42vvz/efqpUXm9ddGv312fPD88NTotSuVKcvkoAABALlBMAwAAmAN0Mam7SYrN5YzqEsjmJ0zJaXRYpr8TVDLDMhz3ILqglK4ws1qZlMbcm22Ke2lo9DLP4sZeszyJi26TA9taZGf0kk0jNHzEzBklpfJH8qppJIj5+gtXOTvg4eNO+qA07hsQqYhe5tnuLdgBAADkEMU0AACAvBuS+xt7zaWQ0WlA2lp2uvcHKymVarfjaSiV0jozq7kj1aYT6tqoLw0dMZd5jnVOPxau/No9Io0b5f4XzAJHsLTMzBmjw/JPZtajdWDy61fbDIdvMw9YqJAt0f0yKFJZ36mXAgAA5APFNAAAgHw79JQ0S5tURa+p1FQRrFd6DoRESqqkel2L7NrrjvoafKBJphknFsMdiTZ1L7T7pam7RqpXuZd2psct9k2rpEF2dzrbaonpW1IqNd1Ncr++ZDUknbuaRT69Nu4ppEpwda3URIuHjqH2QvMQAvXE0ISHDqwoNTMAAAC5RzENAAAgz4b+sUWktSqhwBSUquoa6W28XwbVPcS+skfk6qX6Used53ZIzN3NJqn7mk0+zTNGxVb3xv/6Ekr9MIAeabBe2jlFPwShu0mW6ss8n5KqQWeLRy33MEsQbNgtHbEj4UoapUc/9EBdouk+COG5LZfqt6J59dM8db8yaVrqXs65elurHOhqcL7yCtkSszzg7KQB7pkGAADyKBAOhyMTExO6UVBQoF+TyXQ/ZXx8XIqK4p84lYh8yZHPi3x25LMjX3Lk8yKfnZ/yPdlQJ5d2xd1AbFI282Viu9nMlwr57OZCvlweVzPJlypXVDby7b+6YdrtKhx/XuSzU/3SOa7ymU+Zy/tPIV888iXnp3yMTAMAAEBOvfLKK2YOAADAfwIRRz4re6FQSILB1PfsIF9y5PMinx357MiXHPm8yGfnp3yP11XL5d3252JmM18mtpvNfKlkI9/+/ebbkJAAAARuSURBVPtlzZo1pmWXz3x+OT9yeVzNJF+qXFHZyKdGxKXerrr/XqU0m9aUGukY6ZHGmEufTzvfULsEdpXK2L4q6a8vluFNEdlSnv76FL8cf6nMp3zTH1f5zafM5f2nkC8e+ZLzUz5GpgEAAABYMG79wdjkU2PdKb6QNivlWySyr1FS/ykIAPA7imkAAADIqcWLF5s5YA4Z7ZTaQLt0dtVKoX7wRr10jqrRbObhF9sHTUeHGoHmLHP7FUq7flqtWV5vnpwLAJi3KKYBAAAgp5YsWWLmgLmmWXpkt4TDYTmwrU+alu6U0pGIREY6pKZlp3SOOl1U0a3iiHQ4y1W/kYeqpXkXBTQAWEgopgEAAABYMO78WLE70iw6xY0kq5Ha1e5FmsveWy3Sutm9BLSkVMr0UkdJo/TEXBoaLL3QnQEALBgU0wAAAJBTJ06cMHNA7nnumRZ3j7MyKU3j/mmD291CnL7Mc1WLWQoAWCgopgEAACCnTp48aeYAHxpql8qWNhmIuJd5hg+2mjcAAAsFxTQAAAAAOC0h6foqI9MAYKEJhMPhyMTEhG4UFBTo12Qy3U8ZHx+XoqIi07IjX3Lk8yKfHfnsyJcc+bzIZ+enfE821MmlXd26nSib+TKx3WzmSyUb+Y4dOybLly83Lbt85vPL+ZHL42om+VLlispGvv1XN0yz3SHZUbhabKWv1oNhue3sLqkvPS6bwrfJSmd9L+9bL8uGN0t4S7nTQ312l9PeJw0lIelqWCrXPKw++Qn5zv5q+d6aX+nPlR/aIYVfXSYjXWvlKafP8c85671oZvvPL8dfKvMp3/THVX7zKXN5/ynki0e+5PyUj2LaNMjnRT478tmRLznyeZHPjnx2p7PdI63b5Dc//YluA373zvM+IGUt20wrXj7P37lbTHPx89mLfHaqH8U0L/IlRz6v+ZovEHHkM0woFJJgcOqWnzbkS458XuSzI58d+ZIjnxf57MhnR77kyOc1n/I9Xlctl3f3mZZdNvKpIt5021X4/nqRz071S+e4ymc+ZS7vP4V88ciXnJ/ycc80AAAA5BRP8wQAAH5GMQ0AAAA5xdM8AQCAn1FMAwAAAAAAANJEMQ0AAAA5tXjxYjMHAADgPxTTAAAAkFNLliwxcwAAAP5DMQ0AAAAAAABIE8U0AAAA5BRP8wQAAH5GMQ0AAAA5xdM8AQCAnwXGxsYib775pm6ccUbq2pqtXyAQkEgkYlpu+4033tDz0X6JfWKdOnVKzjzzTNOyIx/5FPLZkY98CvnsyEc+hXx2+cz3s5/9TN7//veblh37z7/5/vXunfLaL39hWoC/nfm+98m5n91kWrM/P/j5Qj7yzY98AadTZGJiQjcKCgr0azKZ7qeEQiEJBoOmZUe+5MjnRT478tmRLznyeZHPjnx25Evu+eefl/PPP9+07PKZj++vF/nsyGdHvuTI50U+O/LZzZV8qUt5AAAAQIbxNE8AAOBnFNMAAAAAAACANFFMAwAAQE7xNE8AAOBfIv8/niyiUaN3DKMAAAAASUVORK5CYII=;" vertex="1" parent="1">
          <mxGeometry x="-530" y="-19" width="1235" height="771" as="geometry" />
        </mxCell>
        <mxCell id="0tO4ifJpbV5qPvzmkiWj-1" value="DailyActivity" style="swimlane;fontStyle=1;align=center;verticalAlign=top;childLayout=stackLayout;horizontal=1;startSize=26;horizontalStack=0;resizeParent=1;resizeParentMax=0;resizeLast=0;collapsible=1;marginBottom=0;whiteSpace=wrap;html=1;fillColor=#f8cecc;strokeColor=#b85450;" vertex="1" parent="1">
          <mxGeometry x="1910" y="490" width="160" height="138" as="geometry" />
        </mxCell>
        <mxCell id="0tO4ifJpbV5qPvzmkiWj-2" value="+ Data: DateTime" style="text;strokeColor=none;fillColor=none;align=left;verticalAlign=top;spacingLeft=4;spacingRight=4;overflow=hidden;rotatable=0;points=[[0,0.5],[1,0.5]];portConstraint=eastwest;whiteSpace=wrap;html=1;" vertex="1" parent="0tO4ifJpbV5qPvzmkiWj-1">
          <mxGeometry y="26" width="160" height="26" as="geometry" />
        </mxCell>
        <mxCell id="0tO4ifJpbV5qPvzmkiWj-6" value="+ Hour: string" style="text;strokeColor=none;fillColor=none;align=left;verticalAlign=top;spacingLeft=4;spacingRight=4;overflow=hidden;rotatable=0;points=[[0,0.5],[1,0.5]];portConstraint=eastwest;whiteSpace=wrap;html=1;" vertex="1" parent="0tO4ifJpbV5qPvzmkiWj-1">
          <mxGeometry y="52" width="160" height="26" as="geometry" />
        </mxCell>
        <mxCell id="0tO4ifJpbV5qPvzmkiWj-7" value="+ AditionalNotes: string" style="text;strokeColor=none;fillColor=none;align=left;verticalAlign=top;spacingLeft=4;spacingRight=4;overflow=hidden;rotatable=0;points=[[0,0.5],[1,0.5]];portConstraint=eastwest;whiteSpace=wrap;html=1;" vertex="1" parent="0tO4ifJpbV5qPvzmkiWj-1">
          <mxGeometry y="78" width="160" height="26" as="geometry" />
        </mxCell>
        <mxCell id="0tO4ifJpbV5qPvzmkiWj-8" value="+ Animal: Animal" style="text;strokeColor=none;fillColor=none;align=left;verticalAlign=top;spacingLeft=4;spacingRight=4;overflow=hidden;rotatable=0;points=[[0,0.5],[1,0.5]];portConstraint=eastwest;whiteSpace=wrap;html=1;" vertex="1" parent="0tO4ifJpbV5qPvzmkiWj-1">
          <mxGeometry y="104" width="160" height="26" as="geometry" />
        </mxCell>
        <mxCell id="0tO4ifJpbV5qPvzmkiWj-3" value="" style="line;strokeWidth=1;fillColor=none;align=left;verticalAlign=middle;spacingTop=-1;spacingLeft=3;spacingRight=3;rotatable=0;labelPosition=right;points=[];portConstraint=eastwest;strokeColor=inherit;" vertex="1" parent="0tO4ifJpbV5qPvzmkiWj-1">
          <mxGeometry y="130" width="160" height="8" as="geometry" />
        </mxCell>
        <mxCell id="0tO4ifJpbV5qPvzmkiWj-9" value="Details" style="swimlane;fontStyle=1;align=center;verticalAlign=top;childLayout=stackLayout;horizontal=1;startSize=26;horizontalStack=0;resizeParent=1;resizeParentMax=0;resizeLast=0;collapsible=1;marginBottom=0;whiteSpace=wrap;html=1;fillColor=#f8cecc;strokeColor=#b85450;" vertex="1" parent="1">
          <mxGeometry x="2170" y="640" width="160" height="112" as="geometry" />
        </mxCell>
        <mxCell id="0tO4ifJpbV5qPvzmkiWj-10" value="+ ID: int" style="text;strokeColor=none;fillColor=none;align=left;verticalAlign=top;spacingLeft=4;spacingRight=4;overflow=hidden;rotatable=0;points=[[0,0.5],[1,0.5]];portConstraint=eastwest;whiteSpace=wrap;html=1;" vertex="1" parent="0tO4ifJpbV5qPvzmkiWj-9">
          <mxGeometry y="26" width="160" height="26" as="geometry" />
        </mxCell>
        <mxCell id="0tO4ifJpbV5qPvzmkiWj-13" value="+ Breed: string" style="text;strokeColor=none;fillColor=none;align=left;verticalAlign=top;spacingLeft=4;spacingRight=4;overflow=hidden;rotatable=0;points=[[0,0.5],[1,0.5]];portConstraint=eastwest;whiteSpace=wrap;html=1;" vertex="1" parent="0tO4ifJpbV5qPvzmkiWj-9">
          <mxGeometry y="52" width="160" height="26" as="geometry" />
        </mxCell>
        <mxCell id="0tO4ifJpbV5qPvzmkiWj-14" value="+ Color: string" style="text;strokeColor=none;fillColor=none;align=left;verticalAlign=top;spacingLeft=4;spacingRight=4;overflow=hidden;rotatable=0;points=[[0,0.5],[1,0.5]];portConstraint=eastwest;whiteSpace=wrap;html=1;" vertex="1" parent="0tO4ifJpbV5qPvzmkiWj-9">
          <mxGeometry y="78" width="160" height="26" as="geometry" />
        </mxCell>
        <mxCell id="0tO4ifJpbV5qPvzmkiWj-11" value="" style="line;strokeWidth=1;fillColor=none;align=left;verticalAlign=middle;spacingTop=-1;spacingLeft=3;spacingRight=3;rotatable=0;labelPosition=right;points=[];portConstraint=eastwest;strokeColor=inherit;" vertex="1" parent="0tO4ifJpbV5qPvzmkiWj-9">
          <mxGeometry y="104" width="160" height="8" as="geometry" />
        </mxCell>
        <mxCell id="0tO4ifJpbV5qPvzmkiWj-15" value="Animal" style="swimlane;fontStyle=1;align=center;verticalAlign=top;childLayout=stackLayout;horizontal=1;startSize=26;horizontalStack=0;resizeParent=1;resizeParentMax=0;resizeLast=0;collapsible=1;marginBottom=0;whiteSpace=wrap;html=1;fillColor=#f8cecc;strokeColor=#b85450;" vertex="1" parent="1">
          <mxGeometry x="1910" y="690" width="190" height="216" as="geometry" />
        </mxCell>
        <mxCell id="0tO4ifJpbV5qPvzmkiWj-16" value="+ ID: int" style="text;strokeColor=none;fillColor=none;align=left;verticalAlign=top;spacingLeft=4;spacingRight=4;overflow=hidden;rotatable=0;points=[[0,0.5],[1,0.5]];portConstraint=eastwest;whiteSpace=wrap;html=1;" vertex="1" parent="0tO4ifJpbV5qPvzmkiWj-15">
          <mxGeometry y="26" width="190" height="26" as="geometry" />
        </mxCell>
        <mxCell id="0tO4ifJpbV5qPvzmkiWj-19" value="+ Name: string" style="text;strokeColor=none;fillColor=none;align=left;verticalAlign=top;spacingLeft=4;spacingRight=4;overflow=hidden;rotatable=0;points=[[0,0.5],[1,0.5]];portConstraint=eastwest;whiteSpace=wrap;html=1;" vertex="1" parent="0tO4ifJpbV5qPvzmkiWj-15">
          <mxGeometry y="52" width="190" height="26" as="geometry" />
        </mxCell>
        <mxCell id="0tO4ifJpbV5qPvzmkiWj-21" value="+ Details: Details" style="text;strokeColor=none;fillColor=none;align=left;verticalAlign=top;spacingLeft=4;spacingRight=4;overflow=hidden;rotatable=0;points=[[0,0.5],[1,0.5]];portConstraint=eastwest;whiteSpace=wrap;html=1;" vertex="1" parent="0tO4ifJpbV5qPvzmkiWj-15">
          <mxGeometry y="78" width="190" height="26" as="geometry" />
        </mxCell>
        <mxCell id="0tO4ifJpbV5qPvzmkiWj-24" value="+ FeedingRules: FeedingRules" style="text;strokeColor=none;fillColor=none;align=left;verticalAlign=top;spacingLeft=4;spacingRight=4;overflow=hidden;rotatable=0;points=[[0,0.5],[1,0.5]];portConstraint=eastwest;whiteSpace=wrap;html=1;" vertex="1" parent="0tO4ifJpbV5qPvzmkiWj-15">
          <mxGeometry y="104" width="190" height="26" as="geometry" />
        </mxCell>
        <mxCell id="0tO4ifJpbV5qPvzmkiWj-23" value="+ Health: Health" style="text;strokeColor=none;fillColor=none;align=left;verticalAlign=top;spacingLeft=4;spacingRight=4;overflow=hidden;rotatable=0;points=[[0,0.5],[1,0.5]];portConstraint=eastwest;whiteSpace=wrap;html=1;" vertex="1" parent="0tO4ifJpbV5qPvzmkiWj-15">
          <mxGeometry y="130" width="190" height="26" as="geometry" />
        </mxCell>
        <mxCell id="0tO4ifJpbV5qPvzmkiWj-22" value="+ WalkRules: WalkRules" style="text;strokeColor=none;fillColor=none;align=left;verticalAlign=top;spacingLeft=4;spacingRight=4;overflow=hidden;rotatable=0;points=[[0,0.5],[1,0.5]];portConstraint=eastwest;whiteSpace=wrap;html=1;" vertex="1" parent="0tO4ifJpbV5qPvzmkiWj-15">
          <mxGeometry y="156" width="190" height="26" as="geometry" />
        </mxCell>
        <mxCell id="0tO4ifJpbV5qPvzmkiWj-20" value="+ Owner: Owner" style="text;strokeColor=none;fillColor=none;align=left;verticalAlign=top;spacingLeft=4;spacingRight=4;overflow=hidden;rotatable=0;points=[[0,0.5],[1,0.5]];portConstraint=eastwest;whiteSpace=wrap;html=1;" vertex="1" parent="0tO4ifJpbV5qPvzmkiWj-15">
          <mxGeometry y="182" width="190" height="26" as="geometry" />
        </mxCell>
        <mxCell id="0tO4ifJpbV5qPvzmkiWj-17" value="" style="line;strokeWidth=1;fillColor=none;align=left;verticalAlign=middle;spacingTop=-1;spacingLeft=3;spacingRight=3;rotatable=0;labelPosition=right;points=[];portConstraint=eastwest;strokeColor=inherit;" vertex="1" parent="0tO4ifJpbV5qPvzmkiWj-15">
          <mxGeometry y="208" width="190" height="8" as="geometry" />
        </mxCell>
        <mxCell id="0tO4ifJpbV5qPvzmkiWj-25" value="" style="endArrow=none;startArrow=diamondThin;endFill=0;startFill=1;html=1;verticalAlign=bottom;labelBackgroundColor=none;strokeWidth=1;startSize=8;endSize=8;rounded=0;exitX=1;exitY=0.5;exitDx=0;exitDy=0;entryX=0;entryY=0.5;entryDx=0;entryDy=0;" edge="1" parent="1" source="0tO4ifJpbV5qPvzmkiWj-21" target="0tO4ifJpbV5qPvzmkiWj-14">
          <mxGeometry width="160" relative="1" as="geometry">
            <mxPoint x="2010" y="660" as="sourcePoint" />
            <mxPoint x="2170" y="660" as="targetPoint" />
          </mxGeometry>
        </mxCell>
        <mxCell id="0tO4ifJpbV5qPvzmkiWj-26" value="" style="endArrow=none;startArrow=diamondThin;endFill=0;startFill=1;html=1;verticalAlign=bottom;labelBackgroundColor=none;strokeWidth=1;startSize=8;endSize=8;rounded=0;entryX=0.695;entryY=-0.012;entryDx=0;entryDy=0;entryPerimeter=0;exitX=0.814;exitY=1.094;exitDx=0;exitDy=0;exitPerimeter=0;" edge="1" parent="1" source="0tO4ifJpbV5qPvzmkiWj-3" target="0tO4ifJpbV5qPvzmkiWj-15">
          <mxGeometry width="160" relative="1" as="geometry">
            <mxPoint x="1790" y="640" as="sourcePoint" />
            <mxPoint x="1950" y="640" as="targetPoint" />
          </mxGeometry>
        </mxCell>
        <mxCell id="0tO4ifJpbV5qPvzmkiWj-27" value="FeedingRules" style="swimlane;fontStyle=1;align=center;verticalAlign=top;childLayout=stackLayout;horizontal=1;startSize=26;horizontalStack=0;resizeParent=1;resizeParentMax=0;resizeLast=0;collapsible=1;marginBottom=0;whiteSpace=wrap;html=1;fillColor=#f8cecc;strokeColor=#b85450;" vertex="1" parent="1">
          <mxGeometry x="2170" y="790" width="160" height="164" as="geometry" />
        </mxCell>
        <mxCell id="0tO4ifJpbV5qPvzmkiWj-28" value="+ ID: int" style="text;strokeColor=none;fillColor=none;align=left;verticalAlign=top;spacingLeft=4;spacingRight=4;overflow=hidden;rotatable=0;points=[[0,0.5],[1,0.5]];portConstraint=eastwest;whiteSpace=wrap;html=1;" vertex="1" parent="0tO4ifJpbV5qPvzmkiWj-27">
          <mxGeometry y="26" width="160" height="26" as="geometry" />
        </mxCell>
        <mxCell id="0tO4ifJpbV5qPvzmkiWj-39" value="+ FoodType: string" style="text;strokeColor=none;fillColor=none;align=left;verticalAlign=top;spacingLeft=4;spacingRight=4;overflow=hidden;rotatable=0;points=[[0,0.5],[1,0.5]];portConstraint=eastwest;whiteSpace=wrap;html=1;" vertex="1" parent="0tO4ifJpbV5qPvzmkiWj-27">
          <mxGeometry y="52" width="160" height="26" as="geometry" />
        </mxCell>
        <mxCell id="0tO4ifJpbV5qPvzmkiWj-41" value="+ Frequency: string" style="text;strokeColor=none;fillColor=none;align=left;verticalAlign=top;spacingLeft=4;spacingRight=4;overflow=hidden;rotatable=0;points=[[0,0.5],[1,0.5]];portConstraint=eastwest;whiteSpace=wrap;html=1;" vertex="1" parent="0tO4ifJpbV5qPvzmkiWj-27">
          <mxGeometry y="78" width="160" height="26" as="geometry" />
        </mxCell>
        <mxCell id="0tO4ifJpbV5qPvzmkiWj-42" value="+ Hours: string" style="text;strokeColor=none;fillColor=none;align=left;verticalAlign=top;spacingLeft=4;spacingRight=4;overflow=hidden;rotatable=0;points=[[0,0.5],[1,0.5]];portConstraint=eastwest;whiteSpace=wrap;html=1;" vertex="1" parent="0tO4ifJpbV5qPvzmkiWj-27">
          <mxGeometry y="104" width="160" height="26" as="geometry" />
        </mxCell>
        <mxCell id="0tO4ifJpbV5qPvzmkiWj-40" value="+ AditionalNotes: string" style="text;strokeColor=none;fillColor=none;align=left;verticalAlign=top;spacingLeft=4;spacingRight=4;overflow=hidden;rotatable=0;points=[[0,0.5],[1,0.5]];portConstraint=eastwest;whiteSpace=wrap;html=1;" vertex="1" parent="0tO4ifJpbV5qPvzmkiWj-27">
          <mxGeometry y="130" width="160" height="26" as="geometry" />
        </mxCell>
        <mxCell id="0tO4ifJpbV5qPvzmkiWj-29" value="" style="line;strokeWidth=1;fillColor=none;align=left;verticalAlign=middle;spacingTop=-1;spacingLeft=3;spacingRight=3;rotatable=0;labelPosition=right;points=[];portConstraint=eastwest;strokeColor=inherit;" vertex="1" parent="0tO4ifJpbV5qPvzmkiWj-27">
          <mxGeometry y="156" width="160" height="8" as="geometry" />
        </mxCell>
        <mxCell id="0tO4ifJpbV5qPvzmkiWj-31" value="Owner" style="swimlane;fontStyle=1;align=center;verticalAlign=top;childLayout=stackLayout;horizontal=1;startSize=26;horizontalStack=0;resizeParent=1;resizeParentMax=0;resizeLast=0;collapsible=1;marginBottom=0;whiteSpace=wrap;html=1;fillColor=#f8cecc;strokeColor=#b85450;" vertex="1" parent="1">
          <mxGeometry x="2040" y="979" width="160" height="190" as="geometry" />
        </mxCell>
        <mxCell id="0tO4ifJpbV5qPvzmkiWj-32" value="+ ID: int" style="text;strokeColor=none;fillColor=none;align=left;verticalAlign=top;spacingLeft=4;spacingRight=4;overflow=hidden;rotatable=0;points=[[0,0.5],[1,0.5]];portConstraint=eastwest;whiteSpace=wrap;html=1;" vertex="1" parent="0tO4ifJpbV5qPvzmkiWj-31">
          <mxGeometry y="26" width="160" height="26" as="geometry" />
        </mxCell>
        <mxCell id="0tO4ifJpbV5qPvzmkiWj-46" value="+ Name: string" style="text;strokeColor=none;fillColor=none;align=left;verticalAlign=top;spacingLeft=4;spacingRight=4;overflow=hidden;rotatable=0;points=[[0,0.5],[1,0.5]];portConstraint=eastwest;whiteSpace=wrap;html=1;" vertex="1" parent="0tO4ifJpbV5qPvzmkiWj-31">
          <mxGeometry y="52" width="160" height="26" as="geometry" />
        </mxCell>
        <mxCell id="0tO4ifJpbV5qPvzmkiWj-47" value="+ Surname: string" style="text;strokeColor=none;fillColor=none;align=left;verticalAlign=top;spacingLeft=4;spacingRight=4;overflow=hidden;rotatable=0;points=[[0,0.5],[1,0.5]];portConstraint=eastwest;whiteSpace=wrap;html=1;" vertex="1" parent="0tO4ifJpbV5qPvzmkiWj-31">
          <mxGeometry y="78" width="160" height="26" as="geometry" />
        </mxCell>
        <mxCell id="0tO4ifJpbV5qPvzmkiWj-45" value="+ Address: string" style="text;strokeColor=none;fillColor=none;align=left;verticalAlign=top;spacingLeft=4;spacingRight=4;overflow=hidden;rotatable=0;points=[[0,0.5],[1,0.5]];portConstraint=eastwest;whiteSpace=wrap;html=1;" vertex="1" parent="0tO4ifJpbV5qPvzmkiWj-31">
          <mxGeometry y="104" width="160" height="26" as="geometry" />
        </mxCell>
        <mxCell id="0tO4ifJpbV5qPvzmkiWj-48" value="+ PhoneNumber: string" style="text;strokeColor=none;fillColor=none;align=left;verticalAlign=top;spacingLeft=4;spacingRight=4;overflow=hidden;rotatable=0;points=[[0,0.5],[1,0.5]];portConstraint=eastwest;whiteSpace=wrap;html=1;" vertex="1" parent="0tO4ifJpbV5qPvzmkiWj-31">
          <mxGeometry y="130" width="160" height="26" as="geometry" />
        </mxCell>
        <mxCell id="0tO4ifJpbV5qPvzmkiWj-49" value="+ Email: string" style="text;strokeColor=none;fillColor=none;align=left;verticalAlign=top;spacingLeft=4;spacingRight=4;overflow=hidden;rotatable=0;points=[[0,0.5],[1,0.5]];portConstraint=eastwest;whiteSpace=wrap;html=1;" vertex="1" parent="0tO4ifJpbV5qPvzmkiWj-31">
          <mxGeometry y="156" width="160" height="26" as="geometry" />
        </mxCell>
        <mxCell id="0tO4ifJpbV5qPvzmkiWj-33" value="" style="line;strokeWidth=1;fillColor=none;align=left;verticalAlign=middle;spacingTop=-1;spacingLeft=3;spacingRight=3;rotatable=0;labelPosition=right;points=[];portConstraint=eastwest;strokeColor=inherit;" vertex="1" parent="0tO4ifJpbV5qPvzmkiWj-31">
          <mxGeometry y="182" width="160" height="8" as="geometry" />
        </mxCell>
        <mxCell id="0tO4ifJpbV5qPvzmkiWj-35" value="Health" style="swimlane;fontStyle=1;align=center;verticalAlign=top;childLayout=stackLayout;horizontal=1;startSize=26;horizontalStack=0;resizeParent=1;resizeParentMax=0;resizeLast=0;collapsible=1;marginBottom=0;whiteSpace=wrap;html=1;fillColor=#f8cecc;strokeColor=#b85450;" vertex="1" parent="1">
          <mxGeometry x="1680" y="790" width="160" height="138" as="geometry" />
        </mxCell>
        <mxCell id="0tO4ifJpbV5qPvzmkiWj-36" value="+ ID: int" style="text;strokeColor=none;fillColor=none;align=left;verticalAlign=top;spacingLeft=4;spacingRight=4;overflow=hidden;rotatable=0;points=[[0,0.5],[1,0.5]];portConstraint=eastwest;whiteSpace=wrap;html=1;" vertex="1" parent="0tO4ifJpbV5qPvzmkiWj-35">
          <mxGeometry y="26" width="160" height="26" as="geometry" />
        </mxCell>
        <mxCell id="0tO4ifJpbV5qPvzmkiWj-51" value="+ HealthStatus: string" style="text;strokeColor=none;fillColor=none;align=left;verticalAlign=top;spacingLeft=4;spacingRight=4;overflow=hidden;rotatable=0;points=[[0,0.5],[1,0.5]];portConstraint=eastwest;whiteSpace=wrap;html=1;" vertex="1" parent="0tO4ifJpbV5qPvzmkiWj-35">
          <mxGeometry y="52" width="160" height="26" as="geometry" />
        </mxCell>
        <mxCell id="0tO4ifJpbV5qPvzmkiWj-50" value="+ Vaccination: string" style="text;strokeColor=none;fillColor=none;align=left;verticalAlign=top;spacingLeft=4;spacingRight=4;overflow=hidden;rotatable=0;points=[[0,0.5],[1,0.5]];portConstraint=eastwest;whiteSpace=wrap;html=1;" vertex="1" parent="0tO4ifJpbV5qPvzmkiWj-35">
          <mxGeometry y="78" width="160" height="26" as="geometry" />
        </mxCell>
        <mxCell id="0tO4ifJpbV5qPvzmkiWj-52" value="+ AditionalNotes: string" style="text;strokeColor=none;fillColor=none;align=left;verticalAlign=top;spacingLeft=4;spacingRight=4;overflow=hidden;rotatable=0;points=[[0,0.5],[1,0.5]];portConstraint=eastwest;whiteSpace=wrap;html=1;" vertex="1" parent="0tO4ifJpbV5qPvzmkiWj-35">
          <mxGeometry y="104" width="160" height="26" as="geometry" />
        </mxCell>
        <mxCell id="0tO4ifJpbV5qPvzmkiWj-37" value="" style="line;strokeWidth=1;fillColor=none;align=left;verticalAlign=middle;spacingTop=-1;spacingLeft=3;spacingRight=3;rotatable=0;labelPosition=right;points=[];portConstraint=eastwest;strokeColor=inherit;" vertex="1" parent="0tO4ifJpbV5qPvzmkiWj-35">
          <mxGeometry y="130" width="160" height="8" as="geometry" />
        </mxCell>
        <mxCell id="0tO4ifJpbV5qPvzmkiWj-53" value="" style="endArrow=none;startArrow=diamondThin;endFill=0;startFill=1;html=1;verticalAlign=bottom;labelBackgroundColor=none;strokeWidth=1;startSize=8;endSize=8;rounded=0;exitX=1;exitY=0.5;exitDx=0;exitDy=0;entryX=0;entryY=0.5;entryDx=0;entryDy=0;" edge="1" parent="1" source="0tO4ifJpbV5qPvzmkiWj-24" target="0tO4ifJpbV5qPvzmkiWj-28">
          <mxGeometry width="160" relative="1" as="geometry">
            <mxPoint x="2110" y="739" as="sourcePoint" />
            <mxPoint x="2180" y="741" as="targetPoint" />
          </mxGeometry>
        </mxCell>
        <mxCell id="0tO4ifJpbV5qPvzmkiWj-54" value="" style="endArrow=none;startArrow=diamondThin;endFill=0;startFill=1;html=1;verticalAlign=bottom;labelBackgroundColor=none;strokeWidth=1;startSize=8;endSize=8;rounded=0;exitX=1.029;exitY=0.777;exitDx=0;exitDy=0;entryX=0.5;entryY=0;entryDx=0;entryDy=0;exitPerimeter=0;" edge="1" parent="1" source="0tO4ifJpbV5qPvzmkiWj-20" target="0tO4ifJpbV5qPvzmkiWj-31">
          <mxGeometry width="160" relative="1" as="geometry">
            <mxPoint x="2110" y="817" as="sourcePoint" />
            <mxPoint x="2180" y="839" as="targetPoint" />
          </mxGeometry>
        </mxCell>
        <mxCell id="0tO4ifJpbV5qPvzmkiWj-55" value="" style="endArrow=none;startArrow=diamondThin;endFill=0;startFill=1;html=1;verticalAlign=bottom;labelBackgroundColor=none;strokeWidth=1;startSize=8;endSize=8;rounded=0;exitX=0;exitY=0.5;exitDx=0;exitDy=0;entryX=0.998;entryY=0.112;entryDx=0;entryDy=0;entryPerimeter=0;" edge="1" parent="1" source="0tO4ifJpbV5qPvzmkiWj-23" target="0tO4ifJpbV5qPvzmkiWj-35">
          <mxGeometry width="160" relative="1" as="geometry">
            <mxPoint x="2116" y="902" as="sourcePoint" />
            <mxPoint x="2130" y="989" as="targetPoint" />
          </mxGeometry>
        </mxCell>
        <mxCell id="0tO4ifJpbV5qPvzmkiWj-57" value="WalksRules" style="swimlane;fontStyle=1;align=center;verticalAlign=top;childLayout=stackLayout;horizontal=1;startSize=26;horizontalStack=0;resizeParent=1;resizeParentMax=0;resizeLast=0;collapsible=1;marginBottom=0;whiteSpace=wrap;html=1;fillColor=#f8cecc;strokeColor=#b85450;" vertex="1" parent="1">
          <mxGeometry x="1720" y="970" width="160" height="112" as="geometry" />
        </mxCell>
        <mxCell id="0tO4ifJpbV5qPvzmkiWj-58" value="+ ID: int" style="text;strokeColor=none;fillColor=none;align=left;verticalAlign=top;spacingLeft=4;spacingRight=4;overflow=hidden;rotatable=0;points=[[0,0.5],[1,0.5]];portConstraint=eastwest;whiteSpace=wrap;html=1;" vertex="1" parent="0tO4ifJpbV5qPvzmkiWj-57">
          <mxGeometry y="26" width="160" height="26" as="geometry" />
        </mxCell>
        <mxCell id="0tO4ifJpbV5qPvzmkiWj-61" value="+ Hours: string" style="text;strokeColor=none;fillColor=none;align=left;verticalAlign=top;spacingLeft=4;spacingRight=4;overflow=hidden;rotatable=0;points=[[0,0.5],[1,0.5]];portConstraint=eastwest;whiteSpace=wrap;html=1;" vertex="1" parent="0tO4ifJpbV5qPvzmkiWj-57">
          <mxGeometry y="52" width="160" height="26" as="geometry" />
        </mxCell>
        <mxCell id="0tO4ifJpbV5qPvzmkiWj-62" value="+ Length: string" style="text;strokeColor=none;fillColor=none;align=left;verticalAlign=top;spacingLeft=4;spacingRight=4;overflow=hidden;rotatable=0;points=[[0,0.5],[1,0.5]];portConstraint=eastwest;whiteSpace=wrap;html=1;" vertex="1" parent="0tO4ifJpbV5qPvzmkiWj-57">
          <mxGeometry y="78" width="160" height="26" as="geometry" />
        </mxCell>
        <mxCell id="0tO4ifJpbV5qPvzmkiWj-59" value="" style="line;strokeWidth=1;fillColor=none;align=left;verticalAlign=middle;spacingTop=-1;spacingLeft=3;spacingRight=3;rotatable=0;labelPosition=right;points=[];portConstraint=eastwest;strokeColor=inherit;" vertex="1" parent="0tO4ifJpbV5qPvzmkiWj-57">
          <mxGeometry y="104" width="160" height="8" as="geometry" />
        </mxCell>
        <mxCell id="0tO4ifJpbV5qPvzmkiWj-63" value="" style="endArrow=none;startArrow=diamondThin;endFill=0;startFill=1;html=1;verticalAlign=bottom;labelBackgroundColor=none;strokeWidth=1;startSize=8;endSize=8;rounded=0;entryX=0.75;entryY=0;entryDx=0;entryDy=0;exitX=0;exitY=0.5;exitDx=0;exitDy=0;" edge="1" parent="1" source="0tO4ifJpbV5qPvzmkiWj-22" target="0tO4ifJpbV5qPvzmkiWj-57">
          <mxGeometry width="160" relative="1" as="geometry">
            <mxPoint x="1880" y="870" as="sourcePoint" />
            <mxPoint x="1850" y="815" as="targetPoint" />
          </mxGeometry>
        </mxCell>
        <mxCell id="0tO4ifJpbV5qPvzmkiWj-68" value="Visit" style="swimlane;fontStyle=1;align=center;verticalAlign=top;childLayout=stackLayout;horizontal=1;startSize=26;horizontalStack=0;resizeParent=1;resizeParentMax=0;resizeLast=0;collapsible=1;marginBottom=0;whiteSpace=wrap;html=1;fillColor=#f8cecc;strokeColor=#b85450;" vertex="1" parent="1">
          <mxGeometry x="1680" y="585" width="160" height="164" as="geometry" />
        </mxCell>
        <mxCell id="0tO4ifJpbV5qPvzmkiWj-65" value="+ ID: int" style="text;strokeColor=none;fillColor=none;align=left;verticalAlign=top;spacingLeft=4;spacingRight=4;overflow=hidden;rotatable=0;points=[[0,0.5],[1,0.5]];portConstraint=eastwest;whiteSpace=wrap;html=1;" vertex="1" parent="0tO4ifJpbV5qPvzmkiWj-68">
          <mxGeometry y="26" width="160" height="26" as="geometry" />
        </mxCell>
        <mxCell id="0tO4ifJpbV5qPvzmkiWj-67" value="+ EndDate: DateTime" style="text;strokeColor=none;fillColor=none;align=left;verticalAlign=top;spacingLeft=4;spacingRight=4;overflow=hidden;rotatable=0;points=[[0,0.5],[1,0.5]];portConstraint=eastwest;whiteSpace=wrap;html=1;" vertex="1" parent="0tO4ifJpbV5qPvzmkiWj-68">
          <mxGeometry y="52" width="160" height="26" as="geometry" />
        </mxCell>
        <mxCell id="0tO4ifJpbV5qPvzmkiWj-66" value="+ BeginDate: DateTime" style="text;strokeColor=none;fillColor=none;align=left;verticalAlign=top;spacingLeft=4;spacingRight=4;overflow=hidden;rotatable=0;points=[[0,0.5],[1,0.5]];portConstraint=eastwest;whiteSpace=wrap;html=1;" vertex="1" parent="0tO4ifJpbV5qPvzmkiWj-68">
          <mxGeometry y="78" width="160" height="26" as="geometry" />
        </mxCell>
        <mxCell id="0tO4ifJpbV5qPvzmkiWj-69" value="+ Status: Status&lt;span style=&quot;color: rgba(0, 0, 0, 0); font-family: monospace; font-size: 0px; text-wrap: nowrap;&quot;&gt;%3CmxGraphModel%3E%3Croot%3E%3CmxCell%20id%3D%220%22%2F%3E%3CmxCell%20id%3D%221%22%20parent%3D%220%22%2F%3E%3CmxCell%20id%3D%222%22%20value%3D%22%22%20style%3D%22endArrow%3Dnone%3BstartArrow%3DdiamondThin%3BendFill%3D0%3BstartFill%3D1%3Bhtml%3D1%3BverticalAlign%3Dbottom%3BlabelBackgroundColor%3Dnone%3BstrokeWidth%3D1%3BstartSize%3D8%3BendSize%3D8%3Brounded%3D0%3BexitX%3D0%3BexitY%3D0.5%3BexitDx%3D0%3BexitDy%3D0%3BentryX%3D0.998%3BentryY%3D0.112%3BentryDx%3D0%3BentryDy%3D0%3BentryPerimeter%3D0%3B%22%20edge%3D%221%22%20parent%3D%221%22%3E%3CmxGeometry%20width%3D%22160%22%20relative%3D%221%22%20as%3D%22geometry%22%3E%3CmxPoint%20x%3D%221910%22%20y%3D%22833%22%20as%3D%22sourcePoint%22%2F%3E%3CmxPoint%20x%3D%221840%22%20y%3D%22805%22%20as%3D%22targetPoint%22%2F%3E%3C%2FmxGeometry%3E%3C%2FmxCell%3E%3C%2Froot%3E%3C%2FmxGraphModel%3E&lt;/span&gt;" style="text;strokeColor=none;fillColor=none;align=left;verticalAlign=top;spacingLeft=4;spacingRight=4;overflow=hidden;rotatable=0;points=[[0,0.5],[1,0.5]];portConstraint=eastwest;whiteSpace=wrap;html=1;" vertex="1" parent="0tO4ifJpbV5qPvzmkiWj-68">
          <mxGeometry y="104" width="160" height="26" as="geometry" />
        </mxCell>
        <mxCell id="0tO4ifJpbV5qPvzmkiWj-72" value="+ Animal: Animal&lt;span style=&quot;color: rgba(0, 0, 0, 0); font-family: monospace; font-size: 0px; text-wrap: nowrap;&quot;&gt;%3CmxGraphModel%3E%3Croot%3E%3CmxCell%20id%3D%220%22%2F%3E%3CmxCell%20id%3D%221%22%20parent%3D%220%22%2F%3E%3CmxCell%20id%3D%222%22%20value%3D%22%22%20style%3D%22endArrow%3Dnone%3BstartArrow%3DdiamondThin%3BendFill%3D0%3BstartFill%3D1%3Bhtml%3D1%3BverticalAlign%3Dbottom%3BlabelBackgroundColor%3Dnone%3BstrokeWidth%3D1%3BstartSize%3D8%3BendSize%3D8%3Brounded%3D0%3BexitX%3D0%3BexitY%3D0.5%3BexitDx%3D0%3BexitDy%3D0%3BentryX%3D0.998%3BentryY%3D0.112%3BentryDx%3D0%3BentryDy%3D0%3BentryPerimeter%3D0%3B%22%20edge%3D%221%22%20parent%3D%221%22%3E%3CmxGeometry%20width%3D%22160%22%20relative%3D%221%22%20as%3D%22geometry%22%3E%3CmxPoint%20x%3D%221910%22%20y%3D%22833%22%20as%3D%22sourcePoint%22%2F%3E%3CmxPoint%20x%3D%221840%22%20y%3D%22805%22%20as%3D%22targetPoint%22%2F%3E%3C%2FmxGeometry%3E%3C%2FmxCell%3E%3C%2Froot%3E%3C%2FmxGraphModel%3E&lt;/span&gt;" style="text;strokeColor=none;fillColor=none;align=left;verticalAlign=top;spacingLeft=4;spacingRight=4;overflow=hidden;rotatable=0;points=[[0,0.5],[1,0.5]];portConstraint=eastwest;whiteSpace=wrap;html=1;" vertex="1" parent="0tO4ifJpbV5qPvzmkiWj-68">
          <mxGeometry y="130" width="160" height="26" as="geometry" />
        </mxCell>
        <mxCell id="0tO4ifJpbV5qPvzmkiWj-70" value="" style="line;strokeWidth=1;fillColor=none;align=left;verticalAlign=middle;spacingTop=-1;spacingLeft=3;spacingRight=3;rotatable=0;labelPosition=right;points=[];portConstraint=eastwest;strokeColor=inherit;" vertex="1" parent="0tO4ifJpbV5qPvzmkiWj-68">
          <mxGeometry y="156" width="160" height="8" as="geometry" />
        </mxCell>
        <mxCell id="0tO4ifJpbV5qPvzmkiWj-73" value="Status" style="swimlane;fontStyle=1;align=center;verticalAlign=top;childLayout=stackLayout;horizontal=1;startSize=26;horizontalStack=0;resizeParent=1;resizeParentMax=0;resizeLast=0;collapsible=1;marginBottom=0;whiteSpace=wrap;html=1;fillColor=#f8cecc;strokeColor=#b85450;" vertex="1" parent="1">
          <mxGeometry x="1440" y="663" width="160" height="86" as="geometry" />
        </mxCell>
        <mxCell id="0tO4ifJpbV5qPvzmkiWj-74" value="+ ID: int" style="text;strokeColor=none;fillColor=none;align=left;verticalAlign=top;spacingLeft=4;spacingRight=4;overflow=hidden;rotatable=0;points=[[0,0.5],[1,0.5]];portConstraint=eastwest;whiteSpace=wrap;html=1;" vertex="1" parent="0tO4ifJpbV5qPvzmkiWj-73">
          <mxGeometry y="26" width="160" height="26" as="geometry" />
        </mxCell>
        <mxCell id="0tO4ifJpbV5qPvzmkiWj-78" value="+ StatusName: string" style="text;strokeColor=none;fillColor=none;align=left;verticalAlign=top;spacingLeft=4;spacingRight=4;overflow=hidden;rotatable=0;points=[[0,0.5],[1,0.5]];portConstraint=eastwest;whiteSpace=wrap;html=1;" vertex="1" parent="0tO4ifJpbV5qPvzmkiWj-73">
          <mxGeometry y="52" width="160" height="26" as="geometry" />
        </mxCell>
        <mxCell id="0tO4ifJpbV5qPvzmkiWj-75" value="" style="line;strokeWidth=1;fillColor=none;align=left;verticalAlign=middle;spacingTop=-1;spacingLeft=3;spacingRight=3;rotatable=0;labelPosition=right;points=[];portConstraint=eastwest;strokeColor=inherit;" vertex="1" parent="0tO4ifJpbV5qPvzmkiWj-73">
          <mxGeometry y="78" width="160" height="8" as="geometry" />
        </mxCell>
        <mxCell id="0tO4ifJpbV5qPvzmkiWj-79" value="" style="endArrow=none;startArrow=diamondThin;endFill=0;startFill=1;html=1;verticalAlign=bottom;labelBackgroundColor=none;strokeWidth=1;startSize=8;endSize=8;rounded=0;exitX=1;exitY=0.5;exitDx=0;exitDy=0;" edge="1" parent="1" source="0tO4ifJpbV5qPvzmkiWj-72" target="0tO4ifJpbV5qPvzmkiWj-15">
          <mxGeometry width="160" relative="1" as="geometry">
            <mxPoint x="1780" y="620" as="sourcePoint" />
            <mxPoint x="2052" y="697" as="targetPoint" />
          </mxGeometry>
        </mxCell>
        <mxCell id="0tO4ifJpbV5qPvzmkiWj-80" value="" style="endArrow=none;startArrow=diamondThin;endFill=0;startFill=1;html=1;verticalAlign=bottom;labelBackgroundColor=none;strokeWidth=1;startSize=8;endSize=8;rounded=0;entryX=1;entryY=0.5;entryDx=0;entryDy=0;exitX=0;exitY=0.5;exitDx=0;exitDy=0;" edge="1" parent="1" source="0tO4ifJpbV5qPvzmkiWj-69" target="0tO4ifJpbV5qPvzmkiWj-74">
          <mxGeometry width="160" relative="1" as="geometry">
            <mxPoint x="2060" y="649" as="sourcePoint" />
            <mxPoint x="2062" y="707" as="targetPoint" />
          </mxGeometry>
        </mxCell>
      </root>
    </mxGraphModel>
  </diagram>
</mxfile>
